999
DXF created by Inkscape
  0
SECTION
  2
HEADER
  9
$ACADVER
  1
AC1014
  9
$HANDSEED
  5
FFFF
  9
$MEASUREMENT
 70
     1
  0
ENDSEC
  0
SECTION
  2
TABLES
  0
TABLE
  2
VPORT
  5
8
330
0
100
AcDbSymbolTable
 70
     4
  0
VPORT
  5
2E
330
8
100
AcDbSymbolTableRecord
100
AcDbViewportTableRecord
  2
*ACTIVE
 70
     0
 10
0.0
 20
0.0
 11
1.0
 21
1.0
 12
210.0
 22
148.5
 13
0.0
 23
0.0
 14
10.0
 24
10.0
 15
10.0
 25
10.0
 16
0.0
 26
0.0
 36
1.0
 17
0.0
 27
0.0
 37
0.0
 40
341.0
 41
1.24
 42
50.0
 43
0.0
 44
0.0
 50
0.0
 51
0.0
 71
     0
 72
   100
 73
     1
 74
     3
 75
     0
 76
     0
 77
     0
 78
     0
  0
ENDTAB
  0
TABLE
  2
LTYPE
  5
5
330
0
100
AcDbSymbolTable
 70
     1
  0
LTYPE
  5
14
330
5
100
AcDbSymbolTableRecord
100
AcDbLinetypeTableRecord
  2
BYBLOCK
 70
     0
  3

 72
    65
 73
     0
 40
0.0
  0
LTYPE
  5
15
330
5
100
AcDbSymbolTableRecord
100
AcDbLinetypeTableRecord
  2
BYLAYER
 70
     0
  3

 72
    65
 73
     0
 40
0.0
  0
LTYPE
  5
16
330
5
100
AcDbSymbolTableRecord
100
AcDbLinetypeTableRecord
  2
CONTINUOUS
 70
     0
  3
Solid line
 72
    65
 73
     0
 40
0.0
  0
ENDTAB
  0
TABLE
  2
LAYER
  5
2
100
AcDbSymbolTable
 70
2
  0
LAYER
  5
50
100
AcDbSymbolTableRecord
100
AcDbLayerTableRecord
  2
0
 70
0
  6
CONTINUOUS
  0
LAYER
  5
51
100
AcDbSymbolTableRecord
100
AcDbLayerTableRecord
  2
Layer_1
 70
0
  6
CONTINUOUS
  0
ENDTAB
  0
TABLE
  2
STYLE
  5
3
330
0
100
AcDbSymbolTable
 70
     1
  0
STYLE
  5
11
330
3
100
AcDbSymbolTableRecord
100
AcDbTextStyleTableRecord
  2
STANDARD
 70
     0
 40
0.0
 41
1.0
 50
0.0
 71
     0
 42
2.5
  3
txt
  4

  0
ENDTAB
  0
TABLE
  2
VIEW
  5
6
330
0
100
AcDbSymbolTable
 70
     0
  0
ENDTAB
  0
TABLE
  2
UCS
  5
7
330
0
100
AcDbSymbolTable
 70
     0
  0
ENDTAB
  0
TABLE
  2
APPID
  5
9
330
0
100
AcDbSymbolTable
 70
     2
  0
APPID
  5
12
330
9
100
AcDbSymbolTableRecord
100
AcDbRegAppTableRecord
  2
ACAD
 70
     0
  0
ENDTAB
  0
TABLE
  2
DIMSTYLE
  5
A
330
0
100
AcDbSymbolTable
 70
     1
  0
DIMSTYLE
105
27
330
A
100
AcDbSymbolTableRecord
100
AcDbDimStyleTableRecord
  2
ISO-25
 70
     0
  3

  4

  5

  6

  7

 40
1.0
 41
2.5
 42
0.625
 43
3.75
 44
1.25
 45
0.0
 46
0.0
 47
0.0
 48
0.0
140
2.5
141
2.5
142
0.0
143
0.03937007874016
144
1.0
145
0.0
146
1.0
147
0.625
 71
     0
 72
     0
 73
     0
 74
     0
 75
     0
 76
     0
 77
     1
 78
     8
170
     0
171
     3
172
     1
173
     0
174
     0
175
     0
176
     0
177
     0
178
     0
270
     2
271
     2
272
     2
273
     2
274
     3
340
11
275
     0
280
     0
281
     0
282
     0
283
     0
284
     8
285
     0
286
     0
287
     3
288
     0
  0
ENDTAB
  0
TABLE
  2
BLOCK_RECORD
  5
1
330
0
100
AcDbSymbolTable
 70
     1
  0
BLOCK_RECORD
  5
1F
330
1
100
AcDbSymbolTableRecord
100
AcDbBlockTableRecord
  2
*MODEL_SPACE
  0
BLOCK_RECORD
  5
1B
330
1
100
AcDbSymbolTableRecord
100
AcDbBlockTableRecord
  2
*PAPER_SPACE
  0
ENDTAB
  0
ENDSEC
  0
SECTION
  2
BLOCKS
  0
BLOCK
  5
20
330
1F
100
AcDbEntity
  8
0
100
AcDbBlockBegin
  2
*MODEL_SPACE
 70
     0
 10
0.0
 20
0.0
 30
0.0
  3
*MODEL_SPACE
  1

  0
ENDBLK
  5
21
330
1F
100
AcDbEntity
  8
0
100
AcDbBlockEnd
  0
BLOCK
  5
1C
330
1B
100
AcDbEntity
 67
     1
  8
0
100
AcDbBlockBegin
  2
*PAPER_SPACE
  1

  0
ENDBLK
  5
1D
330
1B
100
AcDbEntity
 67
     1
  8
0
100
AcDbBlockEnd
  0
ENDSEC
  0
SECTION
  2
ENTITIES
  0
LINE
  5
100
100
AcDbEntity
  8
Layer_1
 62
7
100
AcDbLine
 10
66.727917
 20
288.586250
 30
0.0
 11
66.701458
 21
288.242292
 31
0.0
  0
LINE
  5
101
100
AcDbEntity
  8
Layer_1
 62
7
100
AcDbLine
 10
66.701458
 20
288.242292
 30
0.0
 11
66.675000
 21
287.898333
 31
0.0
  0
LINE
  5
102
100
AcDbEntity
  8
Layer_1
 62
7
100
AcDbLine
 10
66.675000
 20
287.898333
 30
0.0
 11
66.648542
 21
287.554375
 31
0.0
  0
LINE
  5
103
100
AcDbEntity
  8
Layer_1
 62
7
100
AcDbLine
 10
66.648542
 20
287.554375
 30
0.0
 11
66.622083
 21
287.210417
 31
0.0
  0
LINE
  5
104
100
AcDbEntity
  8
Layer_1
 62
7
100
AcDbLine
 10
66.622083
 20
287.210417
 30
0.0
 11
65.890069
 21
283.735556
 31
0.0
  0
LINE
  5
105
100
AcDbEntity
  8
Layer_1
 62
7
100
AcDbLine
 10
65.890069
 20
283.735556
 30
0.0
 11
64.346667
 21
280.419444
 31
0.0
  0
LINE
  5
106
100
AcDbEntity
  8
Layer_1
 62
7
100
AcDbLine
 10
64.346667
 20
280.419444
 30
0.0
 11
62.115347
 21
277.447292
 31
0.0
  0
LINE
  5
107
100
AcDbEntity
  8
Layer_1
 62
7
100
AcDbLine
 10
62.115347
 20
277.447292
 30
0.0
 11
59.319583
 21
275.048403
 31
0.0
  0
LINE
  5
108
100
AcDbEntity
  8
Layer_1
 62
7
100
AcDbLine
 10
59.319583
 20
275.048403
 30
0.0
 11
58.331806
 21
274.439861
 31
0.0
  0
LINE
  5
109
100
AcDbEntity
  8
Layer_1
 62
7
100
AcDbLine
 10
58.331806
 20
274.439861
 30
0.0
 11
57.185278
 21
273.822500
 31
0.0
  0
LINE
  5
10a
100
AcDbEntity
  8
Layer_1
 62
7
100
AcDbLine
 10
57.185278
 20
273.822500
 30
0.0
 11
56.056389
 21
273.284514
 31
0.0
  0
LINE
  5
10b
100
AcDbEntity
  8
Layer_1
 62
7
100
AcDbLine
 10
56.056389
 20
273.284514
 30
0.0
 11
55.147986
 21
272.922917
 31
0.0
  0
LINE
  5
10c
100
AcDbEntity
  8
Layer_1
 62
7
100
AcDbLine
 10
55.147986
 20
272.922917
 30
0.0
 11
54.980417
 21
272.870000
 31
0.0
  0
LINE
  5
10d
100
AcDbEntity
  8
Layer_1
 62
7
100
AcDbLine
 10
54.980417
 20
272.870000
 30
0.0
 11
54.812847
 21
272.817083
 31
0.0
  0
LINE
  5
10e
100
AcDbEntity
  8
Layer_1
 62
7
100
AcDbLine
 10
54.812847
 20
272.817083
 30
0.0
 11
54.645278
 21
272.764167
 31
0.0
  0
LINE
  5
10f
100
AcDbEntity
  8
Layer_1
 62
7
100
AcDbLine
 10
54.645278
 20
272.764167
 30
0.0
 11
54.477708
 21
272.702431
 31
0.0
  0
LINE
  5
110
100
AcDbEntity
  8
Layer_1
 62
7
100
AcDbLine
 10
54.477708
 20
272.702431
 30
0.0
 11
54.477708
 21
258.926458
 31
0.0
  0
LINE
  5
111
100
AcDbEntity
  8
Layer_1
 62
7
100
AcDbLine
 10
54.477708
 20
258.926458
 30
0.0
 11
54.477708
 21
245.150486
 31
0.0
  0
LINE
  5
112
100
AcDbEntity
  8
Layer_1
 62
7
100
AcDbLine
 10
54.477708
 20
245.150486
 30
0.0
 11
54.477708
 21
231.365694
 31
0.0
  0
LINE
  5
113
100
AcDbEntity
  8
Layer_1
 62
7
100
AcDbLine
 10
54.477708
 20
231.365694
 30
0.0
 11
54.477708
 21
217.589722
 31
0.0
  0
LINE
  5
114
100
AcDbEntity
  8
Layer_1
 62
7
100
AcDbLine
 10
54.477708
 20
217.589722
 30
0.0
 11
54.477708
 21
203.804931
 31
0.0
  0
LINE
  5
115
100
AcDbEntity
  8
Layer_1
 62
7
100
AcDbLine
 10
54.477708
 20
203.804931
 30
0.0
 11
54.477708
 21
190.028958
 31
0.0
  0
LINE
  5
116
100
AcDbEntity
  8
Layer_1
 62
7
100
AcDbLine
 10
54.477708
 20
190.028958
 30
0.0
 11
54.477708
 21
176.244167
 31
0.0
  0
LINE
  5
117
100
AcDbEntity
  8
Layer_1
 62
7
100
AcDbLine
 10
54.477708
 20
176.244167
 30
0.0
 11
54.477708
 21
162.468194
 31
0.0
  0
LINE
  5
118
100
AcDbEntity
  8
Layer_1
 62
7
100
AcDbLine
 10
54.477708
 20
162.468194
 30
0.0
 11
56.444444
 21
162.468194
 31
0.0
  0
LINE
  5
119
100
AcDbEntity
  8
Layer_1
 62
7
100
AcDbLine
 10
56.444444
 20
162.468194
 30
0.0
 11
58.420000
 21
162.468194
 31
0.0
  0
LINE
  5
11a
100
AcDbEntity
  8
Layer_1
 62
7
100
AcDbLine
 10
58.420000
 20
162.468194
 30
0.0
 11
60.386736
 21
162.468194
 31
0.0
  0
LINE
  5
11b
100
AcDbEntity
  8
Layer_1
 62
7
100
AcDbLine
 10
60.386736
 20
162.468194
 30
0.0
 11
62.353472
 21
162.468194
 31
0.0
  0
LINE
  5
11c
100
AcDbEntity
  8
Layer_1
 62
7
100
AcDbLine
 10
62.353472
 20
162.468194
 30
0.0
 11
64.329028
 21
162.468194
 31
0.0
  0
LINE
  5
11d
100
AcDbEntity
  8
Layer_1
 62
7
100
AcDbLine
 10
64.329028
 20
162.468194
 30
0.0
 11
66.295764
 21
162.468194
 31
0.0
  0
LINE
  5
11e
100
AcDbEntity
  8
Layer_1
 62
7
100
AcDbLine
 10
66.295764
 20
162.468194
 30
0.0
 11
68.262500
 21
162.468194
 31
0.0
  0
LINE
  5
11f
100
AcDbEntity
  8
Layer_1
 62
7
100
AcDbLine
 10
68.262500
 20
162.468194
 30
0.0
 11
70.238056
 21
162.468194
 31
0.0
  0
LINE
  5
120
100
AcDbEntity
  8
Layer_1
 62
7
100
AcDbLine
 10
70.238056
 20
162.468194
 30
0.0
 11
70.255694
 21
162.591667
 31
0.0
  0
LINE
  5
121
100
AcDbEntity
  8
Layer_1
 62
7
100
AcDbLine
 10
70.255694
 20
162.591667
 30
0.0
 11
70.282153
 21
162.715139
 31
0.0
  0
LINE
  5
122
100
AcDbEntity
  8
Layer_1
 62
7
100
AcDbLine
 10
70.282153
 20
162.715139
 30
0.0
 11
70.308611
 21
162.838611
 31
0.0
  0
LINE
  5
123
100
AcDbEntity
  8
Layer_1
 62
7
100
AcDbLine
 10
70.308611
 20
162.838611
 30
0.0
 11
70.326250
 21
162.962083
 31
0.0
  0
LINE
  5
124
100
AcDbEntity
  8
Layer_1
 62
7
100
AcDbLine
 10
70.326250
 20
162.962083
 30
0.0
 11
70.370347
 21
163.235486
 31
0.0
  0
LINE
  5
125
100
AcDbEntity
  8
Layer_1
 62
7
100
AcDbLine
 10
70.370347
 20
163.235486
 30
0.0
 11
70.432083
 21
163.614722
 31
0.0
  0
LINE
  5
126
100
AcDbEntity
  8
Layer_1
 62
7
100
AcDbLine
 10
70.432083
 20
163.614722
 30
0.0
 11
70.485000
 21
164.064514
 31
0.0
  0
LINE
  5
127
100
AcDbEntity
  8
Layer_1
 62
7
100
AcDbLine
 10
70.485000
 20
164.064514
 30
0.0
 11
70.537917
 21
164.514306
 31
0.0
  0
LINE
  5
128
100
AcDbEntity
  8
Layer_1
 62
7
100
AcDbLine
 10
70.537917
 20
164.514306
 30
0.0
 11
70.749583
 21
165.660833
 31
0.0
  0
LINE
  5
129
100
AcDbEntity
  8
Layer_1
 62
7
100
AcDbLine
 10
70.749583
 20
165.660833
 30
0.0
 11
71.111181
 21
166.983750
 31
0.0
  0
LINE
  5
12a
100
AcDbEntity
  8
Layer_1
 62
7
100
AcDbLine
 10
71.111181
 20
166.983750
 30
0.0
 11
71.578611
 21
168.324306
 31
0.0
  0
LINE
  5
12b
100
AcDbEntity
  8
Layer_1
 62
7
100
AcDbLine
 10
71.578611
 20
168.324306
 30
0.0
 11
72.107778
 21
169.506111
 31
0.0
  0
LINE
  5
12c
100
AcDbEntity
  8
Layer_1
 62
7
100
AcDbLine
 10
72.107778
 20
169.506111
 30
0.0
 11
73.818750
 21
172.231319
 31
0.0
  0
LINE
  5
12d
100
AcDbEntity
  8
Layer_1
 62
7
100
AcDbLine
 10
73.818750
 20
172.231319
 30
0.0
 11
76.005972
 21
174.594931
 31
0.0
  0
LINE
  5
12e
100
AcDbEntity
  8
Layer_1
 62
7
100
AcDbLine
 10
76.005972
 20
174.594931
 30
0.0
 11
78.554792
 21
176.508750
 31
0.0
  0
LINE
  5
12f
100
AcDbEntity
  8
Layer_1
 62
7
100
AcDbLine
 10
78.554792
 20
176.508750
 30
0.0
 11
81.368194
 21
177.902222
 31
0.0
  0
LINE
  5
130
100
AcDbEntity
  8
Layer_1
 62
7
100
AcDbLine
 10
81.368194
 20
177.902222
 30
0.0
 11
81.747431
 21
178.043333
 31
0.0
  0
LINE
  5
131
100
AcDbEntity
  8
Layer_1
 62
7
100
AcDbLine
 10
81.747431
 20
178.043333
 30
0.0
 11
82.135486
 21
178.184444
 31
0.0
  0
LINE
  5
132
100
AcDbEntity
  8
Layer_1
 62
7
100
AcDbLine
 10
82.135486
 20
178.184444
 30
0.0
 11
82.523542
 21
178.334375
 31
0.0
  0
LINE
  5
133
100
AcDbEntity
  8
Layer_1
 62
7
100
AcDbLine
 10
82.523542
 20
178.334375
 30
0.0
 11
82.911597
 21
178.475486
 31
0.0
  0
LINE
  5
134
100
AcDbEntity
  8
Layer_1
 62
7
100
AcDbLine
 10
82.911597
 20
178.475486
 30
0.0
 11
82.911597
 21
184.984236
 31
0.0
  0
LINE
  5
135
100
AcDbEntity
  8
Layer_1
 62
7
100
AcDbLine
 10
82.911597
 20
184.984236
 30
0.0
 11
82.911597
 21
191.492986
 31
0.0
  0
LINE
  5
136
100
AcDbEntity
  8
Layer_1
 62
7
100
AcDbLine
 10
82.911597
 20
191.492986
 30
0.0
 11
82.911597
 21
198.001736
 31
0.0
  0
LINE
  5
137
100
AcDbEntity
  8
Layer_1
 62
7
100
AcDbLine
 10
82.911597
 20
198.001736
 30
0.0
 11
82.911597
 21
204.510486
 31
0.0
  0
LINE
  5
138
100
AcDbEntity
  8
Layer_1
 62
7
100
AcDbLine
 10
82.911597
 20
204.510486
 30
0.0
 11
82.911597
 21
211.019236
 31
0.0
  0
LINE
  5
139
100
AcDbEntity
  8
Layer_1
 62
7
100
AcDbLine
 10
82.911597
 20
211.019236
 30
0.0
 11
82.911597
 21
217.527986
 31
0.0
  0
LINE
  5
13a
100
AcDbEntity
  8
Layer_1
 62
7
100
AcDbLine
 10
82.911597
 20
217.527986
 30
0.0
 11
82.911597
 21
224.036736
 31
0.0
  0
LINE
  5
13b
100
AcDbEntity
  8
Layer_1
 62
7
100
AcDbLine
 10
82.911597
 20
224.036736
 30
0.0
 11
82.911597
 21
230.545486
 31
0.0
  0
LINE
  5
13c
100
AcDbEntity
  8
Layer_1
 62
7
100
AcDbLine
 10
82.911597
 20
230.545486
 30
0.0
 11
82.585278
 21
230.668958
 31
0.0
  0
LINE
  5
13d
100
AcDbEntity
  8
Layer_1
 62
7
100
AcDbLine
 10
82.585278
 20
230.668958
 30
0.0
 11
82.267778
 21
230.792431
 31
0.0
  0
LINE
  5
13e
100
AcDbEntity
  8
Layer_1
 62
7
100
AcDbLine
 10
82.267778
 20
230.792431
 30
0.0
 11
81.941458
 21
230.915903
 31
0.0
  0
LINE
  5
13f
100
AcDbEntity
  8
Layer_1
 62
7
100
AcDbLine
 10
81.941458
 20
230.915903
 30
0.0
 11
81.623958
 21
231.039375
 31
0.0
  0
LINE
  5
140
100
AcDbEntity
  8
Layer_1
 62
7
100
AcDbLine
 10
81.623958
 20
231.039375
 30
0.0
 11
79.251528
 21
232.168264
 31
0.0
  0
LINE
  5
141
100
AcDbEntity
  8
Layer_1
 62
7
100
AcDbLine
 10
79.251528
 20
232.168264
 30
0.0
 11
77.064306
 21
233.641111
 31
0.0
  0
LINE
  5
142
100
AcDbEntity
  8
Layer_1
 62
7
100
AcDbLine
 10
77.064306
 20
233.641111
 30
0.0
 11
75.115208
 21
235.396181
 31
0.0
  0
LINE
  5
143
100
AcDbEntity
  8
Layer_1
 62
7
100
AcDbLine
 10
75.115208
 20
235.396181
 30
0.0
 11
73.492431
 21
237.380556
 31
0.0
  0
LINE
  5
144
100
AcDbEntity
  8
Layer_1
 62
7
100
AcDbLine
 10
73.492431
 20
237.380556
 30
0.0
 11
72.839792
 21
238.465347
 31
0.0
  0
LINE
  5
145
100
AcDbEntity
  8
Layer_1
 62
7
100
AcDbLine
 10
72.839792
 20
238.465347
 30
0.0
 11
72.143056
 21
239.885278
 31
0.0
  0
LINE
  5
146
100
AcDbEntity
  8
Layer_1
 62
7
100
AcDbLine
 10
72.143056
 20
239.885278
 30
0.0
 11
71.516875
 21
241.340486
 31
0.0
  0
LINE
  5
147
100
AcDbEntity
  8
Layer_1
 62
7
100
AcDbLine
 10
71.516875
 20
241.340486
 30
0.0
 11
71.102361
 21
242.539931
 31
0.0
  0
LINE
  5
148
100
AcDbEntity
  8
Layer_1
 62
7
100
AcDbLine
 10
71.102361
 20
242.539931
 30
0.0
 11
70.546736
 21
247.893333
 31
0.0
  0
LINE
  5
149
100
AcDbEntity
  8
Layer_1
 62
7
100
AcDbLine
 10
70.546736
 20
247.893333
 30
0.0
 11
71.640347
 21
253.035069
 31
0.0
  0
LINE
  5
14a
100
AcDbEntity
  8
Layer_1
 62
7
100
AcDbLine
 10
71.640347
 20
253.035069
 30
0.0
 11
74.250903
 21
257.603542
 31
0.0
  0
LINE
  5
14b
100
AcDbEntity
  8
Layer_1
 62
7
100
AcDbLine
 10
74.250903
 20
257.603542
 30
0.0
 11
78.246111
 21
261.245972
 31
0.0
  0
LINE
  5
14c
100
AcDbEntity
  8
Layer_1
 62
7
100
AcDbLine
 10
78.246111
 20
261.245972
 30
0.0
 11
80.477431
 21
262.515972
 31
0.0
  0
LINE
  5
14d
100
AcDbEntity
  8
Layer_1
 62
7
100
AcDbLine
 10
80.477431
 20
262.515972
 30
0.0
 11
82.744028
 21
263.397917
 31
0.0
  0
LINE
  5
14e
100
AcDbEntity
  8
Layer_1
 62
7
100
AcDbLine
 10
82.744028
 20
263.397917
 30
0.0
 11
85.142917
 21
263.900625
 31
0.0
  0
LINE
  5
14f
100
AcDbEntity
  8
Layer_1
 62
7
100
AcDbLine
 10
85.142917
 20
263.900625
 30
0.0
 11
87.753472
 21
264.068194
 31
0.0
  0
LINE
  5
150
100
AcDbEntity
  8
Layer_1
 62
7
100
AcDbLine
 10
87.753472
 20
264.068194
 30
0.0
 11
91.122500
 21
263.777153
 31
0.0
  0
LINE
  5
151
100
AcDbEntity
  8
Layer_1
 62
7
100
AcDbLine
 10
91.122500
 20
263.777153
 30
0.0
 11
94.209306
 21
262.886389
 31
0.0
  0
LINE
  5
152
100
AcDbEntity
  8
Layer_1
 62
7
100
AcDbLine
 10
94.209306
 20
262.886389
 30
0.0
 11
97.040347
 21
261.404722
 31
0.0
  0
LINE
  5
153
100
AcDbEntity
  8
Layer_1
 62
7
100
AcDbLine
 10
97.040347
 20
261.404722
 30
0.0
 11
99.659722
 21
259.305694
 31
0.0
  0
LINE
  5
154
100
AcDbEntity
  8
Layer_1
 62
7
100
AcDbLine
 10
99.659722
 20
259.305694
 30
0.0
 11
101.106111
 21
257.753472
 31
0.0
  0
LINE
  5
155
100
AcDbEntity
  8
Layer_1
 62
7
100
AcDbLine
 10
101.106111
 20
257.753472
 30
0.0
 11
102.314375
 21
256.113056
 31
0.0
  0
LINE
  5
156
100
AcDbEntity
  8
Layer_1
 62
7
100
AcDbLine
 10
102.314375
 20
256.113056
 30
0.0
 11
103.293333
 21
254.340347
 31
0.0
  0
LINE
  5
157
100
AcDbEntity
  8
Layer_1
 62
7
100
AcDbLine
 10
103.293333
 20
254.340347
 30
0.0
 11
104.078264
 21
252.426528
 31
0.0
  0
LINE
  5
158
100
AcDbEntity
  8
Layer_1
 62
7
100
AcDbLine
 10
104.078264
 20
252.426528
 30
0.0
 11
104.175278
 21
252.135486
 31
0.0
  0
LINE
  5
159
100
AcDbEntity
  8
Layer_1
 62
7
100
AcDbLine
 10
104.175278
 20
252.135486
 30
0.0
 11
104.272292
 21
251.844444
 31
0.0
  0
LINE
  5
15a
100
AcDbEntity
  8
Layer_1
 62
7
100
AcDbLine
 10
104.272292
 20
251.844444
 30
0.0
 11
104.369306
 21
251.562222
 31
0.0
  0
LINE
  5
15b
100
AcDbEntity
  8
Layer_1
 62
7
100
AcDbLine
 10
104.369306
 20
251.562222
 30
0.0
 11
104.466319
 21
251.271181
 31
0.0
  0
LINE
  5
15c
100
AcDbEntity
  8
Layer_1
 62
7
100
AcDbLine
 10
104.466319
 20
251.271181
 30
0.0
 11
113.056458
 21
251.253542
 31
0.0
  0
LINE
  5
15d
100
AcDbEntity
  8
Layer_1
 62
7
100
AcDbLine
 10
113.056458
 20
251.253542
 30
0.0
 11
121.637778
 21
251.244722
 31
0.0
  0
LINE
  5
15e
100
AcDbEntity
  8
Layer_1
 62
7
100
AcDbLine
 10
121.637778
 20
251.244722
 30
0.0
 11
130.227917
 21
251.235903
 31
0.0
  0
LINE
  5
15f
100
AcDbEntity
  8
Layer_1
 62
7
100
AcDbLine
 10
130.227917
 20
251.235903
 30
0.0
 11
138.818056
 21
251.227083
 31
0.0
  0
LINE
  5
160
100
AcDbEntity
  8
Layer_1
 62
7
100
AcDbLine
 10
138.818056
 20
251.227083
 30
0.0
 11
147.399375
 21
251.209444
 31
0.0
  0
LINE
  5
161
100
AcDbEntity
  8
Layer_1
 62
7
100
AcDbLine
 10
147.399375
 20
251.209444
 30
0.0
 11
155.989514
 21
251.200625
 31
0.0
  0
LINE
  5
162
100
AcDbEntity
  8
Layer_1
 62
7
100
AcDbLine
 10
155.989514
 20
251.200625
 30
0.0
 11
164.570833
 21
251.191806
 31
0.0
  0
LINE
  5
163
100
AcDbEntity
  8
Layer_1
 62
7
100
AcDbLine
 10
164.570833
 20
251.191806
 30
0.0
 11
173.160972
 21
251.174167
 31
0.0
  0
LINE
  5
164
100
AcDbEntity
  8
Layer_1
 62
7
100
AcDbLine
 10
173.160972
 20
251.174167
 30
0.0
 11
173.266806
 21
251.500486
 31
0.0
  0
LINE
  5
165
100
AcDbEntity
  8
Layer_1
 62
7
100
AcDbLine
 10
173.266806
 20
251.500486
 30
0.0
 11
173.363819
 21
251.826806
 31
0.0
  0
LINE
  5
166
100
AcDbEntity
  8
Layer_1
 62
7
100
AcDbLine
 10
173.363819
 20
251.826806
 30
0.0
 11
173.469653
 21
252.144306
 31
0.0
  0
LINE
  5
167
100
AcDbEntity
  8
Layer_1
 62
7
100
AcDbLine
 10
173.469653
 20
252.144306
 30
0.0
 11
173.575486
 21
252.470625
 31
0.0
  0
LINE
  5
168
100
AcDbEntity
  8
Layer_1
 62
7
100
AcDbLine
 10
173.575486
 20
252.470625
 30
0.0
 11
173.787153
 21
253.070347
 31
0.0
  0
LINE
  5
169
100
AcDbEntity
  8
Layer_1
 62
7
100
AcDbLine
 10
173.787153
 20
253.070347
 30
0.0
 11
174.051736
 21
253.749444
 31
0.0
  0
LINE
  5
16a
100
AcDbEntity
  8
Layer_1
 62
7
100
AcDbLine
 10
174.051736
 20
253.749444
 30
0.0
 11
174.342778
 21
254.419722
 31
0.0
  0
LINE
  5
16b
100
AcDbEntity
  8
Layer_1
 62
7
100
AcDbLine
 10
174.342778
 20
254.419722
 30
0.0
 11
174.616181
 21
255.010625
 31
0.0
  0
LINE
  5
16c
100
AcDbEntity
  8
Layer_1
 62
7
100
AcDbLine
 10
174.616181
 20
255.010625
 30
0.0
 11
176.706389
 21
258.176806
 31
0.0
  0
LINE
  5
16d
100
AcDbEntity
  8
Layer_1
 62
7
100
AcDbLine
 10
176.706389
 20
258.176806
 30
0.0
 11
179.449236
 21
260.840278
 31
0.0
  0
LINE
  5
16e
100
AcDbEntity
  8
Layer_1
 62
7
100
AcDbLine
 10
179.449236
 20
260.840278
 30
0.0
 11
182.650694
 21
262.842292
 31
0.0
  0
LINE
  5
16f
100
AcDbEntity
  8
Layer_1
 62
7
100
AcDbLine
 10
182.650694
 20
262.842292
 30
0.0
 11
186.107917
 21
264.024097
 31
0.0
  0
LINE
  5
170
100
AcDbEntity
  8
Layer_1
 62
7
100
AcDbLine
 10
186.107917
 20
264.024097
 30
0.0
 11
186.390139
 21
264.085833
 31
0.0
  0
LINE
  5
171
100
AcDbEntity
  8
Layer_1
 62
7
100
AcDbLine
 10
186.390139
 20
264.085833
 30
0.0
 11
186.672361
 21
264.138750
 31
0.0
  0
LINE
  5
172
100
AcDbEntity
  8
Layer_1
 62
7
100
AcDbLine
 10
186.672361
 20
264.138750
 30
0.0
 11
186.954583
 21
264.200486
 31
0.0
  0
LINE
  5
173
100
AcDbEntity
  8
Layer_1
 62
7
100
AcDbLine
 10
186.954583
 20
264.200486
 30
0.0
 11
187.236806
 21
264.253403
 31
0.0
  0
LINE
  5
174
100
AcDbEntity
  8
Layer_1
 62
7
100
AcDbLine
 10
187.236806
 20
264.253403
 30
0.0
 11
187.219167
 21
266.617014
 31
0.0
  0
LINE
  5
175
100
AcDbEntity
  8
Layer_1
 62
7
100
AcDbLine
 10
187.219167
 20
266.617014
 30
0.0
 11
187.210347
 21
268.980625
 31
0.0
  0
LINE
  5
176
100
AcDbEntity
  8
Layer_1
 62
7
100
AcDbLine
 10
187.210347
 20
268.980625
 30
0.0
 11
187.192708
 21
271.344236
 31
0.0
  0
LINE
  5
177
100
AcDbEntity
  8
Layer_1
 62
7
100
AcDbLine
 10
187.192708
 20
271.344236
 30
0.0
 11
187.183889
 21
273.707847
 31
0.0
  0
LINE
  5
178
100
AcDbEntity
  8
Layer_1
 62
7
100
AcDbLine
 10
187.183889
 20
273.707847
 30
0.0
 11
187.166250
 21
276.071458
 31
0.0
  0
LINE
  5
179
100
AcDbEntity
  8
Layer_1
 62
7
100
AcDbLine
 10
187.166250
 20
276.071458
 30
0.0
 11
187.157431
 21
278.426250
 31
0.0
  0
LINE
  5
17a
100
AcDbEntity
  8
Layer_1
 62
7
100
AcDbLine
 10
187.157431
 20
278.426250
 30
0.0
 11
187.148611
 21
280.789861
 31
0.0
  0
LINE
  5
17b
100
AcDbEntity
  8
Layer_1
 62
7
100
AcDbLine
 10
187.148611
 20
280.789861
 30
0.0
 11
187.130972
 21
283.153472
 31
0.0
  0
LINE
  5
17c
100
AcDbEntity
  8
Layer_1
 62
7
100
AcDbLine
 10
187.130972
 20
283.153472
 30
0.0
 11
186.989861
 21
283.444514
 31
0.0
  0
LINE
  5
17d
100
AcDbEntity
  8
Layer_1
 62
7
100
AcDbLine
 10
186.989861
 20
283.444514
 30
0.0
 11
186.839931
 21
283.744375
 31
0.0
  0
LINE
  5
17e
100
AcDbEntity
  8
Layer_1
 62
7
100
AcDbLine
 10
186.839931
 20
283.744375
 30
0.0
 11
186.698819
 21
284.035417
 31
0.0
  0
LINE
  5
17f
100
AcDbEntity
  8
Layer_1
 62
7
100
AcDbLine
 10
186.698819
 20
284.035417
 30
0.0
 11
186.557708
 21
284.326458
 31
0.0
  0
LINE
  5
180
100
AcDbEntity
  8
Layer_1
 62
7
100
AcDbLine
 10
186.557708
 20
284.326458
 30
0.0
 11
185.949167
 21
285.314236
 31
0.0
  0
LINE
  5
181
100
AcDbEntity
  8
Layer_1
 62
7
100
AcDbLine
 10
185.949167
 20
285.314236
 30
0.0
 11
185.146597
 21
286.257917
 31
0.0
  0
LINE
  5
182
100
AcDbEntity
  8
Layer_1
 62
7
100
AcDbLine
 10
185.146597
 20
286.257917
 30
0.0
 11
184.238194
 21
287.078125
 31
0.0
  0
LINE
  5
183
100
AcDbEntity
  8
Layer_1
 62
7
100
AcDbLine
 10
184.238194
 20
287.078125
 30
0.0
 11
183.312153
 21
287.677847
 31
0.0
  0
LINE
  5
184
100
AcDbEntity
  8
Layer_1
 62
7
100
AcDbLine
 10
183.312153
 20
287.677847
 30
0.0
 11
181.839306
 21
288.224653
 31
0.0
  0
LINE
  5
185
100
AcDbEntity
  8
Layer_1
 62
7
100
AcDbLine
 10
181.839306
 20
288.224653
 30
0.0
 11
175.842083
 21
288.498056
 31
0.0
  0
LINE
  5
186
100
AcDbEntity
  8
Layer_1
 62
7
100
AcDbLine
 10
175.842083
 20
288.498056
 30
0.0
 11
158.661806
 21
288.577431
 31
0.0
  0
LINE
  5
187
100
AcDbEntity
  8
Layer_1
 62
7
100
AcDbLine
 10
158.661806
 20
288.577431
 30
0.0
 11
123.622153
 21
288.586250
 31
0.0
  0
LINE
  5
188
100
AcDbEntity
  8
Layer_1
 62
7
100
AcDbLine
 10
123.622153
 20
288.586250
 30
0.0
 11
109.396389
 21
288.586250
 31
0.0
  0
LINE
  5
189
100
AcDbEntity
  8
Layer_1
 62
7
100
AcDbLine
 10
109.396389
 20
288.586250
 30
0.0
 11
95.170625
 21
288.586250
 31
0.0
  0
LINE
  5
18a
100
AcDbEntity
  8
Layer_1
 62
7
100
AcDbLine
 10
95.170625
 20
288.586250
 30
0.0
 11
80.953681
 21
288.586250
 31
0.0
  0
LINE
  5
18b
100
AcDbEntity
  8
Layer_1
 62
7
100
AcDbLine
 10
80.953681
 20
288.586250
 30
0.0
 11
66.727917
 21
288.586250
 31
0.0
  0
LINE
  5
18c
100
AcDbEntity
  8
Layer_1
 62
7
100
AcDbLine
 10
66.727917
 20
288.586250
 30
0.0
 11
66.727917
 21
288.586250
 31
0.0
  0
LINE
  5
18d
100
AcDbEntity
  8
Layer_1
 62
7
100
AcDbLine
 10
32.287986
 20
287.069306
 30
0.0
 11
32.085139
 21
286.866458
 31
0.0
  0
LINE
  5
18e
100
AcDbEntity
  8
Layer_1
 62
7
100
AcDbLine
 10
32.085139
 20
286.866458
 30
0.0
 11
31.882292
 21
286.663611
 31
0.0
  0
LINE
  5
18f
100
AcDbEntity
  8
Layer_1
 62
7
100
AcDbLine
 10
31.882292
 20
286.663611
 30
0.0
 11
31.679444
 21
286.451944
 31
0.0
  0
LINE
  5
190
100
AcDbEntity
  8
Layer_1
 62
7
100
AcDbLine
 10
31.679444
 20
286.451944
 30
0.0
 11
31.476597
 21
286.249097
 31
0.0
  0
LINE
  5
191
100
AcDbEntity
  8
Layer_1
 62
7
100
AcDbLine
 10
31.476597
 20
286.249097
 30
0.0
 11
30.815139
 21
285.455347
 31
0.0
  0
LINE
  5
192
100
AcDbEntity
  8
Layer_1
 62
7
100
AcDbLine
 10
30.815139
 20
285.455347
 30
0.0
 11
30.250694
 21
284.538125
 31
0.0
  0
LINE
  5
193
100
AcDbEntity
  8
Layer_1
 62
7
100
AcDbLine
 10
30.250694
 20
284.538125
 30
0.0
 11
29.818542
 21
283.559167
 31
0.0
  0
LINE
  5
194
100
AcDbEntity
  8
Layer_1
 62
7
100
AcDbLine
 10
29.818542
 20
283.559167
 30
0.0
 11
29.545139
 21
282.553750
 31
0.0
  0
LINE
  5
195
100
AcDbEntity
  8
Layer_1
 62
7
100
AcDbLine
 10
29.545139
 20
282.553750
 30
0.0
 11
29.465764
 21
278.382153
 31
0.0
  0
LINE
  5
196
100
AcDbEntity
  8
Layer_1
 62
7
100
AcDbLine
 10
29.465764
 20
278.382153
 30
0.0
 11
29.412847
 21
266.863958
 31
0.0
  0
LINE
  5
197
100
AcDbEntity
  8
Layer_1
 62
7
100
AcDbLine
 10
29.412847
 20
266.863958
 30
0.0
 11
29.377569
 21
248.060903
 31
0.0
  0
LINE
  5
198
100
AcDbEntity
  8
Layer_1
 62
7
100
AcDbLine
 10
29.377569
 20
248.060903
 30
0.0
 11
29.368750
 21
222.025903
 31
0.0
  0
LINE
  5
199
100
AcDbEntity
  8
Layer_1
 62
7
100
AcDbLine
 10
29.368750
 20
222.025903
 30
0.0
 11
29.368750
 21
207.138681
 31
0.0
  0
LINE
  5
19a
100
AcDbEntity
  8
Layer_1
 62
7
100
AcDbLine
 10
29.368750
 20
207.138681
 30
0.0
 11
29.368750
 21
192.251458
 31
0.0
  0
LINE
  5
19b
100
AcDbEntity
  8
Layer_1
 62
7
100
AcDbLine
 10
29.368750
 20
192.251458
 30
0.0
 11
29.368750
 21
177.355417
 31
0.0
  0
LINE
  5
19c
100
AcDbEntity
  8
Layer_1
 62
7
100
AcDbLine
 10
29.368750
 20
177.355417
 30
0.0
 11
29.368750
 21
162.468194
 31
0.0
  0
LINE
  5
19d
100
AcDbEntity
  8
Layer_1
 62
7
100
AcDbLine
 10
29.368750
 20
162.468194
 30
0.0
 11
31.291389
 21
162.468194
 31
0.0
  0
LINE
  5
19e
100
AcDbEntity
  8
Layer_1
 62
7
100
AcDbLine
 10
31.291389
 20
162.468194
 30
0.0
 11
33.222847
 21
162.468194
 31
0.0
  0
LINE
  5
19f
100
AcDbEntity
  8
Layer_1
 62
7
100
AcDbLine
 10
33.222847
 20
162.468194
 30
0.0
 11
35.145486
 21
162.468194
 31
0.0
  0
LINE
  5
1a0
100
AcDbEntity
  8
Layer_1
 62
7
100
AcDbLine
 10
35.145486
 20
162.468194
 30
0.0
 11
37.076944
 21
162.468194
 31
0.0
  0
LINE
  5
1a1
100
AcDbEntity
  8
Layer_1
 62
7
100
AcDbLine
 10
37.076944
 20
162.468194
 30
0.0
 11
39.008403
 21
162.468194
 31
0.0
  0
LINE
  5
1a2
100
AcDbEntity
  8
Layer_1
 62
7
100
AcDbLine
 10
39.008403
 20
162.468194
 30
0.0
 11
40.931042
 21
162.468194
 31
0.0
  0
LINE
  5
1a3
100
AcDbEntity
  8
Layer_1
 62
7
100
AcDbLine
 10
40.931042
 20
162.468194
 30
0.0
 11
42.862500
 21
162.468194
 31
0.0
  0
LINE
  5
1a4
100
AcDbEntity
  8
Layer_1
 62
7
100
AcDbLine
 10
42.862500
 20
162.468194
 30
0.0
 11
44.793958
 21
162.468194
 31
0.0
  0
LINE
  5
1a5
100
AcDbEntity
  8
Layer_1
 62
7
100
AcDbLine
 10
44.793958
 20
162.468194
 30
0.0
 11
44.793958
 21
176.244167
 31
0.0
  0
LINE
  5
1a6
100
AcDbEntity
  8
Layer_1
 62
7
100
AcDbLine
 10
44.793958
 20
176.244167
 30
0.0
 11
44.793958
 21
190.020139
 31
0.0
  0
LINE
  5
1a7
100
AcDbEntity
  8
Layer_1
 62
7
100
AcDbLine
 10
44.793958
 20
190.020139
 30
0.0
 11
44.793958
 21
203.796111
 31
0.0
  0
LINE
  5
1a8
100
AcDbEntity
  8
Layer_1
 62
7
100
AcDbLine
 10
44.793958
 20
203.796111
 30
0.0
 11
44.793958
 21
217.572083
 31
0.0
  0
LINE
  5
1a9
100
AcDbEntity
  8
Layer_1
 62
7
100
AcDbLine
 10
44.793958
 20
217.572083
 30
0.0
 11
44.793958
 21
231.348056
 31
0.0
  0
LINE
  5
1aa
100
AcDbEntity
  8
Layer_1
 62
7
100
AcDbLine
 10
44.793958
 20
231.348056
 30
0.0
 11
44.793958
 21
245.124028
 31
0.0
  0
LINE
  5
1ab
100
AcDbEntity
  8
Layer_1
 62
7
100
AcDbLine
 10
44.793958
 20
245.124028
 30
0.0
 11
44.793958
 21
258.900000
 31
0.0
  0
LINE
  5
1ac
100
AcDbEntity
  8
Layer_1
 62
7
100
AcDbLine
 10
44.793958
 20
258.900000
 30
0.0
 11
44.793958
 21
272.675972
 31
0.0
  0
LINE
  5
1ad
100
AcDbEntity
  8
Layer_1
 62
7
100
AcDbLine
 10
44.793958
 20
272.675972
 30
0.0
 11
44.599931
 21
272.728889
 31
0.0
  0
LINE
  5
1ae
100
AcDbEntity
  8
Layer_1
 62
7
100
AcDbLine
 10
44.599931
 20
272.728889
 30
0.0
 11
44.405903
 21
272.790625
 31
0.0
  0
LINE
  5
1af
100
AcDbEntity
  8
Layer_1
 62
7
100
AcDbLine
 10
44.405903
 20
272.790625
 30
0.0
 11
44.220694
 21
272.843542
 31
0.0
  0
LINE
  5
1b0
100
AcDbEntity
  8
Layer_1
 62
7
100
AcDbLine
 10
44.220694
 20
272.843542
 30
0.0
 11
44.026667
 21
272.896458
 31
0.0
  0
LINE
  5
1b1
100
AcDbEntity
  8
Layer_1
 62
7
100
AcDbLine
 10
44.026667
 20
272.896458
 30
0.0
 11
42.218681
 21
273.619653
 31
0.0
  0
LINE
  5
1b2
100
AcDbEntity
  8
Layer_1
 62
7
100
AcDbLine
 10
42.218681
 20
273.619653
 30
0.0
 11
40.296042
 21
274.695625
 31
0.0
  0
LINE
  5
1b3
100
AcDbEntity
  8
Layer_1
 62
7
100
AcDbLine
 10
40.296042
 20
274.695625
 30
0.0
 11
38.470417
 21
276.018542
 31
0.0
  0
LINE
  5
1b4
100
AcDbEntity
  8
Layer_1
 62
7
100
AcDbLine
 10
38.470417
 20
276.018542
 30
0.0
 11
36.927014
 21
277.447292
 31
0.0
  0
LINE
  5
1b5
100
AcDbEntity
  8
Layer_1
 62
7
100
AcDbLine
 10
36.927014
 20
277.447292
 30
0.0
 11
35.401250
 21
279.317014
 31
0.0
  0
LINE
  5
1b6
100
AcDbEntity
  8
Layer_1
 62
7
100
AcDbLine
 10
35.401250
 20
279.317014
 30
0.0
 11
34.237083
 21
281.257292
 31
0.0
  0
LINE
  5
1b7
100
AcDbEntity
  8
Layer_1
 62
7
100
AcDbLine
 10
34.237083
 20
281.257292
 30
0.0
 11
33.293403
 21
283.541528
 31
0.0
  0
LINE
  5
1b8
100
AcDbEntity
  8
Layer_1
 62
7
100
AcDbLine
 10
33.293403
 20
283.541528
 30
0.0
 11
32.446736
 21
286.451944
 31
0.0
  0
LINE
  5
1b9
100
AcDbEntity
  8
Layer_1
 62
7
100
AcDbLine
 10
32.446736
 20
286.451944
 30
0.0
 11
32.411458
 21
286.601875
 31
0.0
  0
LINE
  5
1ba
100
AcDbEntity
  8
Layer_1
 62
7
100
AcDbLine
 10
32.411458
 20
286.601875
 30
0.0
 11
32.367361
 21
286.760625
 31
0.0
  0
LINE
  5
1bb
100
AcDbEntity
  8
Layer_1
 62
7
100
AcDbLine
 10
32.367361
 20
286.760625
 30
0.0
 11
32.332083
 21
286.919375
 31
0.0
  0
LINE
  5
1bc
100
AcDbEntity
  8
Layer_1
 62
7
100
AcDbLine
 10
32.332083
 20
286.919375
 30
0.0
 11
32.287986
 21
287.069306
 31
0.0
  0
LINE
  5
1bd
100
AcDbEntity
  8
Layer_1
 62
7
100
AcDbLine
 10
32.287986
 20
287.069306
 30
0.0
 11
32.287986
 21
287.069306
 31
0.0
  0
LINE
  5
1be
100
AcDbEntity
  8
Layer_1
 62
7
100
AcDbLine
 10
104.131181
 20
241.737361
 30
0.0
 11
104.113542
 21
241.649167
 31
0.0
  0
LINE
  5
1bf
100
AcDbEntity
  8
Layer_1
 62
7
100
AcDbLine
 10
104.113542
 20
241.649167
 30
0.0
 11
104.087083
 21
241.552153
 31
0.0
  0
LINE
  5
1c0
100
AcDbEntity
  8
Layer_1
 62
7
100
AcDbLine
 10
104.087083
 20
241.552153
 30
0.0
 11
104.060625
 21
241.463958
 31
0.0
  0
LINE
  5
1c1
100
AcDbEntity
  8
Layer_1
 62
7
100
AcDbLine
 10
104.060625
 20
241.463958
 30
0.0
 11
104.034167
 21
241.375764
 31
0.0
  0
LINE
  5
1c2
100
AcDbEntity
  8
Layer_1
 62
7
100
AcDbLine
 10
104.034167
 20
241.375764
 30
0.0
 11
103.954792
 21
241.137639
 31
0.0
  0
LINE
  5
1c3
100
AcDbEntity
  8
Layer_1
 62
7
100
AcDbLine
 10
103.954792
 20
241.137639
 30
0.0
 11
103.796042
 21
240.749583
 31
0.0
  0
LINE
  5
1c4
100
AcDbEntity
  8
Layer_1
 62
7
100
AcDbLine
 10
103.796042
 20
240.749583
 30
0.0
 11
103.584375
 21
240.282153
 31
0.0
  0
LINE
  5
1c5
100
AcDbEntity
  8
Layer_1
 62
7
100
AcDbLine
 10
103.584375
 20
240.282153
 30
0.0
 11
103.346250
 21
239.770625
 31
0.0
  0
LINE
  5
1c6
100
AcDbEntity
  8
Layer_1
 62
7
100
AcDbLine
 10
103.346250
 20
239.770625
 30
0.0
 11
101.494167
 21
236.754375
 31
0.0
  0
LINE
  5
1c7
100
AcDbEntity
  8
Layer_1
 62
7
100
AcDbLine
 10
101.494167
 20
236.754375
 30
0.0
 11
99.104097
 21
234.205556
 31
0.0
  0
LINE
  5
1c8
100
AcDbEntity
  8
Layer_1
 62
7
100
AcDbLine
 10
99.104097
 20
234.205556
 30
0.0
 11
96.202500
 21
232.150625
 31
0.0
  0
LINE
  5
1c9
100
AcDbEntity
  8
Layer_1
 62
7
100
AcDbLine
 10
96.202500
 20
232.150625
 30
0.0
 11
92.824653
 21
230.633681
 31
0.0
  0
LINE
  5
1ca
100
AcDbEntity
  8
Layer_1
 62
7
100
AcDbLine
 10
92.824653
 20
230.633681
 30
0.0
 11
92.648264
 21
229.972222
 31
0.0
  0
LINE
  5
1cb
100
AcDbEntity
  8
Layer_1
 62
7
100
AcDbLine
 10
92.648264
 20
229.972222
 30
0.0
 11
92.551250
 21
226.761944
 31
0.0
  0
LINE
  5
1cc
100
AcDbEntity
  8
Layer_1
 62
7
100
AcDbLine
 10
92.551250
 20
226.761944
 30
0.0
 11
92.515972
 21
218.939097
 31
0.0
  0
LINE
  5
1cd
100
AcDbEntity
  8
Layer_1
 62
7
100
AcDbLine
 10
92.515972
 20
218.939097
 30
0.0
 11
92.507153
 21
204.457569
 31
0.0
  0
LINE
  5
1ce
100
AcDbEntity
  8
Layer_1
 62
7
100
AcDbLine
 10
92.507153
 20
204.457569
 30
0.0
 11
92.507153
 21
197.940000
 31
0.0
  0
LINE
  5
1cf
100
AcDbEntity
  8
Layer_1
 62
7
100
AcDbLine
 10
92.507153
 20
197.940000
 30
0.0
 11
92.507153
 21
191.422431
 31
0.0
  0
LINE
  5
1d0
100
AcDbEntity
  8
Layer_1
 62
7
100
AcDbLine
 10
92.507153
 20
191.422431
 30
0.0
 11
92.507153
 21
184.904861
 31
0.0
  0
LINE
  5
1d1
100
AcDbEntity
  8
Layer_1
 62
7
100
AcDbLine
 10
92.507153
 20
184.904861
 30
0.0
 11
92.507153
 21
178.387292
 31
0.0
  0
LINE
  5
1d2
100
AcDbEntity
  8
Layer_1
 62
7
100
AcDbLine
 10
92.507153
 20
178.387292
 30
0.0
 11
92.824653
 21
178.263819
 31
0.0
  0
LINE
  5
1d3
100
AcDbEntity
  8
Layer_1
 62
7
100
AcDbLine
 10
92.824653
 20
178.263819
 30
0.0
 11
93.133333
 21
178.149167
 31
0.0
  0
LINE
  5
1d4
100
AcDbEntity
  8
Layer_1
 62
7
100
AcDbLine
 10
93.133333
 20
178.149167
 30
0.0
 11
93.450833
 21
178.025694
 31
0.0
  0
LINE
  5
1d5
100
AcDbEntity
  8
Layer_1
 62
7
100
AcDbLine
 10
93.450833
 20
178.025694
 30
0.0
 11
93.759514
 21
177.902222
 31
0.0
  0
LINE
  5
1d6
100
AcDbEntity
  8
Layer_1
 62
7
100
AcDbLine
 10
93.759514
 20
177.902222
 30
0.0
 11
97.966389
 21
175.547431
 31
0.0
  0
LINE
  5
1d7
100
AcDbEntity
  8
Layer_1
 62
7
100
AcDbLine
 10
97.966389
 20
175.547431
 30
0.0
 11
101.317778
 21
172.213681
 31
0.0
  0
LINE
  5
1d8
100
AcDbEntity
  8
Layer_1
 62
7
100
AcDbLine
 10
101.317778
 20
172.213681
 30
0.0
 11
103.610833
 21
168.139097
 31
0.0
  0
LINE
  5
1d9
100
AcDbEntity
  8
Layer_1
 62
7
100
AcDbLine
 10
103.610833
 20
168.139097
 30
0.0
 11
104.669167
 21
163.579444
 31
0.0
  0
LINE
  5
1da
100
AcDbEntity
  8
Layer_1
 62
7
100
AcDbLine
 10
104.669167
 20
163.579444
 30
0.0
 11
104.730903
 21
162.071319
 31
0.0
  0
LINE
  5
1db
100
AcDbEntity
  8
Layer_1
 62
7
100
AcDbLine
 10
104.730903
 20
162.071319
 30
0.0
 11
104.677986
 21
160.545556
 31
0.0
  0
LINE
  5
1dc
100
AcDbEntity
  8
Layer_1
 62
7
100
AcDbLine
 10
104.677986
 20
160.545556
 30
0.0
 11
104.528056
 21
159.107986
 31
0.0
  0
LINE
  5
1dd
100
AcDbEntity
  8
Layer_1
 62
7
100
AcDbLine
 10
104.528056
 20
159.107986
 30
0.0
 11
104.281111
 21
157.864444
 31
0.0
  0
LINE
  5
1de
100
AcDbEntity
  8
Layer_1
 62
7
100
AcDbLine
 10
104.281111
 20
157.864444
 30
0.0
 11
102.490764
 21
153.498819
 31
0.0
  0
LINE
  5
1df
100
AcDbEntity
  8
Layer_1
 62
7
100
AcDbLine
 10
102.490764
 20
153.498819
 30
0.0
 11
99.686181
 21
149.838750
 31
0.0
  0
LINE
  5
1e0
100
AcDbEntity
  8
Layer_1
 62
7
100
AcDbLine
 10
99.686181
 20
149.838750
 30
0.0
 11
96.026111
 21
147.060625
 31
0.0
  0
LINE
  5
1e1
100
AcDbEntity
  8
Layer_1
 62
7
100
AcDbLine
 10
96.026111
 20
147.060625
 30
0.0
 11
91.678125
 21
145.332014
 31
0.0
  0
LINE
  5
1e2
100
AcDbEntity
  8
Layer_1
 62
7
100
AcDbLine
 10
91.678125
 20
145.332014
 30
0.0
 11
89.711389
 21
145.014514
 31
0.0
  0
LINE
  5
1e3
100
AcDbEntity
  8
Layer_1
 62
7
100
AcDbLine
 10
89.711389
 20
145.014514
 30
0.0
 11
87.471250
 21
144.908681
 31
0.0
  0
LINE
  5
1e4
100
AcDbEntity
  8
Layer_1
 62
7
100
AcDbLine
 10
87.471250
 20
144.908681
 30
0.0
 11
85.248750
 21
145.014514
 31
0.0
  0
LINE
  5
1e5
100
AcDbEntity
  8
Layer_1
 62
7
100
AcDbLine
 10
85.248750
 20
145.014514
 30
0.0
 11
83.361389
 21
145.340833
 31
0.0
  0
LINE
  5
1e6
100
AcDbEntity
  8
Layer_1
 62
7
100
AcDbLine
 10
83.361389
 20
145.340833
 30
0.0
 11
80.512708
 21
146.363889
 31
0.0
  0
LINE
  5
1e7
100
AcDbEntity
  8
Layer_1
 62
7
100
AcDbLine
 10
80.512708
 20
146.363889
 30
0.0
 11
77.910972
 21
147.810278
 31
0.0
  0
LINE
  5
1e8
100
AcDbEntity
  8
Layer_1
 62
7
100
AcDbLine
 10
77.910972
 20
147.810278
 30
0.0
 11
75.626736
 21
149.627083
 31
0.0
  0
LINE
  5
1e9
100
AcDbEntity
  8
Layer_1
 62
7
100
AcDbLine
 10
75.626736
 20
149.627083
 30
0.0
 11
73.765833
 21
151.761389
 31
0.0
  0
LINE
  5
1ea
100
AcDbEntity
  8
Layer_1
 62
7
100
AcDbLine
 10
73.765833
 20
151.761389
 30
0.0
 11
73.536528
 21
152.070069
 31
0.0
  0
LINE
  5
1eb
100
AcDbEntity
  8
Layer_1
 62
7
100
AcDbLine
 10
73.536528
 20
152.070069
 30
0.0
 11
73.316042
 21
152.378750
 31
0.0
  0
LINE
  5
1ec
100
AcDbEntity
  8
Layer_1
 62
7
100
AcDbLine
 10
73.316042
 20
152.378750
 30
0.0
 11
73.086736
 21
152.696250
 31
0.0
  0
LINE
  5
1ed
100
AcDbEntity
  8
Layer_1
 62
7
100
AcDbLine
 10
73.086736
 20
152.696250
 30
0.0
 11
72.866250
 21
153.004931
 31
0.0
  0
LINE
  5
1ee
100
AcDbEntity
  8
Layer_1
 62
7
100
AcDbLine
 10
72.866250
 20
153.004931
 30
0.0
 11
67.424653
 21
153.004931
 31
0.0
  0
LINE
  5
1ef
100
AcDbEntity
  8
Layer_1
 62
7
100
AcDbLine
 10
67.424653
 20
153.004931
 30
0.0
 11
61.983056
 21
153.013750
 31
0.0
  0
LINE
  5
1f0
100
AcDbEntity
  8
Layer_1
 62
7
100
AcDbLine
 10
61.983056
 20
153.013750
 30
0.0
 11
56.541458
 21
153.013750
 31
0.0
  0
LINE
  5
1f1
100
AcDbEntity
  8
Layer_1
 62
7
100
AcDbLine
 10
56.541458
 20
153.013750
 30
0.0
 11
51.099861
 21
153.013750
 31
0.0
  0
LINE
  5
1f2
100
AcDbEntity
  8
Layer_1
 62
7
100
AcDbLine
 10
51.099861
 20
153.013750
 30
0.0
 11
45.658264
 21
153.022569
 31
0.0
  0
LINE
  5
1f3
100
AcDbEntity
  8
Layer_1
 62
7
100
AcDbLine
 10
45.658264
 20
153.022569
 30
0.0
 11
40.216667
 21
153.022569
 31
0.0
  0
LINE
  5
1f4
100
AcDbEntity
  8
Layer_1
 62
7
100
AcDbLine
 10
40.216667
 20
153.022569
 30
0.0
 11
34.775069
 21
153.022569
 31
0.0
  0
LINE
  5
1f5
100
AcDbEntity
  8
Layer_1
 62
7
100
AcDbLine
 10
34.775069
 20
153.022569
 30
0.0
 11
29.333472
 21
153.031389
 31
0.0
  0
LINE
  5
1f6
100
AcDbEntity
  8
Layer_1
 62
7
100
AcDbLine
 10
29.333472
 20
153.031389
 30
0.0
 11
29.351111
 21
151.928958
 31
0.0
  0
LINE
  5
1f7
100
AcDbEntity
  8
Layer_1
 62
7
100
AcDbLine
 10
29.351111
 20
151.928958
 30
0.0
 11
29.359931
 21
150.826528
 31
0.0
  0
LINE
  5
1f8
100
AcDbEntity
  8
Layer_1
 62
7
100
AcDbLine
 10
29.359931
 20
150.826528
 30
0.0
 11
29.377569
 21
149.724097
 31
0.0
  0
LINE
  5
1f9
100
AcDbEntity
  8
Layer_1
 62
7
100
AcDbLine
 10
29.377569
 20
149.724097
 30
0.0
 11
29.395208
 21
148.621667
 31
0.0
  0
LINE
  5
1fa
100
AcDbEntity
  8
Layer_1
 62
7
100
AcDbLine
 10
29.395208
 20
148.621667
 30
0.0
 11
29.404028
 21
147.519236
 31
0.0
  0
LINE
  5
1fb
100
AcDbEntity
  8
Layer_1
 62
7
100
AcDbLine
 10
29.404028
 20
147.519236
 30
0.0
 11
29.421667
 21
146.416806
 31
0.0
  0
LINE
  5
1fc
100
AcDbEntity
  8
Layer_1
 62
7
100
AcDbLine
 10
29.421667
 20
146.416806
 30
0.0
 11
29.439306
 21
145.314375
 31
0.0
  0
LINE
  5
1fd
100
AcDbEntity
  8
Layer_1
 62
7
100
AcDbLine
 10
29.439306
 20
145.314375
 30
0.0
 11
29.456944
 21
144.211944
 31
0.0
  0
LINE
  5
1fe
100
AcDbEntity
  8
Layer_1
 62
7
100
AcDbLine
 10
29.456944
 20
144.211944
 30
0.0
 11
29.598056
 21
143.894444
 31
0.0
  0
LINE
  5
1ff
100
AcDbEntity
  8
Layer_1
 62
7
100
AcDbLine
 10
29.598056
 20
143.894444
 30
0.0
 11
29.747986
 21
143.585764
 31
0.0
  0
LINE
  5
200
100
AcDbEntity
  8
Layer_1
 62
7
100
AcDbLine
 10
29.747986
 20
143.585764
 30
0.0
 11
29.897917
 21
143.277083
 31
0.0
  0
LINE
  5
201
100
AcDbEntity
  8
Layer_1
 62
7
100
AcDbLine
 10
29.897917
 20
143.277083
 30
0.0
 11
30.047847
 21
142.959583
 31
0.0
  0
LINE
  5
202
100
AcDbEntity
  8
Layer_1
 62
7
100
AcDbLine
 10
30.047847
 20
142.959583
 30
0.0
 11
30.850417
 21
141.610208
 31
0.0
  0
LINE
  5
203
100
AcDbEntity
  8
Layer_1
 62
7
100
AcDbLine
 10
30.850417
 20
141.610208
 30
0.0
 11
31.864653
 21
140.490139
 31
0.0
  0
LINE
  5
204
100
AcDbEntity
  8
Layer_1
 62
7
100
AcDbLine
 10
31.864653
 20
140.490139
 30
0.0
 11
33.081736
 21
139.608194
 31
0.0
  0
LINE
  5
205
100
AcDbEntity
  8
Layer_1
 62
7
100
AcDbLine
 10
33.081736
 20
139.608194
 30
0.0
 11
34.492847
 21
138.973194
 31
0.0
  0
LINE
  5
206
100
AcDbEntity
  8
Layer_1
 62
7
100
AcDbLine
 10
34.492847
 20
138.973194
 30
0.0
 11
35.824583
 21
138.761528
 31
0.0
  0
LINE
  5
207
100
AcDbEntity
  8
Layer_1
 62
7
100
AcDbLine
 10
35.824583
 20
138.761528
 30
0.0
 11
41.028056
 21
138.655694
 31
0.0
  0
LINE
  5
208
100
AcDbEntity
  8
Layer_1
 62
7
100
AcDbLine
 10
41.028056
 20
138.655694
 30
0.0
 11
54.301319
 21
138.611597
 31
0.0
  0
LINE
  5
209
100
AcDbEntity
  8
Layer_1
 62
7
100
AcDbLine
 10
54.301319
 20
138.611597
 30
0.0
 11
79.815972
 21
138.602778
 31
0.0
  0
LINE
  5
20a
100
AcDbEntity
  8
Layer_1
 62
7
100
AcDbLine
 10
79.815972
 20
138.602778
 30
0.0
 11
90.884375
 21
138.602778
 31
0.0
  0
LINE
  5
20b
100
AcDbEntity
  8
Layer_1
 62
7
100
AcDbLine
 10
90.884375
 20
138.602778
 30
0.0
 11
101.943958
 21
138.602778
 31
0.0
  0
LINE
  5
20c
100
AcDbEntity
  8
Layer_1
 62
7
100
AcDbLine
 10
101.943958
 20
138.602778
 30
0.0
 11
113.012361
 21
138.602778
 31
0.0
  0
LINE
  5
20d
100
AcDbEntity
  8
Layer_1
 62
7
100
AcDbLine
 10
113.012361
 20
138.602778
 30
0.0
 11
124.080764
 21
138.602778
 31
0.0
  0
LINE
  5
20e
100
AcDbEntity
  8
Layer_1
 62
7
100
AcDbLine
 10
124.080764
 20
138.602778
 30
0.0
 11
124.080764
 21
144.758750
 31
0.0
  0
LINE
  5
20f
100
AcDbEntity
  8
Layer_1
 62
7
100
AcDbLine
 10
124.080764
 20
144.758750
 30
0.0
 11
124.080764
 21
150.923542
 31
0.0
  0
LINE
  5
210
100
AcDbEntity
  8
Layer_1
 62
7
100
AcDbLine
 10
124.080764
 20
150.923542
 30
0.0
 11
124.080764
 21
157.088333
 31
0.0
  0
LINE
  5
211
100
AcDbEntity
  8
Layer_1
 62
7
100
AcDbLine
 10
124.080764
 20
157.088333
 30
0.0
 11
124.080764
 21
163.244306
 31
0.0
  0
LINE
  5
212
100
AcDbEntity
  8
Layer_1
 62
7
100
AcDbLine
 10
124.080764
 20
163.244306
 30
0.0
 11
124.080764
 21
169.409097
 31
0.0
  0
LINE
  5
213
100
AcDbEntity
  8
Layer_1
 62
7
100
AcDbLine
 10
124.080764
 20
169.409097
 30
0.0
 11
124.080764
 21
175.573889
 31
0.0
  0
LINE
  5
214
100
AcDbEntity
  8
Layer_1
 62
7
100
AcDbLine
 10
124.080764
 20
175.573889
 30
0.0
 11
124.080764
 21
181.729861
 31
0.0
  0
LINE
  5
215
100
AcDbEntity
  8
Layer_1
 62
7
100
AcDbLine
 10
124.080764
 20
181.729861
 30
0.0
 11
124.080764
 21
187.894653
 31
0.0
  0
LINE
  5
216
100
AcDbEntity
  8
Layer_1
 62
7
100
AcDbLine
 10
124.080764
 20
187.894653
 30
0.0
 11
123.745625
 21
188.018125
 31
0.0
  0
LINE
  5
217
100
AcDbEntity
  8
Layer_1
 62
7
100
AcDbLine
 10
123.745625
 20
188.018125
 30
0.0
 11
123.419306
 21
188.132778
 31
0.0
  0
LINE
  5
218
100
AcDbEntity
  8
Layer_1
 62
7
100
AcDbLine
 10
123.419306
 20
188.132778
 30
0.0
 11
123.084167
 21
188.256250
 31
0.0
  0
LINE
  5
219
100
AcDbEntity
  8
Layer_1
 62
7
100
AcDbLine
 10
123.084167
 20
188.256250
 30
0.0
 11
122.749028
 21
188.370903
 31
0.0
  0
LINE
  5
21a
100
AcDbEntity
  8
Layer_1
 62
7
100
AcDbLine
 10
122.749028
 20
188.370903
 30
0.0
 11
119.803333
 21
189.861389
 31
0.0
  0
LINE
  5
21b
100
AcDbEntity
  8
Layer_1
 62
7
100
AcDbLine
 10
119.803333
 20
189.861389
 30
0.0
 11
117.078125
 21
192.013333
 31
0.0
  0
LINE
  5
21c
100
AcDbEntity
  8
Layer_1
 62
7
100
AcDbLine
 10
117.078125
 20
192.013333
 30
0.0
 11
114.785069
 21
194.650347
 31
0.0
  0
LINE
  5
21d
100
AcDbEntity
  8
Layer_1
 62
7
100
AcDbLine
 10
114.785069
 20
194.650347
 30
0.0
 11
113.118194
 21
197.578403
 31
0.0
  0
LINE
  5
21e
100
AcDbEntity
  8
Layer_1
 62
7
100
AcDbLine
 10
113.118194
 20
197.578403
 30
0.0
 11
111.830556
 21
202.446736
 31
0.0
  0
LINE
  5
21f
100
AcDbEntity
  8
Layer_1
 62
7
100
AcDbLine
 10
111.830556
 20
202.446736
 30
0.0
 11
111.998125
 21
207.359167
 31
0.0
  0
LINE
  5
220
100
AcDbEntity
  8
Layer_1
 62
7
100
AcDbLine
 10
111.998125
 20
207.359167
 30
0.0
 11
113.567986
 21
212.007014
 31
0.0
  0
LINE
  5
221
100
AcDbEntity
  8
Layer_1
 62
7
100
AcDbLine
 10
113.567986
 20
212.007014
 30
0.0
 11
116.487222
 21
216.099236
 31
0.0
  0
LINE
  5
222
100
AcDbEntity
  8
Layer_1
 62
7
100
AcDbLine
 10
116.487222
 20
216.099236
 30
0.0
 11
118.321667
 21
217.783750
 31
0.0
  0
LINE
  5
223
100
AcDbEntity
  8
Layer_1
 62
7
100
AcDbLine
 10
118.321667
 20
217.783750
 30
0.0
 11
120.288403
 21
219.133125
 31
0.0
  0
LINE
  5
224
100
AcDbEntity
  8
Layer_1
 62
7
100
AcDbLine
 10
120.288403
 20
219.133125
 30
0.0
 11
122.475625
 21
220.191458
 31
0.0
  0
LINE
  5
225
100
AcDbEntity
  8
Layer_1
 62
7
100
AcDbLine
 10
122.475625
 20
220.191458
 30
0.0
 11
124.971528
 21
221.011667
 31
0.0
  0
LINE
  5
226
100
AcDbEntity
  8
Layer_1
 62
7
100
AcDbLine
 10
124.971528
 20
221.011667
 30
0.0
 11
126.761875
 21
221.285069
 31
0.0
  0
LINE
  5
227
100
AcDbEntity
  8
Layer_1
 62
7
100
AcDbLine
 10
126.761875
 20
221.285069
 30
0.0
 11
129.037292
 21
221.355625
 31
0.0
  0
LINE
  5
228
100
AcDbEntity
  8
Layer_1
 62
7
100
AcDbLine
 10
129.037292
 20
221.355625
 30
0.0
 11
131.347986
 21
221.240972
 31
0.0
  0
LINE
  5
229
100
AcDbEntity
  8
Layer_1
 62
7
100
AcDbLine
 10
131.347986
 20
221.240972
 30
0.0
 11
133.226528
 21
220.923472
 31
0.0
  0
LINE
  5
22a
100
AcDbEntity
  8
Layer_1
 62
7
100
AcDbLine
 10
133.226528
 20
220.923472
 30
0.0
 11
137.503958
 21
219.159583
 31
0.0
  0
LINE
  5
22b
100
AcDbEntity
  8
Layer_1
 62
7
100
AcDbLine
 10
137.503958
 20
219.159583
 30
0.0
 11
141.111111
 21
216.407917
 31
0.0
  0
LINE
  5
22c
100
AcDbEntity
  8
Layer_1
 62
7
100
AcDbLine
 10
141.111111
 20
216.407917
 30
0.0
 11
143.871597
 21
212.853681
 31
0.0
  0
LINE
  5
22d
100
AcDbEntity
  8
Layer_1
 62
7
100
AcDbLine
 10
143.871597
 20
212.853681
 30
0.0
 11
145.626667
 21
208.655625
 31
0.0
  0
LINE
  5
22e
100
AcDbEntity
  8
Layer_1
 62
7
100
AcDbLine
 10
145.626667
 20
208.655625
 30
0.0
 11
146.058819
 21
206.142083
 31
0.0
  0
LINE
  5
22f
100
AcDbEntity
  8
Layer_1
 62
7
100
AcDbLine
 10
146.058819
 20
206.142083
 30
0.0
 11
146.094097
 21
203.425694
 31
0.0
  0
LINE
  5
230
100
AcDbEntity
  8
Layer_1
 62
7
100
AcDbLine
 10
146.094097
 20
203.425694
 30
0.0
 11
145.758958
 21
200.735764
 31
0.0
  0
LINE
  5
231
100
AcDbEntity
  8
Layer_1
 62
7
100
AcDbLine
 10
145.758958
 20
200.735764
 30
0.0
 11
145.053403
 21
198.275139
 31
0.0
  0
LINE
  5
232
100
AcDbEntity
  8
Layer_1
 62
7
100
AcDbLine
 10
145.053403
 20
198.275139
 30
0.0
 11
143.412986
 21
195.135417
 31
0.0
  0
LINE
  5
233
100
AcDbEntity
  8
Layer_1
 62
7
100
AcDbLine
 10
143.412986
 20
195.135417
 30
0.0
 11
141.119931
 21
192.330833
 31
0.0
  0
LINE
  5
234
100
AcDbEntity
  8
Layer_1
 62
7
100
AcDbLine
 10
141.119931
 20
192.330833
 30
0.0
 11
138.359444
 21
190.055417
 31
0.0
  0
LINE
  5
235
100
AcDbEntity
  8
Layer_1
 62
7
100
AcDbLine
 10
138.359444
 20
190.055417
 30
0.0
 11
135.299097
 21
188.459097
 31
0.0
  0
LINE
  5
236
100
AcDbEntity
  8
Layer_1
 62
7
100
AcDbLine
 10
135.299097
 20
188.459097
 30
0.0
 11
134.911042
 21
188.317986
 31
0.0
  0
LINE
  5
237
100
AcDbEntity
  8
Layer_1
 62
7
100
AcDbLine
 10
134.911042
 20
188.317986
 30
0.0
 11
134.531806
 21
188.168056
 31
0.0
  0
LINE
  5
238
100
AcDbEntity
  8
Layer_1
 62
7
100
AcDbLine
 10
134.531806
 20
188.168056
 30
0.0
 11
134.152569
 21
188.026944
 31
0.0
  0
LINE
  5
239
100
AcDbEntity
  8
Layer_1
 62
7
100
AcDbLine
 10
134.152569
 20
188.026944
 30
0.0
 11
133.764514
 21
187.877014
 31
0.0
  0
LINE
  5
23a
100
AcDbEntity
  8
Layer_1
 62
7
100
AcDbLine
 10
133.764514
 20
187.877014
 30
0.0
 11
133.764514
 21
186.906875
 31
0.0
  0
LINE
  5
23b
100
AcDbEntity
  8
Layer_1
 62
7
100
AcDbLine
 10
133.764514
 20
186.906875
 30
0.0
 11
133.764514
 21
185.936736
 31
0.0
  0
LINE
  5
23c
100
AcDbEntity
  8
Layer_1
 62
7
100
AcDbLine
 10
133.764514
 20
185.936736
 30
0.0
 11
133.764514
 21
184.966597
 31
0.0
  0
LINE
  5
23d
100
AcDbEntity
  8
Layer_1
 62
7
100
AcDbLine
 10
133.764514
 20
184.966597
 30
0.0
 11
133.764514
 21
183.996458
 31
0.0
  0
LINE
  5
23e
100
AcDbEntity
  8
Layer_1
 62
7
100
AcDbLine
 10
133.764514
 20
183.996458
 30
0.0
 11
133.764514
 21
183.017500
 31
0.0
  0
LINE
  5
23f
100
AcDbEntity
  8
Layer_1
 62
7
100
AcDbLine
 10
133.764514
 20
183.017500
 30
0.0
 11
133.764514
 21
182.047361
 31
0.0
  0
LINE
  5
240
100
AcDbEntity
  8
Layer_1
 62
7
100
AcDbLine
 10
133.764514
 20
182.047361
 30
0.0
 11
133.764514
 21
181.077222
 31
0.0
  0
LINE
  5
241
100
AcDbEntity
  8
Layer_1
 62
7
100
AcDbLine
 10
133.764514
 20
181.077222
 30
0.0
 11
133.764514
 21
180.107083
 31
0.0
  0
LINE
  5
242
100
AcDbEntity
  8
Layer_1
 62
7
100
AcDbLine
 10
133.764514
 20
180.107083
 30
0.0
 11
140.449653
 21
180.107083
 31
0.0
  0
LINE
  5
243
100
AcDbEntity
  8
Layer_1
 62
7
100
AcDbLine
 10
140.449653
 20
180.107083
 30
0.0
 11
147.125972
 21
180.107083
 31
0.0
  0
LINE
  5
244
100
AcDbEntity
  8
Layer_1
 62
7
100
AcDbLine
 10
147.125972
 20
180.107083
 30
0.0
 11
153.811111
 21
180.107083
 31
0.0
  0
LINE
  5
245
100
AcDbEntity
  8
Layer_1
 62
7
100
AcDbLine
 10
153.811111
 20
180.107083
 30
0.0
 11
160.496250
 21
180.107083
 31
0.0
  0
LINE
  5
246
100
AcDbEntity
  8
Layer_1
 62
7
100
AcDbLine
 10
160.496250
 20
180.107083
 30
0.0
 11
167.172569
 21
180.107083
 31
0.0
  0
LINE
  5
247
100
AcDbEntity
  8
Layer_1
 62
7
100
AcDbLine
 10
167.172569
 20
180.107083
 30
0.0
 11
173.857708
 21
180.107083
 31
0.0
  0
LINE
  5
248
100
AcDbEntity
  8
Layer_1
 62
7
100
AcDbLine
 10
173.857708
 20
180.107083
 30
0.0
 11
180.542847
 21
180.107083
 31
0.0
  0
LINE
  5
249
100
AcDbEntity
  8
Layer_1
 62
7
100
AcDbLine
 10
180.542847
 20
180.107083
 30
0.0
 11
187.219167
 21
180.107083
 31
0.0
  0
LINE
  5
24a
100
AcDbEntity
  8
Layer_1
 62
7
100
AcDbLine
 10
187.219167
 20
180.107083
 30
0.0
 11
187.219167
 21
186.404167
 31
0.0
  0
LINE
  5
24b
100
AcDbEntity
  8
Layer_1
 62
7
100
AcDbLine
 10
187.219167
 20
186.404167
 30
0.0
 11
187.219167
 21
192.701250
 31
0.0
  0
LINE
  5
24c
100
AcDbEntity
  8
Layer_1
 62
7
100
AcDbLine
 10
187.219167
 20
192.701250
 30
0.0
 11
187.219167
 21
198.998333
 31
0.0
  0
LINE
  5
24d
100
AcDbEntity
  8
Layer_1
 62
7
100
AcDbLine
 10
187.219167
 20
198.998333
 30
0.0
 11
187.219167
 21
205.286597
 31
0.0
  0
LINE
  5
24e
100
AcDbEntity
  8
Layer_1
 62
7
100
AcDbLine
 10
187.219167
 20
205.286597
 30
0.0
 11
187.219167
 21
211.583681
 31
0.0
  0
LINE
  5
24f
100
AcDbEntity
  8
Layer_1
 62
7
100
AcDbLine
 10
187.219167
 20
211.583681
 30
0.0
 11
187.219167
 21
217.880764
 31
0.0
  0
LINE
  5
250
100
AcDbEntity
  8
Layer_1
 62
7
100
AcDbLine
 10
187.219167
 20
217.880764
 30
0.0
 11
187.219167
 21
224.177847
 31
0.0
  0
LINE
  5
251
100
AcDbEntity
  8
Layer_1
 62
7
100
AcDbLine
 10
187.219167
 20
224.177847
 30
0.0
 11
187.219167
 21
230.474931
 31
0.0
  0
LINE
  5
252
100
AcDbEntity
  8
Layer_1
 62
7
100
AcDbLine
 10
187.219167
 20
230.474931
 30
0.0
 11
186.901667
 21
230.545486
 31
0.0
  0
LINE
  5
253
100
AcDbEntity
  8
Layer_1
 62
7
100
AcDbLine
 10
186.901667
 20
230.545486
 30
0.0
 11
186.584167
 21
230.616042
 31
0.0
  0
LINE
  5
254
100
AcDbEntity
  8
Layer_1
 62
7
100
AcDbLine
 10
186.584167
 20
230.616042
 30
0.0
 11
186.266667
 21
230.686597
 31
0.0
  0
LINE
  5
255
100
AcDbEntity
  8
Layer_1
 62
7
100
AcDbLine
 10
186.266667
 20
230.686597
 30
0.0
 11
185.949167
 21
230.765972
 31
0.0
  0
LINE
  5
256
100
AcDbEntity
  8
Layer_1
 62
7
100
AcDbLine
 10
185.949167
 20
230.765972
 30
0.0
 11
183.982431
 21
231.365694
 31
0.0
  0
LINE
  5
257
100
AcDbEntity
  8
Layer_1
 62
7
100
AcDbLine
 10
183.982431
 20
231.365694
 30
0.0
 11
181.980417
 21
232.282917
 31
0.0
  0
LINE
  5
258
100
AcDbEntity
  8
Layer_1
 62
7
100
AcDbLine
 10
181.980417
 20
232.282917
 30
0.0
 11
180.066597
 21
233.447083
 31
0.0
  0
LINE
  5
259
100
AcDbEntity
  8
Layer_1
 62
7
100
AcDbLine
 10
180.066597
 20
233.447083
 30
0.0
 11
178.355625
 21
234.805278
 31
0.0
  0
LINE
  5
25a
100
AcDbEntity
  8
Layer_1
 62
7
100
AcDbLine
 10
178.355625
 20
234.805278
 30
0.0
 11
177.262014
 21
235.934167
 31
0.0
  0
LINE
  5
25b
100
AcDbEntity
  8
Layer_1
 62
7
100
AcDbLine
 10
177.262014
 20
235.934167
 30
0.0
 11
176.186042
 21
237.274722
 31
0.0
  0
LINE
  5
25c
100
AcDbEntity
  8
Layer_1
 62
7
100
AcDbLine
 10
176.186042
 20
237.274722
 30
0.0
 11
175.215903
 21
238.721111
 31
0.0
  0
LINE
  5
25d
100
AcDbEntity
  8
Layer_1
 62
7
100
AcDbLine
 10
175.215903
 20
238.721111
 30
0.0
 11
174.422153
 21
240.176319
 31
0.0
  0
LINE
  5
25e
100
AcDbEntity
  8
Layer_1
 62
7
100
AcDbLine
 10
174.422153
 20
240.176319
 30
0.0
 11
174.236944
 21
240.564375
 31
0.0
  0
LINE
  5
25f
100
AcDbEntity
  8
Layer_1
 62
7
100
AcDbLine
 10
174.236944
 20
240.564375
 30
0.0
 11
174.051736
 21
240.952431
 31
0.0
  0
LINE
  5
260
100
AcDbEntity
  8
Layer_1
 62
7
100
AcDbLine
 10
174.051736
 20
240.952431
 30
0.0
 11
173.866528
 21
241.340486
 31
0.0
  0
LINE
  5
261
100
AcDbEntity
  8
Layer_1
 62
7
100
AcDbLine
 10
173.866528
 20
241.340486
 30
0.0
 11
173.681319
 21
241.737361
 31
0.0
  0
LINE
  5
262
100
AcDbEntity
  8
Layer_1
 62
7
100
AcDbLine
 10
173.681319
 20
241.737361
 30
0.0
 11
164.985347
 21
241.737361
 31
0.0
  0
LINE
  5
263
100
AcDbEntity
  8
Layer_1
 62
7
100
AcDbLine
 10
164.985347
 20
241.737361
 30
0.0
 11
156.289375
 21
241.737361
 31
0.0
  0
LINE
  5
264
100
AcDbEntity
  8
Layer_1
 62
7
100
AcDbLine
 10
156.289375
 20
241.737361
 30
0.0
 11
147.602222
 21
241.737361
 31
0.0
  0
LINE
  5
265
100
AcDbEntity
  8
Layer_1
 62
7
100
AcDbLine
 10
147.602222
 20
241.737361
 30
0.0
 11
138.906250
 21
241.737361
 31
0.0
  0
LINE
  5
266
100
AcDbEntity
  8
Layer_1
 62
7
100
AcDbLine
 10
138.906250
 20
241.737361
 30
0.0
 11
130.210278
 21
241.737361
 31
0.0
  0
LINE
  5
267
100
AcDbEntity
  8
Layer_1
 62
7
100
AcDbLine
 10
130.210278
 20
241.737361
 30
0.0
 11
121.523125
 21
241.737361
 31
0.0
  0
LINE
  5
268
100
AcDbEntity
  8
Layer_1
 62
7
100
AcDbLine
 10
121.523125
 20
241.737361
 30
0.0
 11
112.827153
 21
241.737361
 31
0.0
  0
LINE
  5
269
100
AcDbEntity
  8
Layer_1
 62
7
100
AcDbLine
 10
112.827153
 20
241.737361
 30
0.0
 11
104.131181
 21
241.737361
 31
0.0
  0
LINE
  5
26a
100
AcDbEntity
  8
Layer_1
 62
7
100
AcDbLine
 10
104.131181
 20
241.737361
 30
0.0
 11
104.131181
 21
241.737361
 31
0.0
  0
LINE
  5
26b
100
AcDbEntity
  8
Layer_1
 62
7
100
AcDbLine
 10
133.764514
 20
170.661458
 30
0.0
 11
133.764514
 21
166.657431
 31
0.0
  0
LINE
  5
26c
100
AcDbEntity
  8
Layer_1
 62
7
100
AcDbLine
 10
133.764514
 20
166.657431
 30
0.0
 11
133.764514
 21
162.644583
 31
0.0
  0
LINE
  5
26d
100
AcDbEntity
  8
Layer_1
 62
7
100
AcDbLine
 10
133.764514
 20
162.644583
 30
0.0
 11
133.764514
 21
158.640556
 31
0.0
  0
LINE
  5
26e
100
AcDbEntity
  8
Layer_1
 62
7
100
AcDbLine
 10
133.764514
 20
158.640556
 30
0.0
 11
133.764514
 21
154.627708
 31
0.0
  0
LINE
  5
26f
100
AcDbEntity
  8
Layer_1
 62
7
100
AcDbLine
 10
133.764514
 20
154.627708
 30
0.0
 11
133.764514
 21
150.623681
 31
0.0
  0
LINE
  5
270
100
AcDbEntity
  8
Layer_1
 62
7
100
AcDbLine
 10
133.764514
 20
150.623681
 30
0.0
 11
133.764514
 21
146.610833
 31
0.0
  0
LINE
  5
271
100
AcDbEntity
  8
Layer_1
 62
7
100
AcDbLine
 10
133.764514
 20
146.610833
 30
0.0
 11
133.764514
 21
142.597986
 31
0.0
  0
LINE
  5
272
100
AcDbEntity
  8
Layer_1
 62
7
100
AcDbLine
 10
133.764514
 20
142.597986
 30
0.0
 11
133.764514
 21
138.593958
 31
0.0
  0
LINE
  5
273
100
AcDbEntity
  8
Layer_1
 62
7
100
AcDbLine
 10
133.764514
 20
138.593958
 30
0.0
 11
139.761736
 21
138.602778
 31
0.0
  0
LINE
  5
274
100
AcDbEntity
  8
Layer_1
 62
7
100
AcDbLine
 10
139.761736
 20
138.602778
 30
0.0
 11
145.758958
 21
138.620417
 31
0.0
  0
LINE
  5
275
100
AcDbEntity
  8
Layer_1
 62
7
100
AcDbLine
 10
145.758958
 20
138.620417
 30
0.0
 11
151.756181
 21
138.629236
 31
0.0
  0
LINE
  5
276
100
AcDbEntity
  8
Layer_1
 62
7
100
AcDbLine
 10
151.756181
 20
138.629236
 30
0.0
 11
157.762222
 21
138.638056
 31
0.0
  0
LINE
  5
277
100
AcDbEntity
  8
Layer_1
 62
7
100
AcDbLine
 10
157.762222
 20
138.638056
 30
0.0
 11
163.759444
 21
138.655694
 31
0.0
  0
LINE
  5
278
100
AcDbEntity
  8
Layer_1
 62
7
100
AcDbLine
 10
163.759444
 20
138.655694
 30
0.0
 11
169.756667
 21
138.664514
 31
0.0
  0
LINE
  5
279
100
AcDbEntity
  8
Layer_1
 62
7
100
AcDbLine
 10
169.756667
 20
138.664514
 30
0.0
 11
175.753889
 21
138.673333
 31
0.0
  0
LINE
  5
27a
100
AcDbEntity
  8
Layer_1
 62
7
100
AcDbLine
 10
175.753889
 20
138.673333
 30
0.0
 11
181.751111
 21
138.690972
 31
0.0
  0
LINE
  5
27b
100
AcDbEntity
  8
Layer_1
 62
7
100
AcDbLine
 10
181.751111
 20
138.690972
 30
0.0
 11
182.050972
 21
138.832083
 31
0.0
  0
LINE
  5
27c
100
AcDbEntity
  8
Layer_1
 62
7
100
AcDbLine
 10
182.050972
 20
138.832083
 30
0.0
 11
182.350833
 21
138.982014
 31
0.0
  0
LINE
  5
27d
100
AcDbEntity
  8
Layer_1
 62
7
100
AcDbLine
 10
182.350833
 20
138.982014
 30
0.0
 11
182.659514
 21
139.123125
 31
0.0
  0
LINE
  5
27e
100
AcDbEntity
  8
Layer_1
 62
7
100
AcDbLine
 10
182.659514
 20
139.123125
 30
0.0
 11
182.959375
 21
139.273056
 31
0.0
  0
LINE
  5
27f
100
AcDbEntity
  8
Layer_1
 62
7
100
AcDbLine
 10
182.959375
 20
139.273056
 30
0.0
 11
184.097083
 21
139.943333
 31
0.0
  0
LINE
  5
280
100
AcDbEntity
  8
Layer_1
 62
7
100
AcDbLine
 10
184.097083
 20
139.943333
 30
0.0
 11
185.084861
 21
140.772361
 31
0.0
  0
LINE
  5
281
100
AcDbEntity
  8
Layer_1
 62
7
100
AcDbLine
 10
185.084861
 20
140.772361
 30
0.0
 11
185.913889
 21
141.742500
 31
0.0
  0
LINE
  5
282
100
AcDbEntity
  8
Layer_1
 62
7
100
AcDbLine
 10
185.913889
 20
141.742500
 30
0.0
 11
186.557708
 21
142.827292
 31
0.0
  0
LINE
  5
283
100
AcDbEntity
  8
Layer_1
 62
7
100
AcDbLine
 10
186.557708
 20
142.827292
 30
0.0
 11
186.698819
 21
143.127153
 31
0.0
  0
LINE
  5
284
100
AcDbEntity
  8
Layer_1
 62
7
100
AcDbLine
 10
186.698819
 20
143.127153
 30
0.0
 11
186.848750
 21
143.427014
 31
0.0
  0
LINE
  5
285
100
AcDbEntity
  8
Layer_1
 62
7
100
AcDbLine
 10
186.848750
 20
143.427014
 30
0.0
 11
186.989861
 21
143.726875
 31
0.0
  0
LINE
  5
286
100
AcDbEntity
  8
Layer_1
 62
7
100
AcDbLine
 10
186.989861
 20
143.726875
 30
0.0
 11
187.130972
 21
144.035556
 31
0.0
  0
LINE
  5
287
100
AcDbEntity
  8
Layer_1
 62
7
100
AcDbLine
 10
187.130972
 20
144.035556
 30
0.0
 11
187.148611
 21
147.360486
 31
0.0
  0
LINE
  5
288
100
AcDbEntity
  8
Layer_1
 62
7
100
AcDbLine
 10
187.148611
 20
147.360486
 30
0.0
 11
187.157431
 21
150.685417
 31
0.0
  0
LINE
  5
289
100
AcDbEntity
  8
Layer_1
 62
7
100
AcDbLine
 10
187.157431
 20
150.685417
 30
0.0
 11
187.166250
 21
154.019167
 31
0.0
  0
LINE
  5
28a
100
AcDbEntity
  8
Layer_1
 62
7
100
AcDbLine
 10
187.166250
 20
154.019167
 30
0.0
 11
187.183889
 21
157.344097
 31
0.0
  0
LINE
  5
28b
100
AcDbEntity
  8
Layer_1
 62
7
100
AcDbLine
 10
187.183889
 20
157.344097
 30
0.0
 11
187.192708
 21
160.677847
 31
0.0
  0
LINE
  5
28c
100
AcDbEntity
  8
Layer_1
 62
7
100
AcDbLine
 10
187.192708
 20
160.677847
 30
0.0
 11
187.210347
 21
164.002778
 31
0.0
  0
LINE
  5
28d
100
AcDbEntity
  8
Layer_1
 62
7
100
AcDbLine
 10
187.210347
 20
164.002778
 30
0.0
 11
187.219167
 21
167.336528
 31
0.0
  0
LINE
  5
28e
100
AcDbEntity
  8
Layer_1
 62
7
100
AcDbLine
 10
187.219167
 20
167.336528
 30
0.0
 11
187.227986
 21
170.661458
 31
0.0
  0
LINE
  5
28f
100
AcDbEntity
  8
Layer_1
 62
7
100
AcDbLine
 10
187.227986
 20
170.661458
 30
0.0
 11
180.551667
 21
170.661458
 31
0.0
  0
LINE
  5
290
100
AcDbEntity
  8
Layer_1
 62
7
100
AcDbLine
 10
180.551667
 20
170.661458
 30
0.0
 11
173.866528
 21
170.661458
 31
0.0
  0
LINE
  5
291
100
AcDbEntity
  8
Layer_1
 62
7
100
AcDbLine
 10
173.866528
 20
170.661458
 30
0.0
 11
167.181389
 21
170.661458
 31
0.0
  0
LINE
  5
292
100
AcDbEntity
  8
Layer_1
 62
7
100
AcDbLine
 10
167.181389
 20
170.661458
 30
0.0
 11
160.496250
 21
170.661458
 31
0.0
  0
LINE
  5
293
100
AcDbEntity
  8
Layer_1
 62
7
100
AcDbLine
 10
160.496250
 20
170.661458
 30
0.0
 11
153.811111
 21
170.661458
 31
0.0
  0
LINE
  5
294
100
AcDbEntity
  8
Layer_1
 62
7
100
AcDbLine
 10
153.811111
 20
170.661458
 30
0.0
 11
147.134792
 21
170.661458
 31
0.0
  0
LINE
  5
295
100
AcDbEntity
  8
Layer_1
 62
7
100
AcDbLine
 10
147.134792
 20
170.661458
 30
0.0
 11
140.449653
 21
170.661458
 31
0.0
  0
LINE
  5
296
100
AcDbEntity
  8
Layer_1
 62
7
100
AcDbLine
 10
140.449653
 20
170.661458
 30
0.0
 11
133.764514
 21
170.661458
 31
0.0
  0
LINE
  5
297
100
AcDbEntity
  8
Layer_1
 62
7
100
AcDbLine
 10
133.764514
 20
170.661458
 30
0.0
 11
133.764514
 21
170.661458
 31
0.0
  0
LINE
  5
298
100
AcDbEntity
  8
Layer_1
 62
7
100
AcDbLine
 10
84.058125
 20
128.037083
 30
0.0
 11
79.057500
 21
127.737222
 31
0.0
  0
LINE
  5
299
100
AcDbEntity
  8
Layer_1
 62
7
100
AcDbLine
 10
79.057500
 20
127.737222
 30
0.0
 11
74.612500
 21
126.361389
 31
0.0
  0
LINE
  5
29a
100
AcDbEntity
  8
Layer_1
 62
7
100
AcDbLine
 10
74.612500
 20
126.361389
 30
0.0
 11
70.828958
 21
123.953681
 31
0.0
  0
LINE
  5
29b
100
AcDbEntity
  8
Layer_1
 62
7
100
AcDbLine
 10
70.828958
 20
123.953681
 30
0.0
 11
67.812708
 21
120.558194
 31
0.0
  0
LINE
  5
29c
100
AcDbEntity
  8
Layer_1
 62
7
100
AcDbLine
 10
67.812708
 20
120.558194
 30
0.0
 11
65.987083
 21
116.827569
 31
0.0
  0
LINE
  5
29d
100
AcDbEntity
  8
Layer_1
 62
7
100
AcDbLine
 10
65.987083
 20
116.827569
 30
0.0
 11
64.964028
 21
112.488403
 31
0.0
  0
LINE
  5
29e
100
AcDbEntity
  8
Layer_1
 62
7
100
AcDbLine
 10
64.964028
 20
112.488403
 30
0.0
 11
64.796458
 21
107.919931
 31
0.0
  0
LINE
  5
29f
100
AcDbEntity
  8
Layer_1
 62
7
100
AcDbLine
 10
64.796458
 20
107.919931
 30
0.0
 11
65.528472
 21
103.536667
 31
0.0
  0
LINE
  5
2a0
100
AcDbEntity
  8
Layer_1
 62
7
100
AcDbLine
 10
65.528472
 20
103.536667
 30
0.0
 11
67.715694
 21
98.685972
 31
0.0
  0
LINE
  5
2a1
100
AcDbEntity
  8
Layer_1
 62
7
100
AcDbLine
 10
67.715694
 20
98.685972
 30
0.0
 11
71.067083
 21
94.840694
 31
0.0
  0
LINE
  5
2a2
100
AcDbEntity
  8
Layer_1
 62
7
100
AcDbLine
 10
71.067083
 20
94.840694
 30
0.0
 11
75.388611
 21
92.177222
 31
0.0
  0
LINE
  5
2a3
100
AcDbEntity
  8
Layer_1
 62
7
100
AcDbLine
 10
75.388611
 20
92.177222
 30
0.0
 11
80.468611
 21
90.871944
 31
0.0
  0
LINE
  5
2a4
100
AcDbEntity
  8
Layer_1
 62
7
100
AcDbLine
 10
80.468611
 20
90.871944
 30
0.0
 11
82.532361
 21
90.739653
 31
0.0
  0
LINE
  5
2a5
100
AcDbEntity
  8
Layer_1
 62
7
100
AcDbLine
 10
82.532361
 20
90.739653
 30
0.0
 11
84.560833
 21
90.783750
 31
0.0
  0
LINE
  5
2a6
100
AcDbEntity
  8
Layer_1
 62
7
100
AcDbLine
 10
84.560833
 20
90.783750
 30
0.0
 11
86.536389
 21
91.004236
 31
0.0
  0
LINE
  5
2a7
100
AcDbEntity
  8
Layer_1
 62
7
100
AcDbLine
 10
86.536389
 20
91.004236
 30
0.0
 11
88.467847
 21
91.401111
 31
0.0
  0
LINE
  5
2a8
100
AcDbEntity
  8
Layer_1
 62
7
100
AcDbLine
 10
88.467847
 20
91.401111
 30
0.0
 11
89.905417
 21
91.877361
 31
0.0
  0
LINE
  5
2a9
100
AcDbEntity
  8
Layer_1
 62
7
100
AcDbLine
 10
89.905417
 20
91.877361
 30
0.0
 11
91.554653
 21
92.574097
 31
0.0
  0
LINE
  5
2aa
100
AcDbEntity
  8
Layer_1
 62
7
100
AcDbLine
 10
91.554653
 20
92.574097
 30
0.0
 11
93.142153
 21
93.367847
 31
0.0
  0
LINE
  5
2ab
100
AcDbEntity
  8
Layer_1
 62
7
100
AcDbLine
 10
93.142153
 20
93.367847
 30
0.0
 11
94.394514
 21
94.135139
 31
0.0
  0
LINE
  5
2ac
100
AcDbEntity
  8
Layer_1
 62
7
100
AcDbLine
 10
94.394514
 20
94.135139
 30
0.0
 11
96.079028
 21
95.546250
 31
0.0
  0
LINE
  5
2ad
100
AcDbEntity
  8
Layer_1
 62
7
100
AcDbLine
 10
96.079028
 20
95.546250
 30
0.0
 11
97.595972
 21
97.195486
 31
0.0
  0
LINE
  5
2ae
100
AcDbEntity
  8
Layer_1
 62
7
100
AcDbLine
 10
97.595972
 20
97.195486
 30
0.0
 11
98.874792
 21
99.021111
 31
0.0
  0
LINE
  5
2af
100
AcDbEntity
  8
Layer_1
 62
7
100
AcDbLine
 10
98.874792
 20
99.021111
 30
0.0
 11
99.853750
 21
100.917292
 31
0.0
  0
LINE
  5
2b0
100
AcDbEntity
  8
Layer_1
 62
7
100
AcDbLine
 10
99.853750
 20
100.917292
 30
0.0
 11
100.427014
 21
102.354861
 31
0.0
  0
LINE
  5
2b1
100
AcDbEntity
  8
Layer_1
 62
7
100
AcDbLine
 10
100.427014
 20
102.354861
 30
0.0
 11
100.471111
 21
103.183889
 31
0.0
  0
LINE
  5
2b2
100
AcDbEntity
  8
Layer_1
 62
7
100
AcDbLine
 10
100.471111
 20
103.183889
 30
0.0
 11
99.818472
 21
103.836528
 31
0.0
  0
LINE
  5
2b3
100
AcDbEntity
  8
Layer_1
 62
7
100
AcDbLine
 10
99.818472
 20
103.836528
 30
0.0
 11
98.310347
 21
104.700833
 31
0.0
  0
LINE
  5
2b4
100
AcDbEntity
  8
Layer_1
 62
7
100
AcDbLine
 10
98.310347
 20
104.700833
 30
0.0
 11
97.737083
 21
105.018333
 31
0.0
  0
LINE
  5
2b5
100
AcDbEntity
  8
Layer_1
 62
7
100
AcDbLine
 10
97.737083
 20
105.018333
 30
0.0
 11
97.155000
 21
105.344653
 31
0.0
  0
LINE
  5
2b6
100
AcDbEntity
  8
Layer_1
 62
7
100
AcDbLine
 10
97.155000
 20
105.344653
 30
0.0
 11
96.581736
 21
105.662153
 31
0.0
  0
LINE
  5
2b7
100
AcDbEntity
  8
Layer_1
 62
7
100
AcDbLine
 10
96.581736
 20
105.662153
 30
0.0
 11
96.008472
 21
105.988472
 31
0.0
  0
LINE
  5
2b8
100
AcDbEntity
  8
Layer_1
 62
7
100
AcDbLine
 10
96.008472
 20
105.988472
 30
0.0
 11
95.911458
 21
105.697431
 31
0.0
  0
LINE
  5
2b9
100
AcDbEntity
  8
Layer_1
 62
7
100
AcDbLine
 10
95.911458
 20
105.697431
 30
0.0
 11
95.814444
 21
105.415208
 31
0.0
  0
LINE
  5
2ba
100
AcDbEntity
  8
Layer_1
 62
7
100
AcDbLine
 10
95.814444
 20
105.415208
 30
0.0
 11
95.717431
 21
105.132986
 31
0.0
  0
LINE
  5
2bb
100
AcDbEntity
  8
Layer_1
 62
7
100
AcDbLine
 10
95.717431
 20
105.132986
 30
0.0
 11
95.620417
 21
104.841944
 31
0.0
  0
LINE
  5
2bc
100
AcDbEntity
  8
Layer_1
 62
7
100
AcDbLine
 10
95.620417
 20
104.841944
 30
0.0
 11
94.121111
 21
101.711042
 31
0.0
  0
LINE
  5
2bd
100
AcDbEntity
  8
Layer_1
 62
7
100
AcDbLine
 10
94.121111
 20
101.711042
 30
0.0
 11
92.013264
 21
99.118125
 31
0.0
  0
LINE
  5
2be
100
AcDbEntity
  8
Layer_1
 62
7
100
AcDbLine
 10
92.013264
 20
99.118125
 30
0.0
 11
89.376250
 21
97.160208
 31
0.0
  0
LINE
  5
2bf
100
AcDbEntity
  8
Layer_1
 62
7
100
AcDbLine
 10
89.376250
 20
97.160208
 30
0.0
 11
86.324722
 21
95.943125
 31
0.0
  0
LINE
  5
2c0
100
AcDbEntity
  8
Layer_1
 62
7
100
AcDbLine
 10
86.324722
 20
95.943125
 30
0.0
 11
85.010625
 21
95.740278
 31
0.0
  0
LINE
  5
2c1
100
AcDbEntity
  8
Layer_1
 62
7
100
AcDbLine
 10
85.010625
 20
95.740278
 30
0.0
 11
83.379028
 21
95.669722
 31
0.0
  0
LINE
  5
2c2
100
AcDbEntity
  8
Layer_1
 62
7
100
AcDbLine
 10
83.379028
 20
95.669722
 30
0.0
 11
81.747431
 21
95.740278
 31
0.0
  0
LINE
  5
2c3
100
AcDbEntity
  8
Layer_1
 62
7
100
AcDbLine
 10
81.747431
 20
95.740278
 30
0.0
 11
80.424514
 21
95.951944
 31
0.0
  0
LINE
  5
2c4
100
AcDbEntity
  8
Layer_1
 62
7
100
AcDbLine
 10
80.424514
 20
95.951944
 30
0.0
 11
77.999167
 21
96.877986
 31
0.0
  0
LINE
  5
2c5
100
AcDbEntity
  8
Layer_1
 62
7
100
AcDbLine
 10
77.999167
 20
96.877986
 30
0.0
 11
75.759028
 21
98.333194
 31
0.0
  0
LINE
  5
2c6
100
AcDbEntity
  8
Layer_1
 62
7
100
AcDbLine
 10
75.759028
 20
98.333194
 30
0.0
 11
73.836389
 21
100.220556
 31
0.0
  0
LINE
  5
2c7
100
AcDbEntity
  8
Layer_1
 62
7
100
AcDbLine
 10
73.836389
 20
100.220556
 30
0.0
 11
72.345903
 21
102.434236
 31
0.0
  0
LINE
  5
2c8
100
AcDbEntity
  8
Layer_1
 62
7
100
AcDbLine
 10
72.345903
 20
102.434236
 30
0.0
 11
71.128819
 21
105.750347
 31
0.0
  0
LINE
  5
2c9
100
AcDbEntity
  8
Layer_1
 62
7
100
AcDbLine
 10
71.128819
 20
105.750347
 30
0.0
 11
70.705486
 21
109.383958
 31
0.0
  0
LINE
  5
2ca
100
AcDbEntity
  8
Layer_1
 62
7
100
AcDbLine
 10
70.705486
 20
109.383958
 30
0.0
 11
71.067083
 21
113.035208
 31
0.0
  0
LINE
  5
2cb
100
AcDbEntity
  8
Layer_1
 62
7
100
AcDbLine
 10
71.067083
 20
113.035208
 30
0.0
 11
72.231250
 21
116.421875
 31
0.0
  0
LINE
  5
2cc
100
AcDbEntity
  8
Layer_1
 62
7
100
AcDbLine
 10
72.231250
 20
116.421875
 30
0.0
 11
73.704097
 21
118.759028
 31
0.0
  0
LINE
  5
2cd
100
AcDbEntity
  8
Layer_1
 62
7
100
AcDbLine
 10
73.704097
 20
118.759028
 30
0.0
 11
75.565000
 21
120.681667
 31
0.0
  0
LINE
  5
2ce
100
AcDbEntity
  8
Layer_1
 62
7
100
AcDbLine
 10
75.565000
 20
120.681667
 30
0.0
 11
77.743403
 21
122.119236
 31
0.0
  0
LINE
  5
2cf
100
AcDbEntity
  8
Layer_1
 62
7
100
AcDbLine
 10
77.743403
 20
122.119236
 30
0.0
 11
80.142292
 21
123.001181
 31
0.0
  0
LINE
  5
2d0
100
AcDbEntity
  8
Layer_1
 62
7
100
AcDbLine
 10
80.142292
 20
123.001181
 30
0.0
 11
81.509306
 21
123.195208
 31
0.0
  0
LINE
  5
2d1
100
AcDbEntity
  8
Layer_1
 62
7
100
AcDbLine
 10
81.509306
 20
123.195208
 30
0.0
 11
83.176181
 21
123.265764
 31
0.0
  0
LINE
  5
2d2
100
AcDbEntity
  8
Layer_1
 62
7
100
AcDbLine
 10
83.176181
 20
123.265764
 30
0.0
 11
84.843056
 21
123.204028
 31
0.0
  0
LINE
  5
2d3
100
AcDbEntity
  8
Layer_1
 62
7
100
AcDbLine
 10
84.843056
 20
123.204028
 30
0.0
 11
86.210069
 21
123.001181
 31
0.0
  0
LINE
  5
2d4
100
AcDbEntity
  8
Layer_1
 62
7
100
AcDbLine
 10
86.210069
 20
123.001181
 30
0.0
 11
86.774514
 21
122.842431
 31
0.0
  0
LINE
  5
2d5
100
AcDbEntity
  8
Layer_1
 62
7
100
AcDbLine
 10
86.774514
 20
122.842431
 30
0.0
 11
87.453611
 21
122.613125
 31
0.0
  0
LINE
  5
2d6
100
AcDbEntity
  8
Layer_1
 62
7
100
AcDbLine
 10
87.453611
 20
122.613125
 30
0.0
 11
88.159167
 21
122.339722
 31
0.0
  0
LINE
  5
2d7
100
AcDbEntity
  8
Layer_1
 62
7
100
AcDbLine
 10
88.159167
 20
122.339722
 30
0.0
 11
88.811806
 21
122.057500
 31
0.0
  0
LINE
  5
2d8
100
AcDbEntity
  8
Layer_1
 62
7
100
AcDbLine
 10
88.811806
 20
122.057500
 30
0.0
 11
90.602153
 21
121.069722
 31
0.0
  0
LINE
  5
2d9
100
AcDbEntity
  8
Layer_1
 62
7
100
AcDbLine
 10
90.602153
 20
121.069722
 30
0.0
 11
92.119097
 21
119.914375
 31
0.0
  0
LINE
  5
2da
100
AcDbEntity
  8
Layer_1
 62
7
100
AcDbLine
 10
92.119097
 20
119.914375
 30
0.0
 11
93.406736
 21
118.547361
 31
0.0
  0
LINE
  5
2db
100
AcDbEntity
  8
Layer_1
 62
7
100
AcDbLine
 10
93.406736
 20
118.547361
 30
0.0
 11
94.491528
 21
116.933403
 31
0.0
  0
LINE
  5
2dc
100
AcDbEntity
  8
Layer_1
 62
7
100
AcDbLine
 10
94.491528
 20
116.933403
 30
0.0
 11
94.632639
 21
116.695278
 31
0.0
  0
LINE
  5
2dd
100
AcDbEntity
  8
Layer_1
 62
7
100
AcDbLine
 10
94.632639
 20
116.695278
 30
0.0
 11
94.773750
 21
116.457153
 31
0.0
  0
LINE
  5
2de
100
AcDbEntity
  8
Layer_1
 62
7
100
AcDbLine
 10
94.773750
 20
116.457153
 30
0.0
 11
94.906042
 21
116.210208
 31
0.0
  0
LINE
  5
2df
100
AcDbEntity
  8
Layer_1
 62
7
100
AcDbLine
 10
94.906042
 20
116.210208
 30
0.0
 11
95.047153
 21
115.972083
 31
0.0
  0
LINE
  5
2e0
100
AcDbEntity
  8
Layer_1
 62
7
100
AcDbLine
 10
95.047153
 20
115.972083
 30
0.0
 11
95.629236
 21
115.972083
 31
0.0
  0
LINE
  5
2e1
100
AcDbEntity
  8
Layer_1
 62
7
100
AcDbLine
 10
95.629236
 20
115.972083
 30
0.0
 11
96.202500
 21
115.972083
 31
0.0
  0
LINE
  5
2e2
100
AcDbEntity
  8
Layer_1
 62
7
100
AcDbLine
 10
96.202500
 20
115.972083
 30
0.0
 11
96.784583
 21
115.972083
 31
0.0
  0
LINE
  5
2e3
100
AcDbEntity
  8
Layer_1
 62
7
100
AcDbLine
 10
96.784583
 20
115.972083
 30
0.0
 11
97.366667
 21
115.972083
 31
0.0
  0
LINE
  5
2e4
100
AcDbEntity
  8
Layer_1
 62
7
100
AcDbLine
 10
97.366667
 20
115.972083
 30
0.0
 11
97.939931
 21
115.972083
 31
0.0
  0
LINE
  5
2e5
100
AcDbEntity
  8
Layer_1
 62
7
100
AcDbLine
 10
97.939931
 20
115.972083
 30
0.0
 11
98.522014
 21
115.972083
 31
0.0
  0
LINE
  5
2e6
100
AcDbEntity
  8
Layer_1
 62
7
100
AcDbLine
 10
98.522014
 20
115.972083
 30
0.0
 11
99.104097
 21
115.972083
 31
0.0
  0
LINE
  5
2e7
100
AcDbEntity
  8
Layer_1
 62
7
100
AcDbLine
 10
99.104097
 20
115.972083
 30
0.0
 11
99.686181
 21
115.972083
 31
0.0
  0
LINE
  5
2e8
100
AcDbEntity
  8
Layer_1
 62
7
100
AcDbLine
 10
99.686181
 20
115.972083
 30
0.0
 11
99.686181
 21
117.418472
 31
0.0
  0
LINE
  5
2e9
100
AcDbEntity
  8
Layer_1
 62
7
100
AcDbLine
 10
99.686181
 20
117.418472
 30
0.0
 11
99.686181
 21
118.873681
 31
0.0
  0
LINE
  5
2ea
100
AcDbEntity
  8
Layer_1
 62
7
100
AcDbLine
 10
99.686181
 20
118.873681
 30
0.0
 11
99.686181
 21
120.320069
 31
0.0
  0
LINE
  5
2eb
100
AcDbEntity
  8
Layer_1
 62
7
100
AcDbLine
 10
99.686181
 20
120.320069
 30
0.0
 11
99.686181
 21
121.766458
 31
0.0
  0
LINE
  5
2ec
100
AcDbEntity
  8
Layer_1
 62
7
100
AcDbLine
 10
99.686181
 20
121.766458
 30
0.0
 11
99.686181
 21
123.212847
 31
0.0
  0
LINE
  5
2ed
100
AcDbEntity
  8
Layer_1
 62
7
100
AcDbLine
 10
99.686181
 20
123.212847
 30
0.0
 11
99.686181
 21
124.659236
 31
0.0
  0
LINE
  5
2ee
100
AcDbEntity
  8
Layer_1
 62
7
100
AcDbLine
 10
99.686181
 20
124.659236
 30
0.0
 11
99.686181
 21
126.105625
 31
0.0
  0
LINE
  5
2ef
100
AcDbEntity
  8
Layer_1
 62
7
100
AcDbLine
 10
99.686181
 20
126.105625
 30
0.0
 11
99.686181
 21
127.552014
 31
0.0
  0
LINE
  5
2f0
100
AcDbEntity
  8
Layer_1
 62
7
100
AcDbLine
 10
99.686181
 20
127.552014
 30
0.0
 11
99.104097
 21
127.552014
 31
0.0
  0
LINE
  5
2f1
100
AcDbEntity
  8
Layer_1
 62
7
100
AcDbLine
 10
99.104097
 20
127.552014
 30
0.0
 11
98.513194
 21
127.552014
 31
0.0
  0
LINE
  5
2f2
100
AcDbEntity
  8
Layer_1
 62
7
100
AcDbLine
 10
98.513194
 20
127.552014
 30
0.0
 11
97.931111
 21
127.552014
 31
0.0
  0
LINE
  5
2f3
100
AcDbEntity
  8
Layer_1
 62
7
100
AcDbLine
 10
97.931111
 20
127.552014
 30
0.0
 11
97.349028
 21
127.552014
 31
0.0
  0
LINE
  5
2f4
100
AcDbEntity
  8
Layer_1
 62
7
100
AcDbLine
 10
97.349028
 20
127.552014
 30
0.0
 11
96.766944
 21
127.552014
 31
0.0
  0
LINE
  5
2f5
100
AcDbEntity
  8
Layer_1
 62
7
100
AcDbLine
 10
96.766944
 20
127.552014
 30
0.0
 11
96.184861
 21
127.552014
 31
0.0
  0
LINE
  5
2f6
100
AcDbEntity
  8
Layer_1
 62
7
100
AcDbLine
 10
96.184861
 20
127.552014
 30
0.0
 11
95.602778
 21
127.552014
 31
0.0
  0
LINE
  5
2f7
100
AcDbEntity
  8
Layer_1
 62
7
100
AcDbLine
 10
95.602778
 20
127.552014
 30
0.0
 11
95.020694
 21
127.552014
 31
0.0
  0
LINE
  5
2f8
100
AcDbEntity
  8
Layer_1
 62
7
100
AcDbLine
 10
95.020694
 20
127.552014
 30
0.0
 11
95.020694
 21
127.155139
 31
0.0
  0
LINE
  5
2f9
100
AcDbEntity
  8
Layer_1
 62
7
100
AcDbLine
 10
95.020694
 20
127.155139
 30
0.0
 11
95.020694
 21
126.749444
 31
0.0
  0
LINE
  5
2fa
100
AcDbEntity
  8
Layer_1
 62
7
100
AcDbLine
 10
95.020694
 20
126.749444
 30
0.0
 11
95.020694
 21
126.352569
 31
0.0
  0
LINE
  5
2fb
100
AcDbEntity
  8
Layer_1
 62
7
100
AcDbLine
 10
95.020694
 20
126.352569
 30
0.0
 11
95.020694
 21
125.946875
 31
0.0
  0
LINE
  5
2fc
100
AcDbEntity
  8
Layer_1
 62
7
100
AcDbLine
 10
95.020694
 20
125.946875
 30
0.0
 11
95.011875
 21
125.329514
 31
0.0
  0
LINE
  5
2fd
100
AcDbEntity
  8
Layer_1
 62
7
100
AcDbLine
 10
95.011875
 20
125.329514
 30
0.0
 11
94.985417
 21
124.817986
 31
0.0
  0
LINE
  5
2fe
100
AcDbEntity
  8
Layer_1
 62
7
100
AcDbLine
 10
94.985417
 20
124.817986
 30
0.0
 11
94.958958
 21
124.474028
 31
0.0
  0
LINE
  5
2ff
100
AcDbEntity
  8
Layer_1
 62
7
100
AcDbLine
 10
94.958958
 20
124.474028
 30
0.0
 11
94.923681
 21
124.350556
 31
0.0
  0
LINE
  5
300
100
AcDbEntity
  8
Layer_1
 62
7
100
AcDbLine
 10
94.923681
 20
124.350556
 30
0.0
 11
94.800208
 21
124.403472
 31
0.0
  0
LINE
  5
301
100
AcDbEntity
  8
Layer_1
 62
7
100
AcDbLine
 10
94.800208
 20
124.403472
 30
0.0
 11
94.553264
 21
124.553403
 31
0.0
  0
LINE
  5
302
100
AcDbEntity
  8
Layer_1
 62
7
100
AcDbLine
 10
94.553264
 20
124.553403
 30
0.0
 11
94.200486
 21
124.765069
 31
0.0
  0
LINE
  5
303
100
AcDbEntity
  8
Layer_1
 62
7
100
AcDbLine
 10
94.200486
 20
124.765069
 30
0.0
 11
93.794792
 21
125.038472
 31
0.0
  0
LINE
  5
304
100
AcDbEntity
  8
Layer_1
 62
7
100
AcDbLine
 10
93.794792
 20
125.038472
 30
0.0
 11
91.660486
 21
126.264375
 31
0.0
  0
LINE
  5
305
100
AcDbEntity
  8
Layer_1
 62
7
100
AcDbLine
 10
91.660486
 20
126.264375
 30
0.0
 11
89.367431
 21
127.163958
 31
0.0
  0
LINE
  5
306
100
AcDbEntity
  8
Layer_1
 62
7
100
AcDbLine
 10
89.367431
 20
127.163958
 30
0.0
 11
86.862708
 21
127.746042
 31
0.0
  0
LINE
  5
307
100
AcDbEntity
  8
Layer_1
 62
7
100
AcDbLine
 10
86.862708
 20
127.746042
 30
0.0
 11
84.058125
 21
128.037083
 31
0.0
  0
LINE
  5
308
100
AcDbEntity
  8
Layer_1
 62
7
100
AcDbLine
 10
84.058125
 20
128.037083
 30
0.0
 11
84.058125
 21
128.037083
 31
0.0
  0
LINE
  5
309
100
AcDbEntity
  8
Layer_1
 62
7
100
AcDbLine
 10
46.046319
 20
127.552014
 30
0.0
 11
46.046319
 21
126.996389
 31
0.0
  0
LINE
  5
30a
100
AcDbEntity
  8
Layer_1
 62
7
100
AcDbLine
 10
46.046319
 20
126.996389
 30
0.0
 11
46.046319
 21
126.440764
 31
0.0
  0
LINE
  5
30b
100
AcDbEntity
  8
Layer_1
 62
7
100
AcDbLine
 10
46.046319
 20
126.440764
 30
0.0
 11
46.046319
 21
125.885139
 31
0.0
  0
LINE
  5
30c
100
AcDbEntity
  8
Layer_1
 62
7
100
AcDbLine
 10
46.046319
 20
125.885139
 30
0.0
 11
46.046319
 21
125.329514
 31
0.0
  0
LINE
  5
30d
100
AcDbEntity
  8
Layer_1
 62
7
100
AcDbLine
 10
46.046319
 20
125.329514
 30
0.0
 11
46.046319
 21
124.782708
 31
0.0
  0
LINE
  5
30e
100
AcDbEntity
  8
Layer_1
 62
7
100
AcDbLine
 10
46.046319
 20
124.782708
 30
0.0
 11
46.046319
 21
124.227083
 31
0.0
  0
LINE
  5
30f
100
AcDbEntity
  8
Layer_1
 62
7
100
AcDbLine
 10
46.046319
 20
124.227083
 30
0.0
 11
46.046319
 21
123.671458
 31
0.0
  0
LINE
  5
310
100
AcDbEntity
  8
Layer_1
 62
7
100
AcDbLine
 10
46.046319
 20
123.671458
 30
0.0
 11
46.046319
 21
123.115833
 31
0.0
  0
LINE
  5
311
100
AcDbEntity
  8
Layer_1
 62
7
100
AcDbLine
 10
46.046319
 20
123.115833
 30
0.0
 11
46.531389
 21
123.098194
 31
0.0
  0
LINE
  5
312
100
AcDbEntity
  8
Layer_1
 62
7
100
AcDbLine
 10
46.531389
 20
123.098194
 30
0.0
 11
47.007639
 21
123.089375
 31
0.0
  0
LINE
  5
313
100
AcDbEntity
  8
Layer_1
 62
7
100
AcDbLine
 10
47.007639
 20
123.089375
 30
0.0
 11
47.492708
 21
123.071736
 31
0.0
  0
LINE
  5
314
100
AcDbEntity
  8
Layer_1
 62
7
100
AcDbLine
 10
47.492708
 20
123.071736
 30
0.0
 11
47.977778
 21
123.062917
 31
0.0
  0
LINE
  5
315
100
AcDbEntity
  8
Layer_1
 62
7
100
AcDbLine
 10
47.977778
 20
123.062917
 30
0.0
 11
48.454028
 21
123.045278
 31
0.0
  0
LINE
  5
316
100
AcDbEntity
  8
Layer_1
 62
7
100
AcDbLine
 10
48.454028
 20
123.045278
 30
0.0
 11
48.939097
 21
123.036458
 31
0.0
  0
LINE
  5
317
100
AcDbEntity
  8
Layer_1
 62
7
100
AcDbLine
 10
48.939097
 20
123.036458
 30
0.0
 11
49.424167
 21
123.027639
 31
0.0
  0
LINE
  5
318
100
AcDbEntity
  8
Layer_1
 62
7
100
AcDbLine
 10
49.424167
 20
123.027639
 30
0.0
 11
49.900417
 21
123.010000
 31
0.0
  0
LINE
  5
319
100
AcDbEntity
  8
Layer_1
 62
7
100
AcDbLine
 10
49.900417
 20
123.010000
 30
0.0
 11
49.918056
 21
119.614514
 31
0.0
  0
LINE
  5
31a
100
AcDbEntity
  8
Layer_1
 62
7
100
AcDbLine
 10
49.918056
 20
119.614514
 30
0.0
 11
49.926875
 21
116.219028
 31
0.0
  0
LINE
  5
31b
100
AcDbEntity
  8
Layer_1
 62
7
100
AcDbLine
 10
49.926875
 20
116.219028
 30
0.0
 11
49.935694
 21
112.823542
 31
0.0
  0
LINE
  5
31c
100
AcDbEntity
  8
Layer_1
 62
7
100
AcDbLine
 10
49.935694
 20
112.823542
 30
0.0
 11
49.953333
 21
109.428056
 31
0.0
  0
LINE
  5
31d
100
AcDbEntity
  8
Layer_1
 62
7
100
AcDbLine
 10
49.953333
 20
109.428056
 30
0.0
 11
49.962153
 21
106.032569
 31
0.0
  0
LINE
  5
31e
100
AcDbEntity
  8
Layer_1
 62
7
100
AcDbLine
 10
49.962153
 20
106.032569
 30
0.0
 11
49.970972
 21
102.637083
 31
0.0
  0
LINE
  5
31f
100
AcDbEntity
  8
Layer_1
 62
7
100
AcDbLine
 10
49.970972
 20
102.637083
 30
0.0
 11
49.988611
 21
99.241597
 31
0.0
  0
LINE
  5
320
100
AcDbEntity
  8
Layer_1
 62
7
100
AcDbLine
 10
49.988611
 20
99.241597
 30
0.0
 11
49.997431
 21
95.846111
 31
0.0
  0
LINE
  5
321
100
AcDbEntity
  8
Layer_1
 62
7
100
AcDbLine
 10
49.997431
 20
95.846111
 30
0.0
 11
49.503542
 21
95.846111
 31
0.0
  0
LINE
  5
322
100
AcDbEntity
  8
Layer_1
 62
7
100
AcDbLine
 10
49.503542
 20
95.846111
 30
0.0
 11
49.009653
 21
95.846111
 31
0.0
  0
LINE
  5
323
100
AcDbEntity
  8
Layer_1
 62
7
100
AcDbLine
 10
49.009653
 20
95.846111
 30
0.0
 11
48.515764
 21
95.846111
 31
0.0
  0
LINE
  5
324
100
AcDbEntity
  8
Layer_1
 62
7
100
AcDbLine
 10
48.515764
 20
95.846111
 30
0.0
 11
48.021875
 21
95.846111
 31
0.0
  0
LINE
  5
325
100
AcDbEntity
  8
Layer_1
 62
7
100
AcDbLine
 10
48.021875
 20
95.846111
 30
0.0
 11
47.527986
 21
95.846111
 31
0.0
  0
LINE
  5
326
100
AcDbEntity
  8
Layer_1
 62
7
100
AcDbLine
 10
47.527986
 20
95.846111
 30
0.0
 11
47.034097
 21
95.846111
 31
0.0
  0
LINE
  5
327
100
AcDbEntity
  8
Layer_1
 62
7
100
AcDbLine
 10
47.034097
 20
95.846111
 30
0.0
 11
46.540208
 21
95.846111
 31
0.0
  0
LINE
  5
328
100
AcDbEntity
  8
Layer_1
 62
7
100
AcDbLine
 10
46.540208
 20
95.846111
 30
0.0
 11
46.046319
 21
95.846111
 31
0.0
  0
LINE
  5
329
100
AcDbEntity
  8
Layer_1
 62
7
100
AcDbLine
 10
46.046319
 20
95.846111
 30
0.0
 11
46.046319
 21
95.264028
 31
0.0
  0
LINE
  5
32a
100
AcDbEntity
  8
Layer_1
 62
7
100
AcDbLine
 10
46.046319
 20
95.264028
 30
0.0
 11
46.046319
 21
94.690764
 31
0.0
  0
LINE
  5
32b
100
AcDbEntity
  8
Layer_1
 62
7
100
AcDbLine
 10
46.046319
 20
94.690764
 30
0.0
 11
46.046319
 21
94.108681
 31
0.0
  0
LINE
  5
32c
100
AcDbEntity
  8
Layer_1
 62
7
100
AcDbLine
 10
46.046319
 20
94.108681
 30
0.0
 11
46.046319
 21
93.526597
 31
0.0
  0
LINE
  5
32d
100
AcDbEntity
  8
Layer_1
 62
7
100
AcDbLine
 10
46.046319
 20
93.526597
 30
0.0
 11
46.046319
 21
92.953333
 31
0.0
  0
LINE
  5
32e
100
AcDbEntity
  8
Layer_1
 62
7
100
AcDbLine
 10
46.046319
 20
92.953333
 30
0.0
 11
46.046319
 21
92.371250
 31
0.0
  0
LINE
  5
32f
100
AcDbEntity
  8
Layer_1
 62
7
100
AcDbLine
 10
46.046319
 20
92.371250
 30
0.0
 11
46.046319
 21
91.797986
 31
0.0
  0
LINE
  5
330
100
AcDbEntity
  8
Layer_1
 62
7
100
AcDbLine
 10
46.046319
 20
91.797986
 30
0.0
 11
46.046319
 21
91.215903
 31
0.0
  0
LINE
  5
331
100
AcDbEntity
  8
Layer_1
 62
7
100
AcDbLine
 10
46.046319
 20
91.215903
 30
0.0
 11
47.704375
 21
91.215903
 31
0.0
  0
LINE
  5
332
100
AcDbEntity
  8
Layer_1
 62
7
100
AcDbLine
 10
47.704375
 20
91.215903
 30
0.0
 11
49.362431
 21
91.215903
 31
0.0
  0
LINE
  5
333
100
AcDbEntity
  8
Layer_1
 62
7
100
AcDbLine
 10
49.362431
 20
91.215903
 30
0.0
 11
51.029306
 21
91.215903
 31
0.0
  0
LINE
  5
334
100
AcDbEntity
  8
Layer_1
 62
7
100
AcDbLine
 10
51.029306
 20
91.215903
 30
0.0
 11
52.687361
 21
91.215903
 31
0.0
  0
LINE
  5
335
100
AcDbEntity
  8
Layer_1
 62
7
100
AcDbLine
 10
52.687361
 20
91.215903
 30
0.0
 11
54.345417
 21
91.215903
 31
0.0
  0
LINE
  5
336
100
AcDbEntity
  8
Layer_1
 62
7
100
AcDbLine
 10
54.345417
 20
91.215903
 30
0.0
 11
56.003472
 21
91.215903
 31
0.0
  0
LINE
  5
337
100
AcDbEntity
  8
Layer_1
 62
7
100
AcDbLine
 10
56.003472
 20
91.215903
 30
0.0
 11
57.661528
 21
91.215903
 31
0.0
  0
LINE
  5
338
100
AcDbEntity
  8
Layer_1
 62
7
100
AcDbLine
 10
57.661528
 20
91.215903
 30
0.0
 11
59.319583
 21
91.215903
 31
0.0
  0
LINE
  5
339
100
AcDbEntity
  8
Layer_1
 62
7
100
AcDbLine
 10
59.319583
 20
91.215903
 30
0.0
 11
59.319583
 21
91.797986
 31
0.0
  0
LINE
  5
33a
100
AcDbEntity
  8
Layer_1
 62
7
100
AcDbLine
 10
59.319583
 20
91.797986
 30
0.0
 11
59.319583
 21
92.371250
 31
0.0
  0
LINE
  5
33b
100
AcDbEntity
  8
Layer_1
 62
7
100
AcDbLine
 10
59.319583
 20
92.371250
 30
0.0
 11
59.319583
 21
92.953333
 31
0.0
  0
LINE
  5
33c
100
AcDbEntity
  8
Layer_1
 62
7
100
AcDbLine
 10
59.319583
 20
92.953333
 30
0.0
 11
59.319583
 21
93.526597
 31
0.0
  0
LINE
  5
33d
100
AcDbEntity
  8
Layer_1
 62
7
100
AcDbLine
 10
59.319583
 20
93.526597
 30
0.0
 11
59.319583
 21
94.108681
 31
0.0
  0
LINE
  5
33e
100
AcDbEntity
  8
Layer_1
 62
7
100
AcDbLine
 10
59.319583
 20
94.108681
 30
0.0
 11
59.319583
 21
94.690764
 31
0.0
  0
LINE
  5
33f
100
AcDbEntity
  8
Layer_1
 62
7
100
AcDbLine
 10
59.319583
 20
94.690764
 30
0.0
 11
59.319583
 21
95.264028
 31
0.0
  0
LINE
  5
340
100
AcDbEntity
  8
Layer_1
 62
7
100
AcDbLine
 10
59.319583
 20
95.264028
 30
0.0
 11
59.319583
 21
95.846111
 31
0.0
  0
LINE
  5
341
100
AcDbEntity
  8
Layer_1
 62
7
100
AcDbLine
 10
59.319583
 20
95.846111
 30
0.0
 11
58.825694
 21
95.846111
 31
0.0
  0
LINE
  5
342
100
AcDbEntity
  8
Layer_1
 62
7
100
AcDbLine
 10
58.825694
 20
95.846111
 30
0.0
 11
58.331806
 21
95.846111
 31
0.0
  0
LINE
  5
343
100
AcDbEntity
  8
Layer_1
 62
7
100
AcDbLine
 10
58.331806
 20
95.846111
 30
0.0
 11
57.837917
 21
95.846111
 31
0.0
  0
LINE
  5
344
100
AcDbEntity
  8
Layer_1
 62
7
100
AcDbLine
 10
57.837917
 20
95.846111
 30
0.0
 11
57.344028
 21
95.846111
 31
0.0
  0
LINE
  5
345
100
AcDbEntity
  8
Layer_1
 62
7
100
AcDbLine
 10
57.344028
 20
95.846111
 30
0.0
 11
56.858958
 21
95.846111
 31
0.0
  0
LINE
  5
346
100
AcDbEntity
  8
Layer_1
 62
7
100
AcDbLine
 10
56.858958
 20
95.846111
 30
0.0
 11
56.365069
 21
95.846111
 31
0.0
  0
LINE
  5
347
100
AcDbEntity
  8
Layer_1
 62
7
100
AcDbLine
 10
56.365069
 20
95.846111
 30
0.0
 11
55.871181
 21
95.846111
 31
0.0
  0
LINE
  5
348
100
AcDbEntity
  8
Layer_1
 62
7
100
AcDbLine
 10
55.871181
 20
95.846111
 30
0.0
 11
55.377292
 21
95.846111
 31
0.0
  0
LINE
  5
349
100
AcDbEntity
  8
Layer_1
 62
7
100
AcDbLine
 10
55.377292
 20
95.846111
 30
0.0
 11
55.377292
 21
99.250417
 31
0.0
  0
LINE
  5
34a
100
AcDbEntity
  8
Layer_1
 62
7
100
AcDbLine
 10
55.377292
 20
99.250417
 30
0.0
 11
55.377292
 21
102.663542
 31
0.0
  0
LINE
  5
34b
100
AcDbEntity
  8
Layer_1
 62
7
100
AcDbLine
 10
55.377292
 20
102.663542
 30
0.0
 11
55.377292
 21
106.067847
 31
0.0
  0
LINE
  5
34c
100
AcDbEntity
  8
Layer_1
 62
7
100
AcDbLine
 10
55.377292
 20
106.067847
 30
0.0
 11
55.377292
 21
109.472153
 31
0.0
  0
LINE
  5
34d
100
AcDbEntity
  8
Layer_1
 62
7
100
AcDbLine
 10
55.377292
 20
109.472153
 30
0.0
 11
55.377292
 21
112.876458
 31
0.0
  0
LINE
  5
34e
100
AcDbEntity
  8
Layer_1
 62
7
100
AcDbLine
 10
55.377292
 20
112.876458
 30
0.0
 11
55.377292
 21
116.289583
 31
0.0
  0
LINE
  5
34f
100
AcDbEntity
  8
Layer_1
 62
7
100
AcDbLine
 10
55.377292
 20
116.289583
 30
0.0
 11
55.377292
 21
119.693889
 31
0.0
  0
LINE
  5
350
100
AcDbEntity
  8
Layer_1
 62
7
100
AcDbLine
 10
55.377292
 20
119.693889
 30
0.0
 11
55.377292
 21
123.098194
 31
0.0
  0
LINE
  5
351
100
AcDbEntity
  8
Layer_1
 62
7
100
AcDbLine
 10
55.377292
 20
123.098194
 30
0.0
 11
55.871181
 21
123.098194
 31
0.0
  0
LINE
  5
352
100
AcDbEntity
  8
Layer_1
 62
7
100
AcDbLine
 10
55.871181
 20
123.098194
 30
0.0
 11
56.365069
 21
123.098194
 31
0.0
  0
LINE
  5
353
100
AcDbEntity
  8
Layer_1
 62
7
100
AcDbLine
 10
56.365069
 20
123.098194
 30
0.0
 11
56.858958
 21
123.098194
 31
0.0
  0
LINE
  5
354
100
AcDbEntity
  8
Layer_1
 62
7
100
AcDbLine
 10
56.858958
 20
123.098194
 30
0.0
 11
57.344028
 21
123.098194
 31
0.0
  0
LINE
  5
355
100
AcDbEntity
  8
Layer_1
 62
7
100
AcDbLine
 10
57.344028
 20
123.098194
 30
0.0
 11
57.837917
 21
123.098194
 31
0.0
  0
LINE
  5
356
100
AcDbEntity
  8
Layer_1
 62
7
100
AcDbLine
 10
57.837917
 20
123.098194
 30
0.0
 11
58.331806
 21
123.098194
 31
0.0
  0
LINE
  5
357
100
AcDbEntity
  8
Layer_1
 62
7
100
AcDbLine
 10
58.331806
 20
123.098194
 30
0.0
 11
58.825694
 21
123.098194
 31
0.0
  0
LINE
  5
358
100
AcDbEntity
  8
Layer_1
 62
7
100
AcDbLine
 10
58.825694
 20
123.098194
 30
0.0
 11
59.319583
 21
123.098194
 31
0.0
  0
LINE
  5
359
100
AcDbEntity
  8
Layer_1
 62
7
100
AcDbLine
 10
59.319583
 20
123.098194
 30
0.0
 11
59.319583
 21
123.653819
 31
0.0
  0
LINE
  5
35a
100
AcDbEntity
  8
Layer_1
 62
7
100
AcDbLine
 10
59.319583
 20
123.653819
 30
0.0
 11
59.319583
 21
124.218264
 31
0.0
  0
LINE
  5
35b
100
AcDbEntity
  8
Layer_1
 62
7
100
AcDbLine
 10
59.319583
 20
124.218264
 30
0.0
 11
59.319583
 21
124.773889
 31
0.0
  0
LINE
  5
35c
100
AcDbEntity
  8
Layer_1
 62
7
100
AcDbLine
 10
59.319583
 20
124.773889
 30
0.0
 11
59.319583
 21
125.329514
 31
0.0
  0
LINE
  5
35d
100
AcDbEntity
  8
Layer_1
 62
7
100
AcDbLine
 10
59.319583
 20
125.329514
 30
0.0
 11
59.319583
 21
125.885139
 31
0.0
  0
LINE
  5
35e
100
AcDbEntity
  8
Layer_1
 62
7
100
AcDbLine
 10
59.319583
 20
125.885139
 30
0.0
 11
59.319583
 21
126.440764
 31
0.0
  0
LINE
  5
35f
100
AcDbEntity
  8
Layer_1
 62
7
100
AcDbLine
 10
59.319583
 20
126.440764
 30
0.0
 11
59.319583
 21
126.996389
 31
0.0
  0
LINE
  5
360
100
AcDbEntity
  8
Layer_1
 62
7
100
AcDbLine
 10
59.319583
 20
126.996389
 30
0.0
 11
59.319583
 21
127.552014
 31
0.0
  0
LINE
  5
361
100
AcDbEntity
  8
Layer_1
 62
7
100
AcDbLine
 10
59.319583
 20
127.552014
 30
0.0
 11
57.661528
 21
127.552014
 31
0.0
  0
LINE
  5
362
100
AcDbEntity
  8
Layer_1
 62
7
100
AcDbLine
 10
57.661528
 20
127.552014
 30
0.0
 11
56.003472
 21
127.552014
 31
0.0
  0
LINE
  5
363
100
AcDbEntity
  8
Layer_1
 62
7
100
AcDbLine
 10
56.003472
 20
127.552014
 30
0.0
 11
54.345417
 21
127.552014
 31
0.0
  0
LINE
  5
364
100
AcDbEntity
  8
Layer_1
 62
7
100
AcDbLine
 10
54.345417
 20
127.552014
 30
0.0
 11
52.687361
 21
127.552014
 31
0.0
  0
LINE
  5
365
100
AcDbEntity
  8
Layer_1
 62
7
100
AcDbLine
 10
52.687361
 20
127.552014
 30
0.0
 11
51.029306
 21
127.552014
 31
0.0
  0
LINE
  5
366
100
AcDbEntity
  8
Layer_1
 62
7
100
AcDbLine
 10
51.029306
 20
127.552014
 30
0.0
 11
49.362431
 21
127.552014
 31
0.0
  0
LINE
  5
367
100
AcDbEntity
  8
Layer_1
 62
7
100
AcDbLine
 10
49.362431
 20
127.552014
 30
0.0
 11
47.704375
 21
127.552014
 31
0.0
  0
LINE
  5
368
100
AcDbEntity
  8
Layer_1
 62
7
100
AcDbLine
 10
47.704375
 20
127.552014
 30
0.0
 11
46.046319
 21
127.552014
 31
0.0
  0
LINE
  5
369
100
AcDbEntity
  8
Layer_1
 62
7
100
AcDbLine
 10
46.046319
 20
127.552014
 30
0.0
 11
46.046319
 21
127.552014
 31
0.0
  0
LINE
  5
36a
100
AcDbEntity
  8
Layer_1
 62
7
100
AcDbLine
 10
106.142014
 20
127.552014
 30
0.0
 11
106.142014
 21
126.996389
 31
0.0
  0
LINE
  5
36b
100
AcDbEntity
  8
Layer_1
 62
7
100
AcDbLine
 10
106.142014
 20
126.996389
 30
0.0
 11
106.142014
 21
126.440764
 31
0.0
  0
LINE
  5
36c
100
AcDbEntity
  8
Layer_1
 62
7
100
AcDbLine
 10
106.142014
 20
126.440764
 30
0.0
 11
106.142014
 21
125.885139
 31
0.0
  0
LINE
  5
36d
100
AcDbEntity
  8
Layer_1
 62
7
100
AcDbLine
 10
106.142014
 20
125.885139
 30
0.0
 11
106.142014
 21
125.329514
 31
0.0
  0
LINE
  5
36e
100
AcDbEntity
  8
Layer_1
 62
7
100
AcDbLine
 10
106.142014
 20
125.329514
 30
0.0
 11
106.142014
 21
124.773889
 31
0.0
  0
LINE
  5
36f
100
AcDbEntity
  8
Layer_1
 62
7
100
AcDbLine
 10
106.142014
 20
124.773889
 30
0.0
 11
106.142014
 21
124.218264
 31
0.0
  0
LINE
  5
370
100
AcDbEntity
  8
Layer_1
 62
7
100
AcDbLine
 10
106.142014
 20
124.218264
 30
0.0
 11
106.142014
 21
123.653819
 31
0.0
  0
LINE
  5
371
100
AcDbEntity
  8
Layer_1
 62
7
100
AcDbLine
 10
106.142014
 20
123.653819
 30
0.0
 11
106.142014
 21
123.098194
 31
0.0
  0
LINE
  5
372
100
AcDbEntity
  8
Layer_1
 62
7
100
AcDbLine
 10
106.142014
 20
123.098194
 30
0.0
 11
106.724097
 21
123.098194
 31
0.0
  0
LINE
  5
373
100
AcDbEntity
  8
Layer_1
 62
7
100
AcDbLine
 10
106.724097
 20
123.098194
 30
0.0
 11
107.306181
 21
123.098194
 31
0.0
  0
LINE
  5
374
100
AcDbEntity
  8
Layer_1
 62
7
100
AcDbLine
 10
107.306181
 20
123.098194
 30
0.0
 11
107.888264
 21
123.098194
 31
0.0
  0
LINE
  5
375
100
AcDbEntity
  8
Layer_1
 62
7
100
AcDbLine
 10
107.888264
 20
123.098194
 30
0.0
 11
108.470347
 21
123.098194
 31
0.0
  0
LINE
  5
376
100
AcDbEntity
  8
Layer_1
 62
7
100
AcDbLine
 10
108.470347
 20
123.098194
 30
0.0
 11
109.052431
 21
123.098194
 31
0.0
  0
LINE
  5
377
100
AcDbEntity
  8
Layer_1
 62
7
100
AcDbLine
 10
109.052431
 20
123.098194
 30
0.0
 11
109.634514
 21
123.098194
 31
0.0
  0
LINE
  5
378
100
AcDbEntity
  8
Layer_1
 62
7
100
AcDbLine
 10
109.634514
 20
123.098194
 30
0.0
 11
110.225417
 21
123.098194
 31
0.0
  0
LINE
  5
379
100
AcDbEntity
  8
Layer_1
 62
7
100
AcDbLine
 10
110.225417
 20
123.098194
 30
0.0
 11
110.807500
 21
123.098194
 31
0.0
  0
LINE
  5
37a
100
AcDbEntity
  8
Layer_1
 62
7
100
AcDbLine
 10
110.807500
 20
123.098194
 30
0.0
 11
110.807500
 21
119.693889
 31
0.0
  0
LINE
  5
37b
100
AcDbEntity
  8
Layer_1
 62
7
100
AcDbLine
 10
110.807500
 20
119.693889
 30
0.0
 11
110.807500
 21
116.289583
 31
0.0
  0
LINE
  5
37c
100
AcDbEntity
  8
Layer_1
 62
7
100
AcDbLine
 10
110.807500
 20
116.289583
 30
0.0
 11
110.807500
 21
112.876458
 31
0.0
  0
LINE
  5
37d
100
AcDbEntity
  8
Layer_1
 62
7
100
AcDbLine
 10
110.807500
 20
112.876458
 30
0.0
 11
110.807500
 21
109.472153
 31
0.0
  0
LINE
  5
37e
100
AcDbEntity
  8
Layer_1
 62
7
100
AcDbLine
 10
110.807500
 20
109.472153
 30
0.0
 11
110.807500
 21
106.067847
 31
0.0
  0
LINE
  5
37f
100
AcDbEntity
  8
Layer_1
 62
7
100
AcDbLine
 10
110.807500
 20
106.067847
 30
0.0
 11
110.807500
 21
102.663542
 31
0.0
  0
LINE
  5
380
100
AcDbEntity
  8
Layer_1
 62
7
100
AcDbLine
 10
110.807500
 20
102.663542
 30
0.0
 11
110.807500
 21
99.250417
 31
0.0
  0
LINE
  5
381
100
AcDbEntity
  8
Layer_1
 62
7
100
AcDbLine
 10
110.807500
 20
99.250417
 30
0.0
 11
110.807500
 21
95.846111
 31
0.0
  0
LINE
  5
382
100
AcDbEntity
  8
Layer_1
 62
7
100
AcDbLine
 10
110.807500
 20
95.846111
 30
0.0
 11
110.225417
 21
95.846111
 31
0.0
  0
LINE
  5
383
100
AcDbEntity
  8
Layer_1
 62
7
100
AcDbLine
 10
110.225417
 20
95.846111
 30
0.0
 11
109.634514
 21
95.846111
 31
0.0
  0
LINE
  5
384
100
AcDbEntity
  8
Layer_1
 62
7
100
AcDbLine
 10
109.634514
 20
95.846111
 30
0.0
 11
109.052431
 21
95.846111
 31
0.0
  0
LINE
  5
385
100
AcDbEntity
  8
Layer_1
 62
7
100
AcDbLine
 10
109.052431
 20
95.846111
 30
0.0
 11
108.470347
 21
95.846111
 31
0.0
  0
LINE
  5
386
100
AcDbEntity
  8
Layer_1
 62
7
100
AcDbLine
 10
108.470347
 20
95.846111
 30
0.0
 11
107.888264
 21
95.846111
 31
0.0
  0
LINE
  5
387
100
AcDbEntity
  8
Layer_1
 62
7
100
AcDbLine
 10
107.888264
 20
95.846111
 30
0.0
 11
107.306181
 21
95.846111
 31
0.0
  0
LINE
  5
388
100
AcDbEntity
  8
Layer_1
 62
7
100
AcDbLine
 10
107.306181
 20
95.846111
 30
0.0
 11
106.724097
 21
95.846111
 31
0.0
  0
LINE
  5
389
100
AcDbEntity
  8
Layer_1
 62
7
100
AcDbLine
 10
106.724097
 20
95.846111
 30
0.0
 11
106.142014
 21
95.846111
 31
0.0
  0
LINE
  5
38a
100
AcDbEntity
  8
Layer_1
 62
7
100
AcDbLine
 10
106.142014
 20
95.846111
 30
0.0
 11
106.142014
 21
95.264028
 31
0.0
  0
LINE
  5
38b
100
AcDbEntity
  8
Layer_1
 62
7
100
AcDbLine
 10
106.142014
 20
95.264028
 30
0.0
 11
106.142014
 21
94.690764
 31
0.0
  0
LINE
  5
38c
100
AcDbEntity
  8
Layer_1
 62
7
100
AcDbLine
 10
106.142014
 20
94.690764
 30
0.0
 11
106.142014
 21
94.108681
 31
0.0
  0
LINE
  5
38d
100
AcDbEntity
  8
Layer_1
 62
7
100
AcDbLine
 10
106.142014
 20
94.108681
 30
0.0
 11
106.142014
 21
93.526597
 31
0.0
  0
LINE
  5
38e
100
AcDbEntity
  8
Layer_1
 62
7
100
AcDbLine
 10
106.142014
 20
93.526597
 30
0.0
 11
106.142014
 21
92.953333
 31
0.0
  0
LINE
  5
38f
100
AcDbEntity
  8
Layer_1
 62
7
100
AcDbLine
 10
106.142014
 20
92.953333
 30
0.0
 11
106.142014
 21
92.371250
 31
0.0
  0
LINE
  5
390
100
AcDbEntity
  8
Layer_1
 62
7
100
AcDbLine
 10
106.142014
 20
92.371250
 30
0.0
 11
106.142014
 21
91.797986
 31
0.0
  0
LINE
  5
391
100
AcDbEntity
  8
Layer_1
 62
7
100
AcDbLine
 10
106.142014
 20
91.797986
 30
0.0
 11
106.142014
 21
91.215903
 31
0.0
  0
LINE
  5
392
100
AcDbEntity
  8
Layer_1
 62
7
100
AcDbLine
 10
106.142014
 20
91.215903
 30
0.0
 11
109.934375
 21
91.215903
 31
0.0
  0
LINE
  5
393
100
AcDbEntity
  8
Layer_1
 62
7
100
AcDbLine
 10
109.934375
 20
91.215903
 30
0.0
 11
113.717917
 21
91.215903
 31
0.0
  0
LINE
  5
394
100
AcDbEntity
  8
Layer_1
 62
7
100
AcDbLine
 10
113.717917
 20
91.215903
 30
0.0
 11
117.510278
 21
91.215903
 31
0.0
  0
LINE
  5
395
100
AcDbEntity
  8
Layer_1
 62
7
100
AcDbLine
 10
117.510278
 20
91.215903
 30
0.0
 11
121.302639
 21
91.215903
 31
0.0
  0
LINE
  5
396
100
AcDbEntity
  8
Layer_1
 62
7
100
AcDbLine
 10
121.302639
 20
91.215903
 30
0.0
 11
125.086181
 21
91.215903
 31
0.0
  0
LINE
  5
397
100
AcDbEntity
  8
Layer_1
 62
7
100
AcDbLine
 10
125.086181
 20
91.215903
 30
0.0
 11
128.878542
 21
91.215903
 31
0.0
  0
LINE
  5
398
100
AcDbEntity
  8
Layer_1
 62
7
100
AcDbLine
 10
128.878542
 20
91.215903
 30
0.0
 11
132.670903
 21
91.215903
 31
0.0
  0
LINE
  5
399
100
AcDbEntity
  8
Layer_1
 62
7
100
AcDbLine
 10
132.670903
 20
91.215903
 30
0.0
 11
136.454444
 21
91.215903
 31
0.0
  0
LINE
  5
39a
100
AcDbEntity
  8
Layer_1
 62
7
100
AcDbLine
 10
136.454444
 20
91.215903
 30
0.0
 11
136.454444
 21
92.618194
 31
0.0
  0
LINE
  5
39b
100
AcDbEntity
  8
Layer_1
 62
7
100
AcDbLine
 10
136.454444
 20
92.618194
 30
0.0
 11
136.454444
 21
94.020486
 31
0.0
  0
LINE
  5
39c
100
AcDbEntity
  8
Layer_1
 62
7
100
AcDbLine
 10
136.454444
 20
94.020486
 30
0.0
 11
136.454444
 21
95.422778
 31
0.0
  0
LINE
  5
39d
100
AcDbEntity
  8
Layer_1
 62
7
100
AcDbLine
 10
136.454444
 20
95.422778
 30
0.0
 11
136.454444
 21
96.825069
 31
0.0
  0
LINE
  5
39e
100
AcDbEntity
  8
Layer_1
 62
7
100
AcDbLine
 10
136.454444
 20
96.825069
 30
0.0
 11
136.454444
 21
98.227361
 31
0.0
  0
LINE
  5
39f
100
AcDbEntity
  8
Layer_1
 62
7
100
AcDbLine
 10
136.454444
 20
98.227361
 30
0.0
 11
136.454444
 21
99.629653
 31
0.0
  0
LINE
  5
3a0
100
AcDbEntity
  8
Layer_1
 62
7
100
AcDbLine
 10
136.454444
 20
99.629653
 30
0.0
 11
136.454444
 21
101.031944
 31
0.0
  0
LINE
  5
3a1
100
AcDbEntity
  8
Layer_1
 62
7
100
AcDbLine
 10
136.454444
 20
101.031944
 30
0.0
 11
136.454444
 21
102.434236
 31
0.0
  0
LINE
  5
3a2
100
AcDbEntity
  8
Layer_1
 62
7
100
AcDbLine
 10
136.454444
 20
102.434236
 30
0.0
 11
135.898819
 21
102.434236
 31
0.0
  0
LINE
  5
3a3
100
AcDbEntity
  8
Layer_1
 62
7
100
AcDbLine
 10
135.898819
 20
102.434236
 30
0.0
 11
135.334375
 21
102.434236
 31
0.0
  0
LINE
  5
3a4
100
AcDbEntity
  8
Layer_1
 62
7
100
AcDbLine
 10
135.334375
 20
102.434236
 30
0.0
 11
134.778750
 21
102.434236
 31
0.0
  0
LINE
  5
3a5
100
AcDbEntity
  8
Layer_1
 62
7
100
AcDbLine
 10
134.778750
 20
102.434236
 30
0.0
 11
134.214306
 21
102.434236
 31
0.0
  0
LINE
  5
3a6
100
AcDbEntity
  8
Layer_1
 62
7
100
AcDbLine
 10
134.214306
 20
102.434236
 30
0.0
 11
133.649861
 21
102.434236
 31
0.0
  0
LINE
  5
3a7
100
AcDbEntity
  8
Layer_1
 62
7
100
AcDbLine
 10
133.649861
 20
102.434236
 30
0.0
 11
133.094236
 21
102.434236
 31
0.0
  0
LINE
  5
3a8
100
AcDbEntity
  8
Layer_1
 62
7
100
AcDbLine
 10
133.094236
 20
102.434236
 30
0.0
 11
132.529792
 21
102.434236
 31
0.0
  0
LINE
  5
3a9
100
AcDbEntity
  8
Layer_1
 62
7
100
AcDbLine
 10
132.529792
 20
102.434236
 30
0.0
 11
131.974167
 21
102.434236
 31
0.0
  0
LINE
  5
3aa
100
AcDbEntity
  8
Layer_1
 62
7
100
AcDbLine
 10
131.974167
 20
102.434236
 30
0.0
 11
131.974167
 21
101.614028
 31
0.0
  0
LINE
  5
3ab
100
AcDbEntity
  8
Layer_1
 62
7
100
AcDbLine
 10
131.974167
 20
101.614028
 30
0.0
 11
131.974167
 21
100.793819
 31
0.0
  0
LINE
  5
3ac
100
AcDbEntity
  8
Layer_1
 62
7
100
AcDbLine
 10
131.974167
 20
100.793819
 30
0.0
 11
131.974167
 21
99.964792
 31
0.0
  0
LINE
  5
3ad
100
AcDbEntity
  8
Layer_1
 62
7
100
AcDbLine
 10
131.974167
 20
99.964792
 30
0.0
 11
131.974167
 21
99.144583
 31
0.0
  0
LINE
  5
3ae
100
AcDbEntity
  8
Layer_1
 62
7
100
AcDbLine
 10
131.974167
 20
99.144583
 30
0.0
 11
131.974167
 21
98.315556
 31
0.0
  0
LINE
  5
3af
100
AcDbEntity
  8
Layer_1
 62
7
100
AcDbLine
 10
131.974167
 20
98.315556
 30
0.0
 11
131.974167
 21
97.495347
 31
0.0
  0
LINE
  5
3b0
100
AcDbEntity
  8
Layer_1
 62
7
100
AcDbLine
 10
131.974167
 20
97.495347
 30
0.0
 11
131.974167
 21
96.666319
 31
0.0
  0
LINE
  5
3b1
100
AcDbEntity
  8
Layer_1
 62
7
100
AcDbLine
 10
131.974167
 20
96.666319
 30
0.0
 11
131.974167
 21
95.846111
 31
0.0
  0
LINE
  5
3b2
100
AcDbEntity
  8
Layer_1
 62
7
100
AcDbLine
 10
131.974167
 20
95.846111
 30
0.0
 11
130.025069
 21
95.846111
 31
0.0
  0
LINE
  5
3b3
100
AcDbEntity
  8
Layer_1
 62
7
100
AcDbLine
 10
130.025069
 20
95.846111
 30
0.0
 11
128.067153
 21
95.846111
 31
0.0
  0
LINE
  5
3b4
100
AcDbEntity
  8
Layer_1
 62
7
100
AcDbLine
 10
128.067153
 20
95.846111
 30
0.0
 11
126.118056
 21
95.846111
 31
0.0
  0
LINE
  5
3b5
100
AcDbEntity
  8
Layer_1
 62
7
100
AcDbLine
 10
126.118056
 20
95.846111
 30
0.0
 11
124.168958
 21
95.846111
 31
0.0
  0
LINE
  5
3b6
100
AcDbEntity
  8
Layer_1
 62
7
100
AcDbLine
 10
124.168958
 20
95.846111
 30
0.0
 11
122.219861
 21
95.846111
 31
0.0
  0
LINE
  5
3b7
100
AcDbEntity
  8
Layer_1
 62
7
100
AcDbLine
 10
122.219861
 20
95.846111
 30
0.0
 11
120.270764
 21
95.846111
 31
0.0
  0
LINE
  5
3b8
100
AcDbEntity
  8
Layer_1
 62
7
100
AcDbLine
 10
120.270764
 20
95.846111
 30
0.0
 11
118.312847
 21
95.846111
 31
0.0
  0
LINE
  5
3b9
100
AcDbEntity
  8
Layer_1
 62
7
100
AcDbLine
 10
118.312847
 20
95.846111
 30
0.0
 11
116.363750
 21
95.846111
 31
0.0
  0
LINE
  5
3ba
100
AcDbEntity
  8
Layer_1
 62
7
100
AcDbLine
 10
116.363750
 20
95.846111
 30
0.0
 11
116.363750
 21
97.336597
 31
0.0
  0
LINE
  5
3bb
100
AcDbEntity
  8
Layer_1
 62
7
100
AcDbLine
 10
116.363750
 20
97.336597
 30
0.0
 11
116.363750
 21
98.827083
 31
0.0
  0
LINE
  5
3bc
100
AcDbEntity
  8
Layer_1
 62
7
100
AcDbLine
 10
116.363750
 20
98.827083
 30
0.0
 11
116.363750
 21
100.317569
 31
0.0
  0
LINE
  5
3bd
100
AcDbEntity
  8
Layer_1
 62
7
100
AcDbLine
 10
116.363750
 20
100.317569
 30
0.0
 11
116.363750
 21
101.816875
 31
0.0
  0
LINE
  5
3be
100
AcDbEntity
  8
Layer_1
 62
7
100
AcDbLine
 10
116.363750
 20
101.816875
 30
0.0
 11
116.363750
 21
103.307361
 31
0.0
  0
LINE
  5
3bf
100
AcDbEntity
  8
Layer_1
 62
7
100
AcDbLine
 10
116.363750
 20
103.307361
 30
0.0
 11
116.363750
 21
104.797847
 31
0.0
  0
LINE
  5
3c0
100
AcDbEntity
  8
Layer_1
 62
7
100
AcDbLine
 10
116.363750
 20
104.797847
 30
0.0
 11
116.363750
 21
106.288333
 31
0.0
  0
LINE
  5
3c1
100
AcDbEntity
  8
Layer_1
 62
7
100
AcDbLine
 10
116.363750
 20
106.288333
 30
0.0
 11
116.363750
 21
107.778819
 31
0.0
  0
LINE
  5
3c2
100
AcDbEntity
  8
Layer_1
 62
7
100
AcDbLine
 10
116.363750
 20
107.778819
 30
0.0
 11
118.074722
 21
107.778819
 31
0.0
  0
LINE
  5
3c3
100
AcDbEntity
  8
Layer_1
 62
7
100
AcDbLine
 10
118.074722
 20
107.778819
 30
0.0
 11
119.776875
 21
107.778819
 31
0.0
  0
LINE
  5
3c4
100
AcDbEntity
  8
Layer_1
 62
7
100
AcDbLine
 10
119.776875
 20
107.778819
 30
0.0
 11
121.479028
 21
107.778819
 31
0.0
  0
LINE
  5
3c5
100
AcDbEntity
  8
Layer_1
 62
7
100
AcDbLine
 10
121.479028
 20
107.778819
 30
0.0
 11
123.190000
 21
107.778819
 31
0.0
  0
LINE
  5
3c6
100
AcDbEntity
  8
Layer_1
 62
7
100
AcDbLine
 10
123.190000
 20
107.778819
 30
0.0
 11
124.892153
 21
107.778819
 31
0.0
  0
LINE
  5
3c7
100
AcDbEntity
  8
Layer_1
 62
7
100
AcDbLine
 10
124.892153
 20
107.778819
 30
0.0
 11
126.594306
 21
107.778819
 31
0.0
  0
LINE
  5
3c8
100
AcDbEntity
  8
Layer_1
 62
7
100
AcDbLine
 10
126.594306
 20
107.778819
 30
0.0
 11
128.305278
 21
107.778819
 31
0.0
  0
LINE
  5
3c9
100
AcDbEntity
  8
Layer_1
 62
7
100
AcDbLine
 10
128.305278
 20
107.778819
 30
0.0
 11
130.007431
 21
107.778819
 31
0.0
  0
LINE
  5
3ca
100
AcDbEntity
  8
Layer_1
 62
7
100
AcDbLine
 10
130.007431
 20
107.778819
 30
0.0
 11
129.998611
 21
108.325625
 31
0.0
  0
LINE
  5
3cb
100
AcDbEntity
  8
Layer_1
 62
7
100
AcDbLine
 10
129.998611
 20
108.325625
 30
0.0
 11
129.980972
 21
108.872431
 31
0.0
  0
LINE
  5
3cc
100
AcDbEntity
  8
Layer_1
 62
7
100
AcDbLine
 10
129.980972
 20
108.872431
 30
0.0
 11
129.972153
 21
109.419236
 31
0.0
  0
LINE
  5
3cd
100
AcDbEntity
  8
Layer_1
 62
7
100
AcDbLine
 10
129.972153
 20
109.419236
 30
0.0
 11
129.963333
 21
109.966042
 31
0.0
  0
LINE
  5
3ce
100
AcDbEntity
  8
Layer_1
 62
7
100
AcDbLine
 10
129.963333
 20
109.966042
 30
0.0
 11
129.945694
 21
110.512847
 31
0.0
  0
LINE
  5
3cf
100
AcDbEntity
  8
Layer_1
 62
7
100
AcDbLine
 10
129.945694
 20
110.512847
 30
0.0
 11
129.936875
 21
111.050833
 31
0.0
  0
LINE
  5
3d0
100
AcDbEntity
  8
Layer_1
 62
7
100
AcDbLine
 10
129.936875
 20
111.050833
 30
0.0
 11
129.919236
 21
111.597639
 31
0.0
  0
LINE
  5
3d1
100
AcDbEntity
  8
Layer_1
 62
7
100
AcDbLine
 10
129.919236
 20
111.597639
 30
0.0
 11
129.910417
 21
112.144444
 31
0.0
  0
LINE
  5
3d2
100
AcDbEntity
  8
Layer_1
 62
7
100
AcDbLine
 10
129.910417
 20
112.144444
 30
0.0
 11
128.217083
 21
112.153264
 31
0.0
  0
LINE
  5
3d3
100
AcDbEntity
  8
Layer_1
 62
7
100
AcDbLine
 10
128.217083
 20
112.153264
 30
0.0
 11
126.523750
 21
112.170903
 31
0.0
  0
LINE
  5
3d4
100
AcDbEntity
  8
Layer_1
 62
7
100
AcDbLine
 10
126.523750
 20
112.170903
 30
0.0
 11
124.830417
 21
112.179722
 31
0.0
  0
LINE
  5
3d5
100
AcDbEntity
  8
Layer_1
 62
7
100
AcDbLine
 10
124.830417
 20
112.179722
 30
0.0
 11
123.137083
 21
112.188542
 31
0.0
  0
LINE
  5
3d6
100
AcDbEntity
  8
Layer_1
 62
7
100
AcDbLine
 10
123.137083
 20
112.188542
 30
0.0
 11
121.443750
 21
112.206181
 31
0.0
  0
LINE
  5
3d7
100
AcDbEntity
  8
Layer_1
 62
7
100
AcDbLine
 10
121.443750
 20
112.206181
 30
0.0
 11
119.750417
 21
112.215000
 31
0.0
  0
LINE
  5
3d8
100
AcDbEntity
  8
Layer_1
 62
7
100
AcDbLine
 10
119.750417
 20
112.215000
 30
0.0
 11
118.057083
 21
112.223819
 31
0.0
  0
LINE
  5
3d9
100
AcDbEntity
  8
Layer_1
 62
7
100
AcDbLine
 10
118.057083
 20
112.223819
 30
0.0
 11
116.363750
 21
112.241458
 31
0.0
  0
LINE
  5
3da
100
AcDbEntity
  8
Layer_1
 62
7
100
AcDbLine
 10
116.363750
 20
112.241458
 30
0.0
 11
116.363750
 21
113.599653
 31
0.0
  0
LINE
  5
3db
100
AcDbEntity
  8
Layer_1
 62
7
100
AcDbLine
 10
116.363750
 20
113.599653
 30
0.0
 11
116.363750
 21
114.957847
 31
0.0
  0
LINE
  5
3dc
100
AcDbEntity
  8
Layer_1
 62
7
100
AcDbLine
 10
116.363750
 20
114.957847
 30
0.0
 11
116.363750
 21
116.316042
 31
0.0
  0
LINE
  5
3dd
100
AcDbEntity
  8
Layer_1
 62
7
100
AcDbLine
 10
116.363750
 20
116.316042
 30
0.0
 11
116.363750
 21
117.665417
 31
0.0
  0
LINE
  5
3de
100
AcDbEntity
  8
Layer_1
 62
7
100
AcDbLine
 10
116.363750
 20
117.665417
 30
0.0
 11
116.363750
 21
119.023611
 31
0.0
  0
LINE
  5
3df
100
AcDbEntity
  8
Layer_1
 62
7
100
AcDbLine
 10
116.363750
 20
119.023611
 30
0.0
 11
116.363750
 21
120.381806
 31
0.0
  0
LINE
  5
3e0
100
AcDbEntity
  8
Layer_1
 62
7
100
AcDbLine
 10
116.363750
 20
120.381806
 30
0.0
 11
116.363750
 21
121.740000
 31
0.0
  0
LINE
  5
3e1
100
AcDbEntity
  8
Layer_1
 62
7
100
AcDbLine
 10
116.363750
 20
121.740000
 30
0.0
 11
116.363750
 21
123.098194
 31
0.0
  0
LINE
  5
3e2
100
AcDbEntity
  8
Layer_1
 62
7
100
AcDbLine
 10
116.363750
 20
123.098194
 30
0.0
 11
118.312847
 21
123.098194
 31
0.0
  0
LINE
  5
3e3
100
AcDbEntity
  8
Layer_1
 62
7
100
AcDbLine
 10
118.312847
 20
123.098194
 30
0.0
 11
120.270764
 21
123.098194
 31
0.0
  0
LINE
  5
3e4
100
AcDbEntity
  8
Layer_1
 62
7
100
AcDbLine
 10
120.270764
 20
123.098194
 30
0.0
 11
122.219861
 21
123.098194
 31
0.0
  0
LINE
  5
3e5
100
AcDbEntity
  8
Layer_1
 62
7
100
AcDbLine
 10
122.219861
 20
123.098194
 30
0.0
 11
124.168958
 21
123.098194
 31
0.0
  0
LINE
  5
3e6
100
AcDbEntity
  8
Layer_1
 62
7
100
AcDbLine
 10
124.168958
 20
123.098194
 30
0.0
 11
126.118056
 21
123.098194
 31
0.0
  0
LINE
  5
3e7
100
AcDbEntity
  8
Layer_1
 62
7
100
AcDbLine
 10
126.118056
 20
123.098194
 30
0.0
 11
128.067153
 21
123.098194
 31
0.0
  0
LINE
  5
3e8
100
AcDbEntity
  8
Layer_1
 62
7
100
AcDbLine
 10
128.067153
 20
123.098194
 30
0.0
 11
130.025069
 21
123.098194
 31
0.0
  0
LINE
  5
3e9
100
AcDbEntity
  8
Layer_1
 62
7
100
AcDbLine
 10
130.025069
 20
123.098194
 30
0.0
 11
131.974167
 21
123.098194
 31
0.0
  0
LINE
  5
3ea
100
AcDbEntity
  8
Layer_1
 62
7
100
AcDbLine
 10
131.974167
 20
123.098194
 30
0.0
 11
131.974167
 21
122.295625
 31
0.0
  0
LINE
  5
3eb
100
AcDbEntity
  8
Layer_1
 62
7
100
AcDbLine
 10
131.974167
 20
122.295625
 30
0.0
 11
131.974167
 21
121.501875
 31
0.0
  0
LINE
  5
3ec
100
AcDbEntity
  8
Layer_1
 62
7
100
AcDbLine
 10
131.974167
 20
121.501875
 30
0.0
 11
131.974167
 21
120.699306
 31
0.0
  0
LINE
  5
3ed
100
AcDbEntity
  8
Layer_1
 62
7
100
AcDbLine
 10
131.974167
 20
120.699306
 30
0.0
 11
131.974167
 21
119.896736
 31
0.0
  0
LINE
  5
3ee
100
AcDbEntity
  8
Layer_1
 62
7
100
AcDbLine
 10
131.974167
 20
119.896736
 30
0.0
 11
131.974167
 21
119.094167
 31
0.0
  0
LINE
  5
3ef
100
AcDbEntity
  8
Layer_1
 62
7
100
AcDbLine
 10
131.974167
 20
119.094167
 30
0.0
 11
131.974167
 21
118.291597
 31
0.0
  0
LINE
  5
3f0
100
AcDbEntity
  8
Layer_1
 62
7
100
AcDbLine
 10
131.974167
 20
118.291597
 30
0.0
 11
131.974167
 21
117.489028
 31
0.0
  0
LINE
  5
3f1
100
AcDbEntity
  8
Layer_1
 62
7
100
AcDbLine
 10
131.974167
 20
117.489028
 30
0.0
 11
131.974167
 21
116.686458
 31
0.0
  0
LINE
  5
3f2
100
AcDbEntity
  8
Layer_1
 62
7
100
AcDbLine
 10
131.974167
 20
116.686458
 30
0.0
 11
132.529792
 21
116.686458
 31
0.0
  0
LINE
  5
3f3
100
AcDbEntity
  8
Layer_1
 62
7
100
AcDbLine
 10
132.529792
 20
116.686458
 30
0.0
 11
133.094236
 21
116.686458
 31
0.0
  0
LINE
  5
3f4
100
AcDbEntity
  8
Layer_1
 62
7
100
AcDbLine
 10
133.094236
 20
116.686458
 30
0.0
 11
133.649861
 21
116.686458
 31
0.0
  0
LINE
  5
3f5
100
AcDbEntity
  8
Layer_1
 62
7
100
AcDbLine
 10
133.649861
 20
116.686458
 30
0.0
 11
134.214306
 21
116.686458
 31
0.0
  0
LINE
  5
3f6
100
AcDbEntity
  8
Layer_1
 62
7
100
AcDbLine
 10
134.214306
 20
116.686458
 30
0.0
 11
134.778750
 21
116.686458
 31
0.0
  0
LINE
  5
3f7
100
AcDbEntity
  8
Layer_1
 62
7
100
AcDbLine
 10
134.778750
 20
116.686458
 30
0.0
 11
135.334375
 21
116.686458
 31
0.0
  0
LINE
  5
3f8
100
AcDbEntity
  8
Layer_1
 62
7
100
AcDbLine
 10
135.334375
 20
116.686458
 30
0.0
 11
135.898819
 21
116.686458
 31
0.0
  0
LINE
  5
3f9
100
AcDbEntity
  8
Layer_1
 62
7
100
AcDbLine
 10
135.898819
 20
116.686458
 30
0.0
 11
136.454444
 21
116.686458
 31
0.0
  0
LINE
  5
3fa
100
AcDbEntity
  8
Layer_1
 62
7
100
AcDbLine
 10
136.454444
 20
116.686458
 30
0.0
 11
136.454444
 21
118.044653
 31
0.0
  0
LINE
  5
3fb
100
AcDbEntity
  8
Layer_1
 62
7
100
AcDbLine
 10
136.454444
 20
118.044653
 30
0.0
 11
136.454444
 21
119.402847
 31
0.0
  0
LINE
  5
3fc
100
AcDbEntity
  8
Layer_1
 62
7
100
AcDbLine
 10
136.454444
 20
119.402847
 30
0.0
 11
136.454444
 21
120.761042
 31
0.0
  0
LINE
  5
3fd
100
AcDbEntity
  8
Layer_1
 62
7
100
AcDbLine
 10
136.454444
 20
120.761042
 30
0.0
 11
136.454444
 21
122.119236
 31
0.0
  0
LINE
  5
3fe
100
AcDbEntity
  8
Layer_1
 62
7
100
AcDbLine
 10
136.454444
 20
122.119236
 30
0.0
 11
136.454444
 21
123.477431
 31
0.0
  0
LINE
  5
3ff
100
AcDbEntity
  8
Layer_1
 62
7
100
AcDbLine
 10
136.454444
 20
123.477431
 30
0.0
 11
136.454444
 21
124.835625
 31
0.0
  0
LINE
  5
400
100
AcDbEntity
  8
Layer_1
 62
7
100
AcDbLine
 10
136.454444
 20
124.835625
 30
0.0
 11
136.454444
 21
126.193819
 31
0.0
  0
LINE
  5
401
100
AcDbEntity
  8
Layer_1
 62
7
100
AcDbLine
 10
136.454444
 20
126.193819
 30
0.0
 11
136.454444
 21
127.552014
 31
0.0
  0
LINE
  5
402
100
AcDbEntity
  8
Layer_1
 62
7
100
AcDbLine
 10
136.454444
 20
127.552014
 30
0.0
 11
132.670903
 21
127.552014
 31
0.0
  0
LINE
  5
403
100
AcDbEntity
  8
Layer_1
 62
7
100
AcDbLine
 10
132.670903
 20
127.552014
 30
0.0
 11
128.878542
 21
127.552014
 31
0.0
  0
LINE
  5
404
100
AcDbEntity
  8
Layer_1
 62
7
100
AcDbLine
 10
128.878542
 20
127.552014
 30
0.0
 11
125.086181
 21
127.552014
 31
0.0
  0
LINE
  5
405
100
AcDbEntity
  8
Layer_1
 62
7
100
AcDbLine
 10
125.086181
 20
127.552014
 30
0.0
 11
121.302639
 21
127.552014
 31
0.0
  0
LINE
  5
406
100
AcDbEntity
  8
Layer_1
 62
7
100
AcDbLine
 10
121.302639
 20
127.552014
 30
0.0
 11
117.510278
 21
127.552014
 31
0.0
  0
LINE
  5
407
100
AcDbEntity
  8
Layer_1
 62
7
100
AcDbLine
 10
117.510278
 20
127.552014
 30
0.0
 11
113.717917
 21
127.552014
 31
0.0
  0
LINE
  5
408
100
AcDbEntity
  8
Layer_1
 62
7
100
AcDbLine
 10
113.717917
 20
127.552014
 30
0.0
 11
109.934375
 21
127.552014
 31
0.0
  0
LINE
  5
409
100
AcDbEntity
  8
Layer_1
 62
7
100
AcDbLine
 10
109.934375
 20
127.552014
 30
0.0
 11
106.142014
 21
127.552014
 31
0.0
  0
LINE
  5
40a
100
AcDbEntity
  8
Layer_1
 62
7
100
AcDbLine
 10
106.142014
 20
127.552014
 30
0.0
 11
106.142014
 21
127.552014
 31
0.0
  0
LINE
  5
40b
100
AcDbEntity
  8
Layer_1
 62
7
100
AcDbLine
 10
140.405556
 20
127.552014
 30
0.0
 11
140.405556
 21
126.996389
 31
0.0
  0
LINE
  5
40c
100
AcDbEntity
  8
Layer_1
 62
7
100
AcDbLine
 10
140.405556
 20
126.996389
 30
0.0
 11
140.405556
 21
126.440764
 31
0.0
  0
LINE
  5
40d
100
AcDbEntity
  8
Layer_1
 62
7
100
AcDbLine
 10
140.405556
 20
126.440764
 30
0.0
 11
140.405556
 21
125.885139
 31
0.0
  0
LINE
  5
40e
100
AcDbEntity
  8
Layer_1
 62
7
100
AcDbLine
 10
140.405556
 20
125.885139
 30
0.0
 11
140.405556
 21
125.329514
 31
0.0
  0
LINE
  5
40f
100
AcDbEntity
  8
Layer_1
 62
7
100
AcDbLine
 10
140.405556
 20
125.329514
 30
0.0
 11
140.405556
 21
124.773889
 31
0.0
  0
LINE
  5
410
100
AcDbEntity
  8
Layer_1
 62
7
100
AcDbLine
 10
140.405556
 20
124.773889
 30
0.0
 11
140.405556
 21
124.218264
 31
0.0
  0
LINE
  5
411
100
AcDbEntity
  8
Layer_1
 62
7
100
AcDbLine
 10
140.405556
 20
124.218264
 30
0.0
 11
140.405556
 21
123.662639
 31
0.0
  0
LINE
  5
412
100
AcDbEntity
  8
Layer_1
 62
7
100
AcDbLine
 10
140.405556
 20
123.662639
 30
0.0
 11
140.405556
 21
123.107014
 31
0.0
  0
LINE
  5
413
100
AcDbEntity
  8
Layer_1
 62
7
100
AcDbLine
 10
140.405556
 20
123.107014
 30
0.0
 11
141.022917
 21
123.098194
 31
0.0
  0
LINE
  5
414
100
AcDbEntity
  8
Layer_1
 62
7
100
AcDbLine
 10
141.022917
 20
123.098194
 30
0.0
 11
141.640278
 21
123.089375
 31
0.0
  0
LINE
  5
415
100
AcDbEntity
  8
Layer_1
 62
7
100
AcDbLine
 10
141.640278
 20
123.089375
 30
0.0
 11
142.248819
 21
123.071736
 31
0.0
  0
LINE
  5
416
100
AcDbEntity
  8
Layer_1
 62
7
100
AcDbLine
 10
142.248819
 20
123.071736
 30
0.0
 11
142.866181
 21
123.062917
 31
0.0
  0
LINE
  5
417
100
AcDbEntity
  8
Layer_1
 62
7
100
AcDbLine
 10
142.866181
 20
123.062917
 30
0.0
 11
143.483542
 21
123.045278
 31
0.0
  0
LINE
  5
418
100
AcDbEntity
  8
Layer_1
 62
7
100
AcDbLine
 10
143.483542
 20
123.045278
 30
0.0
 11
144.100903
 21
123.036458
 31
0.0
  0
LINE
  5
419
100
AcDbEntity
  8
Layer_1
 62
7
100
AcDbLine
 10
144.100903
 20
123.036458
 30
0.0
 11
144.718264
 21
123.027639
 31
0.0
  0
LINE
  5
41a
100
AcDbEntity
  8
Layer_1
 62
7
100
AcDbLine
 10
144.718264
 20
123.027639
 30
0.0
 11
145.335625
 21
123.010000
 31
0.0
  0
LINE
  5
41b
100
AcDbEntity
  8
Layer_1
 62
7
100
AcDbLine
 10
145.335625
 20
123.010000
 30
0.0
 11
145.344444
 21
119.614514
 31
0.0
  0
LINE
  5
41c
100
AcDbEntity
  8
Layer_1
 62
7
100
AcDbLine
 10
145.344444
 20
119.614514
 30
0.0
 11
145.362083
 21
116.219028
 31
0.0
  0
LINE
  5
41d
100
AcDbEntity
  8
Layer_1
 62
7
100
AcDbLine
 10
145.362083
 20
116.219028
 30
0.0
 11
145.370903
 21
112.823542
 31
0.0
  0
LINE
  5
41e
100
AcDbEntity
  8
Layer_1
 62
7
100
AcDbLine
 10
145.370903
 20
112.823542
 30
0.0
 11
145.379722
 21
109.428056
 31
0.0
  0
LINE
  5
41f
100
AcDbEntity
  8
Layer_1
 62
7
100
AcDbLine
 10
145.379722
 20
109.428056
 30
0.0
 11
145.397361
 21
106.032569
 31
0.0
  0
LINE
  5
420
100
AcDbEntity
  8
Layer_1
 62
7
100
AcDbLine
 10
145.397361
 20
106.032569
 30
0.0
 11
145.406181
 21
102.637083
 31
0.0
  0
LINE
  5
421
100
AcDbEntity
  8
Layer_1
 62
7
100
AcDbLine
 10
145.406181
 20
102.637083
 30
0.0
 11
145.415000
 21
99.241597
 31
0.0
  0
LINE
  5
422
100
AcDbEntity
  8
Layer_1
 62
7
100
AcDbLine
 10
145.415000
 20
99.241597
 30
0.0
 11
145.423819
 21
95.846111
 31
0.0
  0
LINE
  5
423
100
AcDbEntity
  8
Layer_1
 62
7
100
AcDbLine
 10
145.423819
 20
95.846111
 30
0.0
 11
144.797639
 21
95.846111
 31
0.0
  0
LINE
  5
424
100
AcDbEntity
  8
Layer_1
 62
7
100
AcDbLine
 10
144.797639
 20
95.846111
 30
0.0
 11
144.171458
 21
95.846111
 31
0.0
  0
LINE
  5
425
100
AcDbEntity
  8
Layer_1
 62
7
100
AcDbLine
 10
144.171458
 20
95.846111
 30
0.0
 11
143.545278
 21
95.846111
 31
0.0
  0
LINE
  5
426
100
AcDbEntity
  8
Layer_1
 62
7
100
AcDbLine
 10
143.545278
 20
95.846111
 30
0.0
 11
142.919097
 21
95.846111
 31
0.0
  0
LINE
  5
427
100
AcDbEntity
  8
Layer_1
 62
7
100
AcDbLine
 10
142.919097
 20
95.846111
 30
0.0
 11
142.284097
 21
95.846111
 31
0.0
  0
LINE
  5
428
100
AcDbEntity
  8
Layer_1
 62
7
100
AcDbLine
 10
142.284097
 20
95.846111
 30
0.0
 11
141.657917
 21
95.846111
 31
0.0
  0
LINE
  5
429
100
AcDbEntity
  8
Layer_1
 62
7
100
AcDbLine
 10
141.657917
 20
95.846111
 30
0.0
 11
141.031736
 21
95.846111
 31
0.0
  0
LINE
  5
42a
100
AcDbEntity
  8
Layer_1
 62
7
100
AcDbLine
 10
141.031736
 20
95.846111
 30
0.0
 11
140.405556
 21
95.846111
 31
0.0
  0
LINE
  5
42b
100
AcDbEntity
  8
Layer_1
 62
7
100
AcDbLine
 10
140.405556
 20
95.846111
 30
0.0
 11
140.405556
 21
95.264028
 31
0.0
  0
LINE
  5
42c
100
AcDbEntity
  8
Layer_1
 62
7
100
AcDbLine
 10
140.405556
 20
95.264028
 30
0.0
 11
140.405556
 21
94.690764
 31
0.0
  0
LINE
  5
42d
100
AcDbEntity
  8
Layer_1
 62
7
100
AcDbLine
 10
140.405556
 20
94.690764
 30
0.0
 11
140.405556
 21
94.108681
 31
0.0
  0
LINE
  5
42e
100
AcDbEntity
  8
Layer_1
 62
7
100
AcDbLine
 10
140.405556
 20
94.108681
 30
0.0
 11
140.405556
 21
93.526597
 31
0.0
  0
LINE
  5
42f
100
AcDbEntity
  8
Layer_1
 62
7
100
AcDbLine
 10
140.405556
 20
93.526597
 30
0.0
 11
140.405556
 21
92.953333
 31
0.0
  0
LINE
  5
430
100
AcDbEntity
  8
Layer_1
 62
7
100
AcDbLine
 10
140.405556
 20
92.953333
 30
0.0
 11
140.405556
 21
92.371250
 31
0.0
  0
LINE
  5
431
100
AcDbEntity
  8
Layer_1
 62
7
100
AcDbLine
 10
140.405556
 20
92.371250
 30
0.0
 11
140.405556
 21
91.797986
 31
0.0
  0
LINE
  5
432
100
AcDbEntity
  8
Layer_1
 62
7
100
AcDbLine
 10
140.405556
 20
91.797986
 30
0.0
 11
140.405556
 21
91.215903
 31
0.0
  0
LINE
  5
433
100
AcDbEntity
  8
Layer_1
 62
7
100
AcDbLine
 10
140.405556
 20
91.215903
 30
0.0
 11
142.284097
 21
91.215903
 31
0.0
  0
LINE
  5
434
100
AcDbEntity
  8
Layer_1
 62
7
100
AcDbLine
 10
142.284097
 20
91.215903
 30
0.0
 11
144.171458
 21
91.215903
 31
0.0
  0
LINE
  5
435
100
AcDbEntity
  8
Layer_1
 62
7
100
AcDbLine
 10
144.171458
 20
91.215903
 30
0.0
 11
146.050000
 21
91.215903
 31
0.0
  0
LINE
  5
436
100
AcDbEntity
  8
Layer_1
 62
7
100
AcDbLine
 10
146.050000
 20
91.215903
 30
0.0
 11
147.937361
 21
91.215903
 31
0.0
  0
LINE
  5
437
100
AcDbEntity
  8
Layer_1
 62
7
100
AcDbLine
 10
147.937361
 20
91.215903
 30
0.0
 11
149.824722
 21
91.215903
 31
0.0
  0
LINE
  5
438
100
AcDbEntity
  8
Layer_1
 62
7
100
AcDbLine
 10
149.824722
 20
91.215903
 30
0.0
 11
151.703264
 21
91.215903
 31
0.0
  0
LINE
  5
439
100
AcDbEntity
  8
Layer_1
 62
7
100
AcDbLine
 10
151.703264
 20
91.215903
 30
0.0
 11
153.590625
 21
91.215903
 31
0.0
  0
LINE
  5
43a
100
AcDbEntity
  8
Layer_1
 62
7
100
AcDbLine
 10
153.590625
 20
91.215903
 30
0.0
 11
155.469167
 21
91.215903
 31
0.0
  0
LINE
  5
43b
100
AcDbEntity
  8
Layer_1
 62
7
100
AcDbLine
 10
155.469167
 20
91.215903
 30
0.0
 11
155.469167
 21
91.797986
 31
0.0
  0
LINE
  5
43c
100
AcDbEntity
  8
Layer_1
 62
7
100
AcDbLine
 10
155.469167
 20
91.797986
 30
0.0
 11
155.469167
 21
92.371250
 31
0.0
  0
LINE
  5
43d
100
AcDbEntity
  8
Layer_1
 62
7
100
AcDbLine
 10
155.469167
 20
92.371250
 30
0.0
 11
155.469167
 21
92.953333
 31
0.0
  0
LINE
  5
43e
100
AcDbEntity
  8
Layer_1
 62
7
100
AcDbLine
 10
155.469167
 20
92.953333
 30
0.0
 11
155.469167
 21
93.526597
 31
0.0
  0
LINE
  5
43f
100
AcDbEntity
  8
Layer_1
 62
7
100
AcDbLine
 10
155.469167
 20
93.526597
 30
0.0
 11
155.469167
 21
94.108681
 31
0.0
  0
LINE
  5
440
100
AcDbEntity
  8
Layer_1
 62
7
100
AcDbLine
 10
155.469167
 20
94.108681
 30
0.0
 11
155.469167
 21
94.690764
 31
0.0
  0
LINE
  5
441
100
AcDbEntity
  8
Layer_1
 62
7
100
AcDbLine
 10
155.469167
 20
94.690764
 30
0.0
 11
155.469167
 21
95.264028
 31
0.0
  0
LINE
  5
442
100
AcDbEntity
  8
Layer_1
 62
7
100
AcDbLine
 10
155.469167
 20
95.264028
 30
0.0
 11
155.469167
 21
95.846111
 31
0.0
  0
LINE
  5
443
100
AcDbEntity
  8
Layer_1
 62
7
100
AcDbLine
 10
155.469167
 20
95.846111
 30
0.0
 11
154.887083
 21
95.846111
 31
0.0
  0
LINE
  5
444
100
AcDbEntity
  8
Layer_1
 62
7
100
AcDbLine
 10
154.887083
 20
95.846111
 30
0.0
 11
154.305000
 21
95.846111
 31
0.0
  0
LINE
  5
445
100
AcDbEntity
  8
Layer_1
 62
7
100
AcDbLine
 10
154.305000
 20
95.846111
 30
0.0
 11
153.722917
 21
95.846111
 31
0.0
  0
LINE
  5
446
100
AcDbEntity
  8
Layer_1
 62
7
100
AcDbLine
 10
153.722917
 20
95.846111
 30
0.0
 11
153.140833
 21
95.846111
 31
0.0
  0
LINE
  5
447
100
AcDbEntity
  8
Layer_1
 62
7
100
AcDbLine
 10
153.140833
 20
95.846111
 30
0.0
 11
152.558750
 21
95.846111
 31
0.0
  0
LINE
  5
448
100
AcDbEntity
  8
Layer_1
 62
7
100
AcDbLine
 10
152.558750
 20
95.846111
 30
0.0
 11
151.976667
 21
95.846111
 31
0.0
  0
LINE
  5
449
100
AcDbEntity
  8
Layer_1
 62
7
100
AcDbLine
 10
151.976667
 20
95.846111
 30
0.0
 11
151.385764
 21
95.846111
 31
0.0
  0
LINE
  5
44a
100
AcDbEntity
  8
Layer_1
 62
7
100
AcDbLine
 10
151.385764
 20
95.846111
 30
0.0
 11
150.803681
 21
95.846111
 31
0.0
  0
LINE
  5
44b
100
AcDbEntity
  8
Layer_1
 62
7
100
AcDbLine
 10
150.803681
 20
95.846111
 30
0.0
 11
150.803681
 21
97.407153
 31
0.0
  0
LINE
  5
44c
100
AcDbEntity
  8
Layer_1
 62
7
100
AcDbLine
 10
150.803681
 20
97.407153
 30
0.0
 11
150.803681
 21
98.968194
 31
0.0
  0
LINE
  5
44d
100
AcDbEntity
  8
Layer_1
 62
7
100
AcDbLine
 10
150.803681
 20
98.968194
 30
0.0
 11
150.803681
 21
100.529236
 31
0.0
  0
LINE
  5
44e
100
AcDbEntity
  8
Layer_1
 62
7
100
AcDbLine
 10
150.803681
 20
100.529236
 30
0.0
 11
150.803681
 21
102.090278
 31
0.0
  0
LINE
  5
44f
100
AcDbEntity
  8
Layer_1
 62
7
100
AcDbLine
 10
150.803681
 20
102.090278
 30
0.0
 11
150.803681
 21
103.642500
 31
0.0
  0
LINE
  5
450
100
AcDbEntity
  8
Layer_1
 62
7
100
AcDbLine
 10
150.803681
 20
103.642500
 30
0.0
 11
150.803681
 21
105.203542
 31
0.0
  0
LINE
  5
451
100
AcDbEntity
  8
Layer_1
 62
7
100
AcDbLine
 10
150.803681
 20
105.203542
 30
0.0
 11
150.803681
 21
106.764583
 31
0.0
  0
LINE
  5
452
100
AcDbEntity
  8
Layer_1
 62
7
100
AcDbLine
 10
150.803681
 20
106.764583
 30
0.0
 11
150.803681
 21
108.325625
 31
0.0
  0
LINE
  5
453
100
AcDbEntity
  8
Layer_1
 62
7
100
AcDbLine
 10
150.803681
 20
108.325625
 30
0.0
 11
151.465139
 21
108.316806
 31
0.0
  0
LINE
  5
454
100
AcDbEntity
  8
Layer_1
 62
7
100
AcDbLine
 10
151.465139
 20
108.316806
 30
0.0
 11
152.117778
 21
108.299167
 31
0.0
  0
LINE
  5
455
100
AcDbEntity
  8
Layer_1
 62
7
100
AcDbLine
 10
152.117778
 20
108.299167
 30
0.0
 11
152.770417
 21
108.290347
 31
0.0
  0
LINE
  5
456
100
AcDbEntity
  8
Layer_1
 62
7
100
AcDbLine
 10
152.770417
 20
108.290347
 30
0.0
 11
153.423056
 21
108.272708
 31
0.0
  0
LINE
  5
457
100
AcDbEntity
  8
Layer_1
 62
7
100
AcDbLine
 10
153.423056
 20
108.272708
 30
0.0
 11
154.075694
 21
108.263889
 31
0.0
  0
LINE
  5
458
100
AcDbEntity
  8
Layer_1
 62
7
100
AcDbLine
 10
154.075694
 20
108.263889
 30
0.0
 11
154.737153
 21
108.255069
 31
0.0
  0
LINE
  5
459
100
AcDbEntity
  8
Layer_1
 62
7
100
AcDbLine
 10
154.737153
 20
108.255069
 30
0.0
 11
155.389792
 21
108.237431
 31
0.0
  0
LINE
  5
45a
100
AcDbEntity
  8
Layer_1
 62
7
100
AcDbLine
 10
155.389792
 20
108.237431
 30
0.0
 11
156.042431
 21
108.228611
 31
0.0
  0
LINE
  5
45b
100
AcDbEntity
  8
Layer_1
 62
7
100
AcDbLine
 10
156.042431
 20
108.228611
 30
0.0
 11
157.047847
 21
106.182500
 31
0.0
  0
LINE
  5
45c
100
AcDbEntity
  8
Layer_1
 62
7
100
AcDbLine
 10
157.047847
 20
106.182500
 30
0.0
 11
158.053264
 21
104.127569
 31
0.0
  0
LINE
  5
45d
100
AcDbEntity
  8
Layer_1
 62
7
100
AcDbLine
 10
158.053264
 20
104.127569
 30
0.0
 11
159.049861
 21
102.081458
 31
0.0
  0
LINE
  5
45e
100
AcDbEntity
  8
Layer_1
 62
7
100
AcDbLine
 10
159.049861
 20
102.081458
 30
0.0
 11
160.055278
 21
100.035347
 31
0.0
  0
LINE
  5
45f
100
AcDbEntity
  8
Layer_1
 62
7
100
AcDbLine
 10
160.055278
 20
100.035347
 30
0.0
 11
161.625139
 21
96.825069
 31
0.0
  0
LINE
  5
460
100
AcDbEntity
  8
Layer_1
 62
7
100
AcDbLine
 10
161.625139
 20
96.825069
 30
0.0
 11
162.948056
 21
94.152778
 31
0.0
  0
LINE
  5
461
100
AcDbEntity
  8
Layer_1
 62
7
100
AcDbLine
 10
162.948056
 20
94.152778
 30
0.0
 11
163.865278
 21
92.291875
 31
0.0
  0
LINE
  5
462
100
AcDbEntity
  8
Layer_1
 62
7
100
AcDbLine
 10
163.865278
 20
92.291875
 30
0.0
 11
164.253333
 21
91.524583
 31
0.0
  0
LINE
  5
463
100
AcDbEntity
  8
Layer_1
 62
7
100
AcDbLine
 10
164.253333
 20
91.524583
 30
0.0
 11
164.465000
 21
91.357014
 31
0.0
  0
LINE
  5
464
100
AcDbEntity
  8
Layer_1
 62
7
100
AcDbLine
 10
164.465000
 20
91.357014
 30
0.0
 11
165.038264
 21
91.268819
 31
0.0
  0
LINE
  5
465
100
AcDbEntity
  8
Layer_1
 62
7
100
AcDbLine
 10
165.038264
 20
91.268819
 30
0.0
 11
166.220069
 21
91.224722
 31
0.0
  0
LINE
  5
466
100
AcDbEntity
  8
Layer_1
 62
7
100
AcDbLine
 10
166.220069
 20
91.224722
 30
0.0
 11
168.301458
 21
91.215903
 31
0.0
  0
LINE
  5
467
100
AcDbEntity
  8
Layer_1
 62
7
100
AcDbLine
 10
168.301458
 20
91.215903
 30
0.0
 11
169.262778
 21
91.215903
 31
0.0
  0
LINE
  5
468
100
AcDbEntity
  8
Layer_1
 62
7
100
AcDbLine
 10
169.262778
 20
91.215903
 30
0.0
 11
170.224097
 21
91.215903
 31
0.0
  0
LINE
  5
469
100
AcDbEntity
  8
Layer_1
 62
7
100
AcDbLine
 10
170.224097
 20
91.215903
 30
0.0
 11
171.194236
 21
91.215903
 31
0.0
  0
LINE
  5
46a
100
AcDbEntity
  8
Layer_1
 62
7
100
AcDbLine
 10
171.194236
 20
91.215903
 30
0.0
 11
172.155556
 21
91.215903
 31
0.0
  0
LINE
  5
46b
100
AcDbEntity
  8
Layer_1
 62
7
100
AcDbLine
 10
172.155556
 20
91.215903
 30
0.0
 11
172.155556
 21
91.797986
 31
0.0
  0
LINE
  5
46c
100
AcDbEntity
  8
Layer_1
 62
7
100
AcDbLine
 10
172.155556
 20
91.797986
 30
0.0
 11
172.155556
 21
92.371250
 31
0.0
  0
LINE
  5
46d
100
AcDbEntity
  8
Layer_1
 62
7
100
AcDbLine
 10
172.155556
 20
92.371250
 30
0.0
 11
172.155556
 21
92.953333
 31
0.0
  0
LINE
  5
46e
100
AcDbEntity
  8
Layer_1
 62
7
100
AcDbLine
 10
172.155556
 20
92.953333
 30
0.0
 11
172.155556
 21
93.526597
 31
0.0
  0
LINE
  5
46f
100
AcDbEntity
  8
Layer_1
 62
7
100
AcDbLine
 10
172.155556
 20
93.526597
 30
0.0
 11
172.155556
 21
94.108681
 31
0.0
  0
LINE
  5
470
100
AcDbEntity
  8
Layer_1
 62
7
100
AcDbLine
 10
172.155556
 20
94.108681
 30
0.0
 11
172.155556
 21
94.690764
 31
0.0
  0
LINE
  5
471
100
AcDbEntity
  8
Layer_1
 62
7
100
AcDbLine
 10
172.155556
 20
94.690764
 30
0.0
 11
172.155556
 21
95.264028
 31
0.0
  0
LINE
  5
472
100
AcDbEntity
  8
Layer_1
 62
7
100
AcDbLine
 10
172.155556
 20
95.264028
 30
0.0
 11
172.155556
 21
95.846111
 31
0.0
  0
LINE
  5
473
100
AcDbEntity
  8
Layer_1
 62
7
100
AcDbLine
 10
172.155556
 20
95.846111
 30
0.0
 11
171.599931
 21
95.846111
 31
0.0
  0
LINE
  5
474
100
AcDbEntity
  8
Layer_1
 62
7
100
AcDbLine
 10
171.599931
 20
95.846111
 30
0.0
 11
171.044306
 21
95.846111
 31
0.0
  0
LINE
  5
475
100
AcDbEntity
  8
Layer_1
 62
7
100
AcDbLine
 10
171.044306
 20
95.846111
 30
0.0
 11
170.497500
 21
95.846111
 31
0.0
  0
LINE
  5
476
100
AcDbEntity
  8
Layer_1
 62
7
100
AcDbLine
 10
170.497500
 20
95.846111
 30
0.0
 11
169.941875
 21
95.846111
 31
0.0
  0
LINE
  5
477
100
AcDbEntity
  8
Layer_1
 62
7
100
AcDbLine
 10
169.941875
 20
95.846111
 30
0.0
 11
169.386250
 21
95.846111
 31
0.0
  0
LINE
  5
478
100
AcDbEntity
  8
Layer_1
 62
7
100
AcDbLine
 10
169.386250
 20
95.846111
 30
0.0
 11
168.830625
 21
95.846111
 31
0.0
  0
LINE
  5
479
100
AcDbEntity
  8
Layer_1
 62
7
100
AcDbLine
 10
168.830625
 20
95.846111
 30
0.0
 11
168.283819
 21
95.846111
 31
0.0
  0
LINE
  5
47a
100
AcDbEntity
  8
Layer_1
 62
7
100
AcDbLine
 10
168.283819
 20
95.846111
 30
0.0
 11
167.728194
 21
95.846111
 31
0.0
  0
LINE
  5
47b
100
AcDbEntity
  8
Layer_1
 62
7
100
AcDbLine
 10
167.728194
 20
95.846111
 30
0.0
 11
166.934444
 21
97.477708
 31
0.0
  0
LINE
  5
47c
100
AcDbEntity
  8
Layer_1
 62
7
100
AcDbLine
 10
166.934444
 20
97.477708
 30
0.0
 11
166.131875
 21
99.100486
 31
0.0
  0
LINE
  5
47d
100
AcDbEntity
  8
Layer_1
 62
7
100
AcDbLine
 10
166.131875
 20
99.100486
 30
0.0
 11
165.338125
 21
100.732083
 31
0.0
  0
LINE
  5
47e
100
AcDbEntity
  8
Layer_1
 62
7
100
AcDbLine
 10
165.338125
 20
100.732083
 30
0.0
 11
164.535556
 21
102.354861
 31
0.0
  0
LINE
  5
47f
100
AcDbEntity
  8
Layer_1
 62
7
100
AcDbLine
 10
164.535556
 20
102.354861
 30
0.0
 11
163.309653
 21
104.894861
 31
0.0
  0
LINE
  5
480
100
AcDbEntity
  8
Layer_1
 62
7
100
AcDbLine
 10
163.309653
 20
104.894861
 30
0.0
 11
162.313056
 21
106.985069
 31
0.0
  0
LINE
  5
481
100
AcDbEntity
  8
Layer_1
 62
7
100
AcDbLine
 10
162.313056
 20
106.985069
 30
0.0
 11
161.660417
 21
108.413819
 31
0.0
  0
LINE
  5
482
100
AcDbEntity
  8
Layer_1
 62
7
100
AcDbLine
 10
161.660417
 20
108.413819
 30
0.0
 11
161.448750
 21
108.969444
 31
0.0
  0
LINE
  5
483
100
AcDbEntity
  8
Layer_1
 62
7
100
AcDbLine
 10
161.448750
 20
108.969444
 30
0.0
 11
161.581042
 21
109.040000
 31
0.0
  0
LINE
  5
484
100
AcDbEntity
  8
Layer_1
 62
7
100
AcDbLine
 10
161.581042
 20
109.040000
 30
0.0
 11
161.863264
 21
109.163472
 31
0.0
  0
LINE
  5
485
100
AcDbEntity
  8
Layer_1
 62
7
100
AcDbLine
 10
161.863264
 20
109.163472
 30
0.0
 11
162.260139
 21
109.313403
 31
0.0
  0
LINE
  5
486
100
AcDbEntity
  8
Layer_1
 62
7
100
AcDbLine
 10
162.260139
 20
109.313403
 30
0.0
 11
162.727569
 21
109.472153
 31
0.0
  0
LINE
  5
487
100
AcDbEntity
  8
Layer_1
 62
7
100
AcDbLine
 10
162.727569
 20
109.472153
 30
0.0
 11
164.905972
 21
110.504028
 31
0.0
  0
LINE
  5
488
100
AcDbEntity
  8
Layer_1
 62
7
100
AcDbLine
 10
164.905972
 20
110.504028
 30
0.0
 11
166.616944
 21
111.915139
 31
0.0
  0
LINE
  5
489
100
AcDbEntity
  8
Layer_1
 62
7
100
AcDbLine
 10
166.616944
 20
111.915139
 30
0.0
 11
167.851667
 21
113.670208
 31
0.0
  0
LINE
  5
48a
100
AcDbEntity
  8
Layer_1
 62
7
100
AcDbLine
 10
167.851667
 20
113.670208
 30
0.0
 11
168.574861
 21
115.769236
 31
0.0
  0
LINE
  5
48b
100
AcDbEntity
  8
Layer_1
 62
7
100
AcDbLine
 10
168.574861
 20
115.769236
 30
0.0
 11
168.715972
 21
117.109792
 31
0.0
  0
LINE
  5
48c
100
AcDbEntity
  8
Layer_1
 62
7
100
AcDbLine
 10
168.715972
 20
117.109792
 30
0.0
 11
168.698333
 21
118.732569
 31
0.0
  0
LINE
  5
48d
100
AcDbEntity
  8
Layer_1
 62
7
100
AcDbLine
 10
168.698333
 20
118.732569
 30
0.0
 11
168.539583
 21
120.311250
 31
0.0
  0
LINE
  5
48e
100
AcDbEntity
  8
Layer_1
 62
7
100
AcDbLine
 10
168.539583
 20
120.311250
 30
0.0
 11
168.257361
 21
121.528333
 31
0.0
  0
LINE
  5
48f
100
AcDbEntity
  8
Layer_1
 62
7
100
AcDbLine
 10
168.257361
 20
121.528333
 30
0.0
 11
167.604722
 21
122.877708
 31
0.0
  0
LINE
  5
490
100
AcDbEntity
  8
Layer_1
 62
7
100
AcDbLine
 10
167.604722
 20
122.877708
 30
0.0
 11
166.705139
 21
124.130069
 31
0.0
  0
LINE
  5
491
100
AcDbEntity
  8
Layer_1
 62
7
100
AcDbLine
 10
166.705139
 20
124.130069
 30
0.0
 11
165.629167
 21
125.206042
 31
0.0
  0
LINE
  5
492
100
AcDbEntity
  8
Layer_1
 62
7
100
AcDbLine
 10
165.629167
 20
125.206042
 30
0.0
 11
164.438542
 21
126.026250
 31
0.0
  0
LINE
  5
493
100
AcDbEntity
  8
Layer_1
 62
7
100
AcDbLine
 10
164.438542
 20
126.026250
 30
0.0
 11
162.489444
 21
126.793542
 31
0.0
  0
LINE
  5
494
100
AcDbEntity
  8
Layer_1
 62
7
100
AcDbLine
 10
162.489444
 20
126.793542
 30
0.0
 11
159.640764
 21
127.260972
 31
0.0
  0
LINE
  5
495
100
AcDbEntity
  8
Layer_1
 62
7
100
AcDbLine
 10
159.640764
 20
127.260972
 30
0.0
 11
155.213403
 21
127.490278
 31
0.0
  0
LINE
  5
496
100
AcDbEntity
  8
Layer_1
 62
7
100
AcDbLine
 10
155.213403
 20
127.490278
 30
0.0
 11
148.519444
 21
127.552014
 31
0.0
  0
LINE
  5
497
100
AcDbEntity
  8
Layer_1
 62
7
100
AcDbLine
 10
148.519444
 20
127.552014
 30
0.0
 11
146.490972
 21
127.552014
 31
0.0
  0
LINE
  5
498
100
AcDbEntity
  8
Layer_1
 62
7
100
AcDbLine
 10
146.490972
 20
127.552014
 30
0.0
 11
144.462500
 21
127.552014
 31
0.0
  0
LINE
  5
499
100
AcDbEntity
  8
Layer_1
 62
7
100
AcDbLine
 10
144.462500
 20
127.552014
 30
0.0
 11
142.434028
 21
127.552014
 31
0.0
  0
LINE
  5
49a
100
AcDbEntity
  8
Layer_1
 62
7
100
AcDbLine
 10
142.434028
 20
127.552014
 30
0.0
 11
140.405556
 21
127.552014
 31
0.0
  0
LINE
  5
49b
100
AcDbEntity
  8
Layer_1
 62
7
100
AcDbLine
 10
140.405556
 20
127.552014
 30
0.0
 11
140.405556
 21
127.552014
 31
0.0
  0
LINE
  5
49c
100
AcDbEntity
  8
Layer_1
 62
7
100
AcDbLine
 10
150.803681
 20
123.098194
 30
0.0
 11
151.535694
 21
123.098194
 31
0.0
  0
LINE
  5
49d
100
AcDbEntity
  8
Layer_1
 62
7
100
AcDbLine
 10
151.535694
 20
123.098194
 30
0.0
 11
152.267708
 21
123.098194
 31
0.0
  0
LINE
  5
49e
100
AcDbEntity
  8
Layer_1
 62
7
100
AcDbLine
 10
152.267708
 20
123.098194
 30
0.0
 11
152.990903
 21
123.098194
 31
0.0
  0
LINE
  5
49f
100
AcDbEntity
  8
Layer_1
 62
7
100
AcDbLine
 10
152.990903
 20
123.098194
 30
0.0
 11
153.722917
 21
123.098194
 31
0.0
  0
LINE
  5
4a0
100
AcDbEntity
  8
Layer_1
 62
7
100
AcDbLine
 10
153.722917
 20
123.098194
 30
0.0
 11
157.056667
 21
123.027639
 31
0.0
  0
LINE
  5
4a1
100
AcDbEntity
  8
Layer_1
 62
7
100
AcDbLine
 10
157.056667
 20
123.027639
 30
0.0
 11
159.314444
 21
122.771875
 31
0.0
  0
LINE
  5
4a2
100
AcDbEntity
  8
Layer_1
 62
7
100
AcDbLine
 10
159.314444
 20
122.771875
 30
0.0
 11
160.813750
 21
122.269167
 31
0.0
  0
LINE
  5
4a3
100
AcDbEntity
  8
Layer_1
 62
7
100
AcDbLine
 10
160.813750
 20
122.269167
 30
0.0
 11
161.863264
 21
121.466597
 31
0.0
  0
LINE
  5
4a4
100
AcDbEntity
  8
Layer_1
 62
7
100
AcDbLine
 10
161.863264
 20
121.466597
 30
0.0
 11
162.401250
 21
120.805139
 31
0.0
  0
LINE
  5
4a5
100
AcDbEntity
  8
Layer_1
 62
7
100
AcDbLine
 10
162.401250
 20
120.805139
 30
0.0
 11
162.780486
 21
120.117222
 31
0.0
  0
LINE
  5
4a6
100
AcDbEntity
  8
Layer_1
 62
7
100
AcDbLine
 10
162.780486
 20
120.117222
 30
0.0
 11
163.018611
 21
119.358750
 31
0.0
  0
LINE
  5
4a7
100
AcDbEntity
  8
Layer_1
 62
7
100
AcDbLine
 10
163.018611
 20
119.358750
 30
0.0
 11
163.142083
 21
118.459167
 31
0.0
  0
LINE
  5
4a8
100
AcDbEntity
  8
Layer_1
 62
7
100
AcDbLine
 10
163.142083
 20
118.459167
 30
0.0
 11
163.133264
 21
117.339097
 31
0.0
  0
LINE
  5
4a9
100
AcDbEntity
  8
Layer_1
 62
7
100
AcDbLine
 10
163.133264
 20
117.339097
 30
0.0
 11
162.939236
 21
116.316042
 31
0.0
  0
LINE
  5
4aa
100
AcDbEntity
  8
Layer_1
 62
7
100
AcDbLine
 10
162.939236
 20
116.316042
 30
0.0
 11
162.560000
 21
115.390000
 31
0.0
  0
LINE
  5
4ab
100
AcDbEntity
  8
Layer_1
 62
7
100
AcDbLine
 10
162.560000
 20
115.390000
 30
0.0
 11
162.004375
 21
114.587431
 31
0.0
  0
LINE
  5
4ac
100
AcDbEntity
  8
Layer_1
 62
7
100
AcDbLine
 10
162.004375
 20
114.587431
 30
0.0
 11
161.378194
 21
113.961250
 31
0.0
  0
LINE
  5
4ad
100
AcDbEntity
  8
Layer_1
 62
7
100
AcDbLine
 10
161.378194
 20
113.961250
 30
0.0
 11
160.681458
 21
113.502639
 31
0.0
  0
LINE
  5
4ae
100
AcDbEntity
  8
Layer_1
 62
7
100
AcDbLine
 10
160.681458
 20
113.502639
 30
0.0
 11
159.852431
 21
113.176319
 31
0.0
  0
LINE
  5
4af
100
AcDbEntity
  8
Layer_1
 62
7
100
AcDbLine
 10
159.852431
 20
113.176319
 30
0.0
 11
158.855833
 21
112.955833
 31
0.0
  0
LINE
  5
4b0
100
AcDbEntity
  8
Layer_1
 62
7
100
AcDbLine
 10
158.855833
 20
112.955833
 30
0.0
 11
158.141458
 21
112.885278
 31
0.0
  0
LINE
  5
4b1
100
AcDbEntity
  8
Layer_1
 62
7
100
AcDbLine
 10
158.141458
 20
112.885278
 30
0.0
 11
157.039028
 21
112.823542
 31
0.0
  0
LINE
  5
4b2
100
AcDbEntity
  8
Layer_1
 62
7
100
AcDbLine
 10
157.039028
 20
112.823542
 30
0.0
 11
155.689653
 21
112.788264
 31
0.0
  0
LINE
  5
4b3
100
AcDbEntity
  8
Layer_1
 62
7
100
AcDbLine
 10
155.689653
 20
112.788264
 30
0.0
 11
154.260903
 21
112.770625
 31
0.0
  0
LINE
  5
4b4
100
AcDbEntity
  8
Layer_1
 62
7
100
AcDbLine
 10
154.260903
 20
112.770625
 30
0.0
 11
153.396597
 21
112.770625
 31
0.0
  0
LINE
  5
4b5
100
AcDbEntity
  8
Layer_1
 62
7
100
AcDbLine
 10
153.396597
 20
112.770625
 30
0.0
 11
152.532292
 21
112.770625
 31
0.0
  0
LINE
  5
4b6
100
AcDbEntity
  8
Layer_1
 62
7
100
AcDbLine
 10
152.532292
 20
112.770625
 30
0.0
 11
151.667986
 21
112.770625
 31
0.0
  0
LINE
  5
4b7
100
AcDbEntity
  8
Layer_1
 62
7
100
AcDbLine
 10
151.667986
 20
112.770625
 30
0.0
 11
150.803681
 21
112.770625
 31
0.0
  0
LINE
  5
4b8
100
AcDbEntity
  8
Layer_1
 62
7
100
AcDbLine
 10
150.803681
 20
112.770625
 30
0.0
 11
150.803681
 21
114.058264
 31
0.0
  0
LINE
  5
4b9
100
AcDbEntity
  8
Layer_1
 62
7
100
AcDbLine
 10
150.803681
 20
114.058264
 30
0.0
 11
150.803681
 21
115.354722
 31
0.0
  0
LINE
  5
4ba
100
AcDbEntity
  8
Layer_1
 62
7
100
AcDbLine
 10
150.803681
 20
115.354722
 30
0.0
 11
150.803681
 21
116.642361
 31
0.0
  0
LINE
  5
4bb
100
AcDbEntity
  8
Layer_1
 62
7
100
AcDbLine
 10
150.803681
 20
116.642361
 30
0.0
 11
150.803681
 21
117.938819
 31
0.0
  0
LINE
  5
4bc
100
AcDbEntity
  8
Layer_1
 62
7
100
AcDbLine
 10
150.803681
 20
117.938819
 30
0.0
 11
150.803681
 21
119.226458
 31
0.0
  0
LINE
  5
4bd
100
AcDbEntity
  8
Layer_1
 62
7
100
AcDbLine
 10
150.803681
 20
119.226458
 30
0.0
 11
150.803681
 21
120.514097
 31
0.0
  0
LINE
  5
4be
100
AcDbEntity
  8
Layer_1
 62
7
100
AcDbLine
 10
150.803681
 20
120.514097
 30
0.0
 11
150.803681
 21
121.810556
 31
0.0
  0
LINE
  5
4bf
100
AcDbEntity
  8
Layer_1
 62
7
100
AcDbLine
 10
150.803681
 20
121.810556
 30
0.0
 11
150.803681
 21
123.098194
 31
0.0
  0
LINE
  5
4c0
100
AcDbEntity
  8
Layer_1
 62
7
100
AcDbLine
 10
150.803681
 20
123.098194
 30
0.0
 11
150.803681
 21
123.098194
 31
0.0
  0
ENDSEC
  0
SECTION
  2
OBJECTS
  0
DICTIONARY
  5
C
330
0
100
AcDbDictionary
  3
ACAD_GROUP
350
D
  3
ACAD_MLINESTYLE
350
17
  0
DICTIONARY
  5
D
330
C
100
AcDbDictionary
  0
DICTIONARY
  5
1A
330
C
100
AcDbDictionary
  0
DICTIONARY
  5
17
330
C
100
AcDbDictionary
  3
STANDARD
350
18
  0
DICTIONARY
  5
19
330
C
100
AcDbDictionary
  0
ENDSEC
  0
EOF
